<?xml version="1.0" encoding="utf-8" standalone="no"?>
<!DOCTYPE svg PUBLIC "-//W3C//DTD SVG 1.1//EN"
  "http://www.w3.org/Graphics/SVG/1.1/DTD/svg11.dtd">
<!-- Created with matplotlib (http://matplotlib.org/) -->
<svg height="288pt" version="1.1" viewBox="0 0 432 288" width="432pt" xmlns="http://www.w3.org/2000/svg" xmlns:xlink="http://www.w3.org/1999/xlink">
 <defs>
  <style type="text/css">
*{stroke-linecap:butt;stroke-linejoin:round;}
  </style>
 </defs>
 <g id="figure_1">
  <g id="patch_1">
   <path d="M 0 288 
L 432 288 
L 432 0 
L 0 0 
z
" style="fill:#ffffff;"/>
  </g>
  <g id="axes_1">
   <g id="patch_2">
    <path d="M 54 252 
L 388.8 252 
L 388.8 34.56 
L 54 34.56 
z
" style="fill:#ffffff;"/>
   </g>
   <g id="matplotlib.axis_1">
    <g id="xtick_1">
     <g id="line2d_1">
      <defs>
       <path d="M 0 0 
L 0 3.5 
" id="mbe43e7f479" style="stroke:#000000;stroke-width:0.8;"/>
      </defs>
      <g>
       <use style="stroke:#000000;stroke-width:0.8;" x="63.149899" xlink:href="#mbe43e7f479" y="252"/>
      </g>
     </g>
     <g id="text_1">
      <!-- $0$ -->
      <defs>
       <path d="M 42 31.84375 
C 42 37.96875 41.90625 48.421875 37.703125 56.453125 
C 34 63.484375 28.09375 66 22.90625 66 
C 18.09375 66 12 63.78125 8.203125 56.5625 
C 4.203125 49.015625 3.796875 39.671875 3.796875 31.84375 
C 3.796875 26.109375 3.90625 17.375 7 9.734375 
C 11.296875 -0.609375 19 -2 22.90625 -2 
C 27.5 -2 34.5 -0.109375 38.59375 9.4375 
C 41.59375 16.375 42 24.5 42 31.84375 
z
M 22.90625 -0.40625 
C 16.5 -0.40625 12.703125 5.125 11.296875 12.75 
C 10.203125 18.6875 10.203125 27.328125 10.203125 32.953125 
C 10.203125 40.6875 10.203125 47.109375 11.5 53.234375 
C 13.40625 61.78125 19 64.390625 22.90625 64.390625 
C 27 64.390625 32.296875 61.671875 34.203125 53.4375 
C 35.5 47.71875 35.59375 40.984375 35.59375 32.953125 
C 35.59375 26.421875 35.59375 18.375 34.40625 12.453125 
C 32.296875 1.5 26.40625 -0.40625 22.90625 -0.40625 
z
" id="CMR17-48"/>
      </defs>
      <g transform="translate(57.667041 275.604405)scale(0.24 -0.24)">
       <use transform="scale(0.996264)" xlink:href="#CMR17-48"/>
      </g>
     </g>
    </g>
    <g id="xtick_2">
     <g id="line2d_2">
      <g>
       <use style="stroke:#000000;stroke-width:0.8;" x="224.626298" xlink:href="#mbe43e7f479" y="252"/>
      </g>
     </g>
     <g id="text_2">
      <!-- $5$ -->
      <defs>
       <path d="M 11.40625 58.59375 
C 12.40625 58.1875 16.5 56.890625 20.703125 56.890625 
C 30 56.890625 35.09375 61.890625 38 64.6875 
C 38 65.484375 38 66 37.40625 66 
C 37.296875 66 37.09375 66 36.296875 65.59375 
C 32.796875 64.09375 28.703125 63 23.703125 63 
C 20.703125 63 16.203125 63.359375 11.296875 65.484375 
C 10.203125 66 10 66 9.90625 66 
C 9.40625 66 9.296875 65.890625 9.296875 63.90625 
L 9.296875 34.859375 
C 9.296875 33.015625 9.296875 32.5 10.296875 32.5 
C 10.796875 32.5 11 32.703125 11.5 33.421875 
C 14.703125 38.046875 19.09375 40 24.09375 40 
C 27.59375 40 35.09375 37.734375 35.09375 20.203125 
C 35.09375 16.984375 35.09375 11.1875 32.09375 6.59375 
C 29.59375 2.484375 25.703125 0.390625 21.40625 0.390625 
C 14.796875 0.390625 8.09375 4.984375 6.296875 12.6875 
C 6.703125 12.59375 7.5 12.390625 7.90625 12.390625 
C 9.203125 12.390625 11.703125 13.09375 11.703125 16.1875 
C 11.703125 18.890625 9.796875 20 7.90625 20 
C 5.59375 20 4.09375 18.59375 4.09375 15.796875 
C 4.09375 7.09375 11 -2 21.59375 -2 
C 31.90625 -2 41.703125 6.890625 41.703125 19.796875 
C 41.703125 32.09375 33.90625 41.59375 24.203125 41.59375 
C 19.09375 41.59375 14.796875 39.6875 11.40625 36 
z
" id="CMR17-53"/>
      </defs>
      <g transform="translate(219.143441 275.604405)scale(0.24 -0.24)">
       <use transform="scale(0.996264)" xlink:href="#CMR17-53"/>
      </g>
     </g>
    </g>
    <g id="xtick_3">
     <g id="line2d_3">
      <g>
       <use style="stroke:#000000;stroke-width:0.8;" x="386.102698" xlink:href="#mbe43e7f479" y="252"/>
      </g>
     </g>
     <g id="text_3">
      <!-- $10$ -->
      <defs>
       <path d="M 26.59375 63.796875 
C 26.59375 65.890625 26.5 66 25.09375 66 
C 21.203125 61.359375 15.296875 59.890625 9.703125 59.6875 
C 9.40625 59.6875 8.90625 59.6875 8.796875 59.5 
C 8.703125 59.296875 8.703125 59.09375 8.703125 57 
C 11.796875 57 17 57.59375 21 59.984375 
L 21 7.296875 
C 21 3.796875 20.796875 2.59375 12.203125 2.59375 
L 9.203125 2.59375 
L 9.203125 0 
C 14 0.09375 19 0.1875 23.796875 0.1875 
C 28.59375 0.1875 33.59375 0.09375 38.40625 0 
L 38.40625 2.59375 
L 35.40625 2.59375 
C 26.796875 2.59375 26.59375 3.6875 26.59375 7.296875 
z
" id="CMR17-49"/>
      </defs>
      <g transform="translate(375.136984 275.604405)scale(0.24 -0.24)">
       <use transform="scale(0.996264)" xlink:href="#CMR17-49"/>
       <use transform="translate(45.690477 0)scale(0.996264)" xlink:href="#CMR17-48"/>
      </g>
     </g>
    </g>
    <g id="text_4">
     <!-- Time (s) -->
     <defs>
      <path d="M 62.203125 67.6875 
L 4.5 67.6875 
L 2.796875 45.6875 
L 4.59375 45.6875 
C 5.90625 62.203125 7.296875 65.09375 22.703125 65.09375 
C 24.5 65.09375 27.40625 65.09375 28.203125 64.984375 
C 30.09375 64.6875 30.09375 63.5 30.09375 61.203125 
L 30.09375 7.265625 
C 30.09375 3.6875 29.796875 2.59375 21.5 2.59375 
L 18.703125 2.59375 
L 18.703125 0 
C 23.5 0.09375 28.5 0.1875 33.40625 0.1875 
C 38.296875 0.1875 43.296875 0.09375 48.09375 0 
L 48.09375 2.59375 
L 45.296875 2.59375 
C 37 2.59375 36.703125 3.6875 36.703125 7.265625 
L 36.703125 61.203125 
C 36.703125 63.390625 36.703125 64.59375 38.5 64.984375 
C 39.296875 65.09375 42.203125 65.09375 44 65.09375 
C 59.296875 65.09375 60.796875 62.203125 62.09375 45.6875 
L 63.90625 45.6875 
z
" id="CMR17-84"/>
      <path d="M 15.5 61.890625 
C 15.5 64.09375 13.703125 66 11.40625 66 
C 9.203125 66 7.296875 64.1875 7.296875 61.890625 
C 7.296875 59.6875 9.09375 57.796875 11.40625 57.796875 
C 13.59375 57.796875 15.5 59.59375 15.5 61.890625 
z
M 3.796875 42.890625 
L 3.796875 40.296875 
C 9.40625 40.296875 10.203125 39.6875 10.203125 34.859375 
L 10.203125 6.921875 
C 10.203125 3.09375 9.796875 2.59375 3.40625 2.59375 
L 3.40625 0 
C 5.796875 0.1875 10.09375 0.1875 12.59375 0.1875 
C 15 0.1875 19.09375 0.1875 21.40625 0 
L 21.40625 2.59375 
C 15.5 2.59375 15.296875 3.203125 15.296875 6.8125 
L 15.296875 44 
z
" id="CMR17-105"/>
      <path d="M 67.59375 30.53125 
C 67.59375 35.5625 66.703125 44 54.796875 44 
C 48 44 43.296875 39.375 41.5 33.953125 
L 41.40625 33.953125 
C 40.203125 42.1875 34.296875 44 28.703125 44 
C 20.796875 44 16.703125 37.875 15.203125 33.84375 
L 15.09375 33.84375 
L 15.09375 44 
L 3.296875 42.890625 
L 3.296875 40.28125 
C 9.203125 40.28125 10.09375 39.6875 10.09375 34.859375 
L 10.09375 6.921875 
C 10.09375 3.09375 9.703125 2.59375 3.296875 2.59375 
L 3.296875 0 
C 5.703125 0.1875 10.09375 0.1875 12.703125 0.1875 
C 15.296875 0.1875 19.796875 0.1875 22.203125 0 
L 22.203125 2.59375 
C 15.796875 2.59375 15.40625 3 15.40625 6.921875 
L 15.40625 26.21875 
C 15.40625 35.453125 21 42.390625 28 42.390625 
C 35.40625 42.390625 36.203125 35.765625 36.203125 30.9375 
L 36.203125 6.921875 
C 36.203125 3.09375 35.796875 2.59375 29.40625 2.59375 
L 29.40625 0 
C 31.796875 0.1875 36.203125 0.1875 38.796875 0.1875 
C 41.40625 0.1875 45.90625 0.1875 48.296875 0 
L 48.296875 2.59375 
C 41.90625 2.59375 41.5 3 41.5 6.921875 
L 41.5 26.21875 
C 41.5 35.453125 47.09375 42.390625 54.09375 42.390625 
C 61.5 42.390625 62.296875 35.765625 62.296875 30.9375 
L 62.296875 6.921875 
C 62.296875 3.09375 61.90625 2.59375 55.5 2.59375 
L 55.5 0 
C 57.90625 0.1875 62.296875 0.1875 64.90625 0.1875 
C 67.5 0.1875 72 0.1875 74.40625 0 
L 74.40625 2.59375 
C 68 2.59375 67.59375 3 67.59375 6.921875 
z
" id="CMR17-109"/>
      <path d="M 38.09375 23.484375 
C 38.5 23.890625 38.5 24.09375 38.5 25.09375 
C 38.5 35.171875 33.09375 44 21.703125 44 
C 11.09375 44 2.703125 33.984375 2.703125 21.78125 
C 2.703125 8.65625 12.203125 -1 22.796875 -1 
C 34 -1 38.40625 9.671875 38.40625 11.796875 
C 38.40625 12.5 37.796875 12.5 37.59375 12.5 
C 36.90625 12.5 36.796875 12.296875 36.40625 11.078125 
C 34.203125 4.21875 28.703125 0.796875 23.5 0.796875 
C 19.203125 0.796875 14.90625 3.21875 12.203125 7.65625 
C 9.09375 12.796875 9.09375 18.75 9.09375 23.484375 
z
M 9.203125 25 
C 9.90625 39.234375 17.59375 42.390625 21.59375 42.390625 
C 28.40625 42.390625 33 36.0625 33.09375 25 
z
" id="CMR17-101"/>
      <path d="M 30.59375 -24.40625 
C 30.59375 -24.3125 30.59375 -24.109375 30.296875 -23.8125 
C 25.703125 -19.109375 13.40625 -6.296875 13.40625 24.9375 
C 13.40625 56.171875 25.5 68.875 30.40625 73.890625 
C 30.40625 73.984375 30.59375 74.1875 30.59375 74.484375 
C 30.59375 74.796875 30.296875 75 29.90625 75 
C 28.796875 75 20.296875 67.578125 15.40625 56.5625 
C 10.40625 45.453125 9 34.65625 9 25.046875 
C 9 17.828125 9.703125 5.625 15.703125 -7.296875 
C 20.5 -17.703125 28.703125 -25 29.90625 -25 
C 30.40625 -25 30.59375 -24.8125 30.59375 -24.40625 
z
" id="CMR17-40"/>
      <path d="M 30.90625 42 
C 30.90625 43.796875 30.796875 43.890625 30.203125 43.890625 
C 29.796875 43.890625 29.703125 43.796875 28.5 42.296875 
C 28.203125 41.890625 27.296875 40.890625 27 40.5 
C 23.796875 43.890625 19.296875 44 17.59375 44 
C 6.5 44 2.5 38.1875 2.5 32.390625 
C 2.5 23.390625 12.703125 21.296875 15.59375 20.6875 
C 21.90625 19.390625 24.09375 19 26.203125 17.1875 
C 27.5 16 29.703125 13.796875 29.703125 10.1875 
C 29.703125 6 27.296875 0.59375 18.09375 0.59375 
C 9.40625 0.59375 6.296875 7.1875 4.5 16 
C 4.203125 17.390625 4.203125 17.5 3.40625 17.5 
C 2.59375 17.5 2.5 17.390625 2.5 15.390625 
L 2.5 1 
C 2.5 -0.8125 2.59375 -0.90625 3.203125 -0.90625 
C 3.703125 -0.90625 3.796875 -0.8125 4.296875 0 
C 4.90625 0.890625 6.40625 3.296875 7 4.296875 
C 9 1.59375 12.5 -1 18.09375 -1 
C 28 -1 33.296875 4.390625 33.296875 12.1875 
C 33.296875 17.296875 30.59375 20 29.296875 21.1875 
C 26.296875 24.296875 22.796875 25 18.59375 25.796875 
C 13.09375 27 6.09375 28.390625 6.09375 34.5 
C 6.09375 37.09375 7.5 42.59375 17.59375 42.59375 
C 28.296875 42.59375 28.90625 32.59375 29.09375 29.390625 
C 29.203125 28.890625 29.703125 28.796875 30 28.796875 
C 30.90625 28.796875 30.90625 29.09375 30.90625 30.796875 
z
" id="CMR17-115"/>
      <path d="M 26.296875 24.9375 
C 26.296875 32.140625 25.59375 44.359375 19.59375 57.265625 
C 14.796875 67.6875 6.59375 75 5.40625 75 
C 5.09375 75 4.703125 74.890625 4.703125 74.390625 
C 4.703125 74.1875 4.796875 74.09375 4.90625 73.890625 
C 9.703125 68.875 21.90625 56.171875 21.90625 25.046875 
C 21.90625 -6.1875 9.796875 -18.90625 4.90625 -23.90625 
C 4.796875 -24.109375 4.703125 -24.203125 4.703125 -24.40625 
C 4.703125 -24.90625 5.09375 -25 5.40625 -25 
C 6.5 -25 15 -17.609375 19.90625 -6.59375 
C 24.90625 4.515625 26.296875 15.328125 26.296875 24.9375 
z
" id="CMR17-41"/>
     </defs>
     <g transform="translate(179.973007 302.166389)scale(0.24 -0.24)">
      <use transform="scale(0.996264)" xlink:href="#CMR17-84"/>
      <use transform="translate(66.509881 0)scale(0.996264)" xlink:href="#CMR17-105"/>
      <use transform="translate(91.380939 0)scale(0.996264)" xlink:href="#CMR17-109"/>
      <use transform="translate(168.300529 0)scale(0.996264)" xlink:href="#CMR17-101"/>
      <use transform="translate(238.862156 0)scale(0.996264)" xlink:href="#CMR17-40"/>
      <use transform="translate(274.142924 0)scale(0.996264)" xlink:href="#CMR17-115"/>
      <use transform="translate(309.944261 0)scale(0.996264)" xlink:href="#CMR17-41"/>
     </g>
    </g>
   </g>
   <g id="matplotlib.axis_2">
    <g id="ytick_1">
     <g id="line2d_4">
      <defs>
       <path d="M 0 0 
L -3.5 0 
" id="m2fb3efdb84" style="stroke:#000000;stroke-width:0.8;"/>
      </defs>
      <g>
       <use style="stroke:#000000;stroke-width:0.8;" x="54" xlink:href="#m2fb3efdb84" y="242.116364"/>
      </g>
     </g>
     <g id="text_5">
      <!-- $0.0$ -->
      <defs>
       <path d="M 18.40625 4.796875 
C 18.40625 7.6875 16 9.6875 13.59375 9.6875 
C 10.703125 9.6875 8.703125 7.296875 8.703125 4.890625 
C 8.703125 2 11.09375 0 13.5 0 
C 16.40625 0 18.40625 2.390625 18.40625 4.796875 
z
" id="CMMI12-58"/>
      </defs>
      <g transform="translate(18.565248 250.418566)scale(0.24 -0.24)">
       <use transform="scale(0.996264)" xlink:href="#CMR17-48"/>
       <use transform="translate(45.690477 0)scale(0.996264)" xlink:href="#CMMI12-58"/>
       <use transform="translate(72.787654 0)scale(0.996264)" xlink:href="#CMR17-48"/>
      </g>
     </g>
    </g>
    <g id="ytick_2">
     <g id="line2d_5">
      <g>
       <use style="stroke:#000000;stroke-width:0.8;" x="54" xlink:href="#m2fb3efdb84" y="143.28"/>
      </g>
     </g>
     <g id="text_6">
      <!-- $0.5$ -->
      <g transform="translate(18.565248 151.582203)scale(0.24 -0.24)">
       <use transform="scale(0.996264)" xlink:href="#CMR17-48"/>
       <use transform="translate(45.690477 0)scale(0.996264)" xlink:href="#CMMI12-58"/>
       <use transform="translate(72.787654 0)scale(0.996264)" xlink:href="#CMR17-53"/>
      </g>
     </g>
    </g>
    <g id="ytick_3">
     <g id="line2d_6">
      <g>
       <use style="stroke:#000000;stroke-width:0.8;" x="54" xlink:href="#m2fb3efdb84" y="44.443636"/>
      </g>
     </g>
     <g id="text_7">
      <!-- $1.0$ -->
      <g transform="translate(18.565248 52.745839)scale(0.24 -0.24)">
       <use transform="scale(0.996264)" xlink:href="#CMR17-49"/>
       <use transform="translate(45.690477 0)scale(0.996264)" xlink:href="#CMMI12-58"/>
       <use transform="translate(72.787654 0)scale(0.996264)" xlink:href="#CMR17-48"/>
      </g>
     </g>
    </g>
    <g id="text_8">
     <!-- \  -->
     <g transform="translate(nan nan)rotate(-90)scale(0.24 -0.24)"/>
    </g>
   </g>
   <g id="line2d_7">
    <defs>
     <path d="M 0 3 
C 0.795609 3 1.55874 2.683901 2.12132 2.12132 
C 2.683901 1.55874 3 0.795609 3 0 
C 3 -0.795609 2.683901 -1.55874 2.12132 -2.12132 
C 1.55874 -2.683901 0.795609 -3 0 -3 
C -0.795609 -3 -1.55874 -2.683901 -2.12132 -2.12132 
C -2.683901 -1.55874 -3 -0.795609 -3 0 
C -3 0.795609 -2.683901 1.55874 -2.12132 2.12132 
C -1.55874 2.683901 -0.795609 3 0 3 
z
" id="mc9ce86ad69" style="stroke:#1f77b4;"/>
    </defs>
    <g clip-path="url(#p4d2a9ac53d)">
     <use style="fill:#1f77b4;stroke:#1f77b4;" x="69.218182" xlink:href="#mc9ce86ad69" y="44.443636"/>
     <use style="fill:#1f77b4;stroke:#1f77b4;" x="80.776663" xlink:href="#mc9ce86ad69" y="44.443636"/>
     <use style="fill:#1f77b4;stroke:#1f77b4;" x="91.686008" xlink:href="#mc9ce86ad69" y="44.443636"/>
     <use style="fill:#1f77b4;stroke:#1f77b4;" x="102.110924" xlink:href="#mc9ce86ad69" y="44.443636"/>
     <use style="fill:#1f77b4;stroke:#1f77b4;" x="112.216118" xlink:href="#mc9ce86ad69" y="44.443636"/>
     <use style="fill:#1f77b4;stroke:#1f77b4;" x="122.172752" xlink:href="#mc9ce86ad69" y="44.443636"/>
     <use style="fill:#1f77b4;stroke:#1f77b4;" x="132.148764" xlink:href="#mc9ce86ad69" y="44.443636"/>
     <use style="fill:#1f77b4;stroke:#1f77b4;" x="142.328237" xlink:href="#mc9ce86ad69" y="44.443636"/>
     <use style="fill:#1f77b4;stroke:#1f77b4;" x="152.934007" xlink:href="#mc9ce86ad69" y="44.443636"/>
     <use style="fill:#1f77b4;stroke:#1f77b4;" x="164.26642" xlink:href="#mc9ce86ad69" y="44.443636"/>
     <use style="fill:#1f77b4;stroke:#1f77b4;" x="176.761464" xlink:href="#mc9ce86ad69" y="44.443636"/>
     <use style="fill:#1f77b4;stroke:#1f77b4;" x="191.132864" xlink:href="#mc9ce86ad69" y="44.443636"/>
     <use style="fill:#1f77b4;stroke:#1f77b4;" x="208.594921" xlink:href="#mc9ce86ad69" y="44.443636"/>
     <use style="fill:#1f77b4;stroke:#1f77b4;" x="230.862517" xlink:href="#mc9ce86ad69" y="44.443636"/>
     <use style="fill:#1f77b4;stroke:#1f77b4;" x="257.092743" xlink:href="#mc9ce86ad69" y="44.443636"/>
     <use style="fill:#1f77b4;stroke:#1f77b4;" x="281.017087" xlink:href="#mc9ce86ad69" y="44.443636"/>
     <use style="fill:#1f77b4;stroke:#1f77b4;" x="300.436239" xlink:href="#mc9ce86ad69" y="44.443636"/>
     <use style="fill:#1f77b4;stroke:#1f77b4;" x="316.855159" xlink:href="#mc9ce86ad69" y="44.443636"/>
     <use style="fill:#1f77b4;stroke:#1f77b4;" x="331.614102" xlink:href="#mc9ce86ad69" y="44.443636"/>
     <use style="fill:#1f77b4;stroke:#1f77b4;" x="345.572122" xlink:href="#mc9ce86ad69" y="44.443636"/>
     <use style="fill:#1f77b4;stroke:#1f77b4;" x="359.371895" xlink:href="#mc9ce86ad69" y="44.443636"/>
     <use style="fill:#1f77b4;stroke:#1f77b4;" x="373.581818" xlink:href="#mc9ce86ad69" y="44.443636"/>
    </g>
   </g>
   <g id="line2d_8">
    <path clip-path="url(#p4d2a9ac53d)" d="M 69.218182 242.116364 
L 69.218182 44.443636 
" style="fill:none;stroke:#1f77b4;stroke-linecap:square;stroke-width:1.5;"/>
   </g>
   <g id="line2d_9">
    <path clip-path="url(#p4d2a9ac53d)" d="M 80.776663 242.116364 
L 80.776663 44.443636 
" style="fill:none;stroke:#1f77b4;stroke-linecap:square;stroke-width:1.5;"/>
   </g>
   <g id="line2d_10">
    <path clip-path="url(#p4d2a9ac53d)" d="M 91.686008 242.116364 
L 91.686008 44.443636 
" style="fill:none;stroke:#1f77b4;stroke-linecap:square;stroke-width:1.5;"/>
   </g>
   <g id="line2d_11">
    <path clip-path="url(#p4d2a9ac53d)" d="M 102.110924 242.116364 
L 102.110924 44.443636 
" style="fill:none;stroke:#1f77b4;stroke-linecap:square;stroke-width:1.5;"/>
   </g>
   <g id="line2d_12">
    <path clip-path="url(#p4d2a9ac53d)" d="M 112.216118 242.116364 
L 112.216118 44.443636 
" style="fill:none;stroke:#1f77b4;stroke-linecap:square;stroke-width:1.5;"/>
   </g>
   <g id="line2d_13">
    <path clip-path="url(#p4d2a9ac53d)" d="M 122.172752 242.116364 
L 122.172752 44.443636 
" style="fill:none;stroke:#1f77b4;stroke-linecap:square;stroke-width:1.5;"/>
   </g>
   <g id="line2d_14">
    <path clip-path="url(#p4d2a9ac53d)" d="M 132.148764 242.116364 
L 132.148764 44.443636 
" style="fill:none;stroke:#1f77b4;stroke-linecap:square;stroke-width:1.5;"/>
   </g>
   <g id="line2d_15">
    <path clip-path="url(#p4d2a9ac53d)" d="M 142.328237 242.116364 
L 142.328237 44.443636 
" style="fill:none;stroke:#1f77b4;stroke-linecap:square;stroke-width:1.5;"/>
   </g>
   <g id="line2d_16">
    <path clip-path="url(#p4d2a9ac53d)" d="M 152.934007 242.116364 
L 152.934007 44.443636 
" style="fill:none;stroke:#1f77b4;stroke-linecap:square;stroke-width:1.5;"/>
   </g>
   <g id="line2d_17">
    <path clip-path="url(#p4d2a9ac53d)" d="M 164.26642 242.116364 
L 164.26642 44.443636 
" style="fill:none;stroke:#1f77b4;stroke-linecap:square;stroke-width:1.5;"/>
   </g>
   <g id="line2d_18">
    <path clip-path="url(#p4d2a9ac53d)" d="M 176.761464 242.116364 
L 176.761464 44.443636 
" style="fill:none;stroke:#1f77b4;stroke-linecap:square;stroke-width:1.5;"/>
   </g>
   <g id="line2d_19">
    <path clip-path="url(#p4d2a9ac53d)" d="M 191.132864 242.116364 
L 191.132864 44.443636 
" style="fill:none;stroke:#1f77b4;stroke-linecap:square;stroke-width:1.5;"/>
   </g>
   <g id="line2d_20">
    <path clip-path="url(#p4d2a9ac53d)" d="M 208.594921 242.116364 
L 208.594921 44.443636 
" style="fill:none;stroke:#1f77b4;stroke-linecap:square;stroke-width:1.5;"/>
   </g>
   <g id="line2d_21">
    <path clip-path="url(#p4d2a9ac53d)" d="M 230.862517 242.116364 
L 230.862517 44.443636 
" style="fill:none;stroke:#1f77b4;stroke-linecap:square;stroke-width:1.5;"/>
   </g>
   <g id="line2d_22">
    <path clip-path="url(#p4d2a9ac53d)" d="M 257.092743 242.116364 
L 257.092743 44.443636 
" style="fill:none;stroke:#1f77b4;stroke-linecap:square;stroke-width:1.5;"/>
   </g>
   <g id="line2d_23">
    <path clip-path="url(#p4d2a9ac53d)" d="M 281.017087 242.116364 
L 281.017087 44.443636 
" style="fill:none;stroke:#1f77b4;stroke-linecap:square;stroke-width:1.5;"/>
   </g>
   <g id="line2d_24">
    <path clip-path="url(#p4d2a9ac53d)" d="M 300.436239 242.116364 
L 300.436239 44.443636 
" style="fill:none;stroke:#1f77b4;stroke-linecap:square;stroke-width:1.5;"/>
   </g>
   <g id="line2d_25">
    <path clip-path="url(#p4d2a9ac53d)" d="M 316.855159 242.116364 
L 316.855159 44.443636 
" style="fill:none;stroke:#1f77b4;stroke-linecap:square;stroke-width:1.5;"/>
   </g>
   <g id="line2d_26">
    <path clip-path="url(#p4d2a9ac53d)" d="M 331.614102 242.116364 
L 331.614102 44.443636 
" style="fill:none;stroke:#1f77b4;stroke-linecap:square;stroke-width:1.5;"/>
   </g>
   <g id="line2d_27">
    <path clip-path="url(#p4d2a9ac53d)" d="M 345.572122 242.116364 
L 345.572122 44.443636 
" style="fill:none;stroke:#1f77b4;stroke-linecap:square;stroke-width:1.5;"/>
   </g>
   <g id="line2d_28">
    <path clip-path="url(#p4d2a9ac53d)" d="M 359.371895 242.116364 
L 359.371895 44.443636 
" style="fill:none;stroke:#1f77b4;stroke-linecap:square;stroke-width:1.5;"/>
   </g>
   <g id="line2d_29">
    <path clip-path="url(#p4d2a9ac53d)" d="M 373.581818 242.116364 
L 373.581818 44.443636 
" style="fill:none;stroke:#1f77b4;stroke-linecap:square;stroke-width:1.5;"/>
   </g>
   <g id="line2d_30">
    <path clip-path="url(#p4d2a9ac53d)" d="M 69.218182 242.116364 
L 373.581818 242.116364 
" style="fill:none;stroke:#d62728;stroke-linecap:square;stroke-width:1.5;"/>
   </g>
   <g id="patch_3">
    <path d="M 54 252 
L 54 34.56 
" style="fill:none;stroke:#000000;stroke-linecap:square;stroke-linejoin:miter;stroke-width:0.8;"/>
   </g>
   <g id="patch_4">
    <path d="M 54 252 
L 388.8 252 
" style="fill:none;stroke:#000000;stroke-linecap:square;stroke-linejoin:miter;stroke-width:0.8;"/>
   </g>
  </g>
 </g>
 <defs>
  <clipPath id="p4d2a9ac53d">
   <rect height="217.44" width="334.8" x="54" y="34.56"/>
  </clipPath>
 </defs>
</svg>
