<?xml version="1.0" encoding="utf-8" standalone="no"?>
<!DOCTYPE svg PUBLIC "-//W3C//DTD SVG 1.1//EN"
  "http://www.w3.org/Graphics/SVG/1.1/DTD/svg11.dtd">
<!-- Created with matplotlib (https://matplotlib.org/) -->
<svg height="432pt" version="1.1" viewBox="0 0 576 432" width="576pt" xmlns="http://www.w3.org/2000/svg" xmlns:xlink="http://www.w3.org/1999/xlink">
 <defs>
  <style type="text/css">
*{stroke-linecap:butt;stroke-linejoin:round;}
  </style>
 </defs>
 <g id="figure_1">
  <g id="patch_1">
   <path d="M 0 432 
L 576 432 
L 576 0 
L 0 0 
z
" style="fill:#ffffff;"/>
  </g>
  <g id="axes_1">
   <g id="patch_2">
    <path d="M 144 129.19814 
L 518.4 129.19814 
L 518.4 51.84 
L 144 51.84 
z
" style="fill:#ffffff;"/>
   </g>
   <g id="matplotlib.axis_1">
    <g id="ytick_1">
     <g id="line2d_1">
      <defs>
       <path d="M 0 0 
L -3.5 0 
" id="m1a7cb715c5" style="stroke:#000000;stroke-width:0.8;"/>
      </defs>
      <g>
       <use style="stroke:#000000;stroke-width:0.8;" x="144" xlink:href="#m1a7cb715c5" y="116.30501"/>
      </g>
     </g>
     <g id="text_1">
      <!-- $-5$ -->
      <defs>
       <path d="M 65.90625 23 
C 67.59375 23 69.40625 23 69.40625 25 
C 69.40625 27 67.59375 27 65.90625 27 
L 11.796875 27 
C 10.09375 27 8.296875 27 8.296875 25 
C 8.296875 23 10.09375 23 11.796875 23 
z
" id="CMSY10-0"/>
       <path d="M 11.40625 57.6875 
C 12.40625 57.28125 16.5 56 20.703125 56 
C 30 56 35.09375 61.109375 38 64.0625 
C 38 64.953125 38 65.5 37.40625 65.5 
C 37.296875 65.5 37.09375 65.5 36.296875 65.046875 
C 32.796875 63.40625 28.703125 62.078125 23.703125 62.078125 
C 20.703125 62.078125 16.203125 62.484375 11.296875 64.671875 
C 10.203125 65.171875 10 65.171875 9.90625 65.171875 
C 9.40625 65.171875 9.296875 65.0625 9.296875 63.078125 
L 9.296875 34.421875 
C 9.296875 32.640625 9.296875 32.140625 10.296875 32.140625 
C 10.796875 32.140625 11 32.34375 11.5 33.03125 
C 14.703125 37.515625 19.09375 39.40625 24.09375 39.40625 
C 27.59375 39.40625 35.09375 37.21875 35.09375 20.140625 
C 35.09375 16.953125 35.09375 11.171875 32.09375 6.578125 
C 29.59375 2.484375 25.703125 0.390625 21.40625 0.390625 
C 14.796875 0.390625 8.09375 5 6.296875 12.71875 
C 6.703125 12.609375 7.5 12.421875 7.90625 12.421875 
C 9.203125 12.421875 11.703125 13.125 11.703125 16.21875 
C 11.703125 18.90625 9.796875 20 7.90625 20 
C 5.59375 20 4.09375 18.59375 4.09375 15.796875 
C 4.09375 7.09375 11 -2 21.59375 -2 
C 31.90625 -2 41.703125 6.875 41.703125 19.75 
C 41.703125 31.71875 33.90625 41 24.203125 41 
C 19.09375 41 14.796875 39.109375 11.40625 35.53125 
z
" id="CMR17-53"/>
      </defs>
      <g transform="translate(121.84852 120.4561)scale(0.12 -0.12)">
       <use transform="scale(0.996264)" xlink:href="#CMSY10-0"/>
       <use transform="translate(77.487468 0)scale(0.996264)" xlink:href="#CMR17-53"/>
      </g>
     </g>
    </g>
    <g id="ytick_2">
     <g id="line2d_2">
      <g>
       <use style="stroke:#000000;stroke-width:0.8;" x="144" xlink:href="#m1a7cb715c5" y="79.82464"/>
      </g>
     </g>
     <g id="text_2">
      <!-- $0$ -->
      <defs>
       <path d="M 42 31.640625 
C 42 37.75 41.90625 48.125 37.703125 56.109375 
C 34 63.109375 28.09375 65.59375 22.90625 65.59375 
C 18.09375 65.59375 12 63.40625 8.203125 56.203125 
C 4.203125 48.71875 3.796875 39.4375 3.796875 31.640625 
C 3.796875 25.953125 3.90625 17.28125 7 9.671875 
C 11.296875 -0.609375 19 -2 22.90625 -2 
C 27.5 -2 34.5 -0.109375 38.59375 9.375 
C 41.59375 16.28125 42 24.359375 42 31.640625 
z
M 22.90625 -0.40625 
C 16.5 -0.40625 12.703125 5.078125 11.296875 12.6875 
C 10.203125 18.5625 10.203125 27.15625 10.203125 32.75 
C 10.203125 40.4375 10.203125 46.828125 11.5 52.921875 
C 13.40625 61.390625 19 64 22.90625 64 
C 27 64 32.296875 61.296875 34.203125 53.125 
C 35.5 47.4375 35.59375 40.734375 35.59375 32.75 
C 35.59375 26.25 35.59375 18.265625 34.40625 12.375 
C 32.296875 1.484375 26.40625 -0.40625 22.90625 -0.40625 
z
" id="CMR17-48"/>
      </defs>
      <g transform="translate(131.14701 83.975729)scale(0.12 -0.12)">
       <use transform="scale(0.996264)" xlink:href="#CMR17-48"/>
      </g>
     </g>
    </g>
    <g id="text_3">
     <!-- Original Signal -->
     <defs>
      <path d="M 67.296875 33.359375 
C 67.296875 53.703125 52.59375 69 36 69 
C 19 69 4.59375 53.5 4.59375 33.359375 
C 4.59375 13.203125 19.203125 -2 35.90625 -2 
C 53 -2 67.296875 13.5 67.296875 33.359375 
z
M 36 -0.203125 
C 24.59375 -0.203125 12.203125 11.109375 12.203125 34.640625 
C 12.203125 58.0625 25.796875 67.203125 35.90625 67.203125 
C 46.5 67.203125 59.703125 57.78125 59.703125 34.640625 
C 59.703125 10.71875 47 -0.203125 36 -0.203125 
z
" id="CMR17-79"/>
      <path d="M 15 23.390625 
C 15 33 19.09375 42 26.59375 42 
C 27.296875 42 28 41.90625 28.703125 41.59375 
C 28.703125 41.59375 26.5 40.890625 26.5 38.3125 
C 26.5 35.90625 28.40625 34.90625 29.90625 34.90625 
C 31.09375 34.90625 33.296875 35.609375 33.296875 38.40625 
C 33.296875 41.609375 30.09375 43.59375 26.703125 43.59375 
C 19.09375 43.59375 15.796875 36.203125 14.796875 32.703125 
L 14.703125 32.703125 
L 14.703125 43.59375 
L 3.09375 42.5 
L 3.09375 39.90625 
C 9 39.90625 9.90625 39.296875 9.90625 34.5 
L 9.90625 6.6875 
C 9.90625 2.875 9.5 2.390625 3.09375 2.390625 
L 3.09375 -0.203125 
C 5.5 0 10.09375 0 12.703125 0 
C 15.59375 0 20.703125 0 23.40625 -0.203125 
L 23.40625 2.390625 
C 16.203125 2.390625 15 2.390625 15 6.875 
z
" id="CMR17-114"/>
      <path d="M 15.5 61.078125 
C 15.5 63.265625 13.703125 65.15625 11.40625 65.15625 
C 9.203125 65.15625 7.296875 63.375 7.296875 61.078125 
C 7.296875 58.890625 9.09375 57 11.40625 57 
C 13.59375 57 15.5 58.796875 15.5 61.078125 
z
M 3.796875 42.28125 
L 3.796875 39.703125 
C 9.40625 39.703125 10.203125 39.09375 10.203125 34.328125 
L 10.203125 6.671875 
C 10.203125 2.875 9.796875 2.390625 3.40625 2.390625 
L 3.40625 -0.203125 
C 5.796875 0 10.09375 0 12.59375 0 
C 15 0 19.09375 0 21.40625 -0.203125 
L 21.40625 2.390625 
C 15.5 2.390625 15.296875 2.984375 15.296875 6.5625 
L 15.296875 43.375 
z
" id="CMR17-105"/>
      <path d="M 11.09375 18.1875 
C 13 16.6875 16.296875 15 20.296875 15 
C 28.203125 15 35 21.203125 35 29.5 
C 35 32.09375 34.203125 36.09375 31.203125 39.203125 
C 34 42.0625 38.09375 43 40.40625 43 
C 40.796875 43 41.40625 43 41.90625 42.71875 
C 41.5 42.625 40.59375 42.234375 40.59375 40.703125 
C 40.59375 39.484375 41.5 38.609375 42.796875 38.609375 
C 44.296875 38.609375 45.09375 39.578125 45.09375 40.84375 
C 45.09375 42.671875 43.59375 44.59375 40.40625 44.59375 
C 36.40625 44.59375 32.90625 42.78125 30.09375 40.3125 
C 27.09375 43.015625 23.5 44 20.296875 44 
C 12.40625 44 5.59375 37.796875 5.59375 29.5 
C 5.59375 23.78125 8.90625 20.1875 9.90625 19.1875 
C 6.90625 15.6875 6.90625 11.609375 6.90625 11.109375 
C 6.90625 8.515625 7.90625 4.71875 11.296875 2.625 
C 6.09375 1.328125 2 -2.640625 2 -7.59375 
C 2 -14.734375 11.5 -20 22.90625 -20 
C 33.90625 -20 43.796875 -14.9375 43.796875 -7.484375 
C 43.796875 6 29 6 21.296875 6 
C 19 6 14.90625 6 14.40625 6.109375 
C 11.296875 6.609375 9.203125 9.40625 9.203125 12.90625 
C 9.203125 13.796875 9.203125 16 11.09375 18.1875 
z
M 20.296875 16.6875 
C 11.5 16.6875 11.5 27.5 11.5 29.515625 
C 11.5 31.5 11.5 42.3125 20.296875 42.3125 
C 29.09375 42.3125 29.09375 31.5 29.09375 29.515625 
C 29.09375 27.5 29.09375 16.6875 20.296875 16.6875 
z
M 22.90625 -18.296875 
C 12.90625 -18.296875 6 -13.046875 6 -7.59375 
C 6 -4.515625 7.703125 -1.640625 9.90625 -0.0625 
C 12.40625 1.625 13.40625 1.625 20.203125 1.625 
C 28.40625 1.625 39.796875 1.625 39.796875 -7.59375 
C 39.796875 -13.046875 32.90625 -18.296875 22.90625 -18.296875 
z
" id="CMR17-103"/>
      <path d="M 41.5 30.203125 
C 41.5 35.296875 40.5 43.59375 28.703125 43.59375 
C 20.796875 43.59375 16.703125 37.5 15.203125 33.5 
L 15.09375 33.5 
L 15.09375 43.59375 
L 3.296875 42.5 
L 3.296875 39.90625 
C 9.203125 39.90625 10.09375 39.296875 10.09375 34.5 
L 10.09375 6.6875 
C 10.09375 2.875 9.703125 2.390625 3.296875 2.390625 
L 3.296875 -0.203125 
C 5.703125 0 10.09375 0 12.703125 0 
C 15.296875 0 19.796875 0 22.203125 -0.203125 
L 22.203125 2.390625 
C 15.796875 2.390625 15.40625 2.78125 15.40625 6.6875 
L 15.40625 25.90625 
C 15.40625 35.109375 21 42 28 42 
C 35.40625 42 36.203125 35.40625 36.203125 30.59375 
L 36.203125 6.6875 
C 36.203125 2.875 35.796875 2.390625 29.40625 2.390625 
L 29.40625 -0.203125 
C 31.796875 0 36.203125 0 38.796875 0 
C 41.40625 0 45.90625 0 48.296875 -0.203125 
L 48.296875 2.390625 
C 41.90625 2.390625 41.5 2.78125 41.5 6.6875 
z
" id="CMR17-110"/>
      <path d="M 36 25.828125 
C 36 32.375 36 35.84375 31.796875 39.734375 
C 28.09375 43 23.796875 44 20.40625 44 
C 12.5 44 6.796875 37.609375 6.796875 30.796875 
C 6.796875 27 9.796875 27 10.40625 27 
C 11.703125 27 14 27.78125 14 30.53125 
C 14 33 12.09375 34.078125 10.40625 34.078125 
C 10 34.078125 9.5 33.96875 9.203125 33.875 
C 11.296875 40.5 16.703125 42.40625 20.203125 42.40625 
C 25.203125 42.40625 30.703125 37.953125 30.703125 29.453125 
L 30.703125 25 
C 24.796875 25 17.703125 24.203125 12.09375 21.203125 
C 5.796875 17.703125 4 12.703125 4 8.90625 
C 4 1.203125 13 -1 18.296875 -1 
C 23.796875 -1 28.90625 2.171875 31.09375 7.984375 
C 31.296875 3.640625 34.09375 -0.28125 38.5 -0.28125 
C 40.59375 -0.28125 45.90625 1.09375 45.90625 8.859375 
L 45.90625 14.375 
L 44.09375 14.375 
L 44.09375 8.78125 
C 44.09375 2.78125 41.40625 2 40.09375 2 
C 36 2 36 7.15625 36 11.53125 
z
M 30.703125 13.59375 
C 30.703125 4.953125 24.5 0.59375 19 0.59375 
C 14 0.59375 10.09375 4.296875 10.09375 8.90625 
C 10.09375 11.890625 11.40625 17.1875 17.203125 20.390625 
C 22 23.09375 27.5 23.5 30.703125 23.5 
z
" id="CMR17-97"/>
      <path d="M 15.296875 68.6875 
L 3.40625 67.59375 
L 3.40625 65 
C 9.296875 65 10.203125 64.40625 10.203125 59.640625 
L 10.203125 6.65625 
C 10.203125 2.875 9.796875 2.390625 3.40625 2.390625 
L 3.40625 -0.203125 
C 5.796875 0 10.203125 0 12.703125 0 
C 15.296875 0 19.703125 0 22.09375 -0.203125 
L 22.09375 2.390625 
C 15.703125 2.390625 15.296875 2.78125 15.296875 6.65625 
z
" id="CMR17-108"/>
      <path d="M 43.796875 67.03125 
C 43.796875 68.8125 43.703125 68.921875 43.09375 68.921875 
C 42.5 68.921875 42.296875 68.515625 41.90625 67.625 
L 38.90625 61.046875 
C 35.09375 66.515625 29.296875 69 23 69 
C 12.796875 69 4.59375 60.953125 4.59375 50.828125 
C 4.59375 47.75 5.296875 43.375 8.703125 39.21875 
C 12.40625 34.65625 15.90625 33.859375 23.90625 31.765625 
C 26.90625 30.96875 31.90625 29.671875 32.90625 29.28125 
C 38.59375 26.90625 41.59375 20.953125 41.59375 15.390625 
C 41.59375 8.234375 36.5 0.59375 27.796875 0.59375 
C 17.09375 0.59375 7.09375 6.546875 6.40625 20.484375 
C 6.296875 22.078125 6.203125 22.171875 5.5 22.171875 
C 4.703125 22.171875 4.59375 22.078125 4.59375 20.078125 
L 4.59375 -0.015625 
C 4.59375 -1.796875 4.703125 -1.90625 5.296875 -1.90625 
C 6 -1.90625 6.203125 -1.40625 7.59375 1.6875 
C 7.703125 1.984375 7.703125 2.1875 9.59375 5.953125 
C 14.59375 -0.609375 23 -2 27.796875 -2 
C 38.703125 -2 46.40625 7.046875 46.40625 17.5625 
C 46.40625 22.71875 44.5 26.6875 43.40625 28.484375 
C 39.203125 34.84375 34.703125 36.03125 29.90625 37.21875 
C 29.203125 37.53125 29 37.53125 23.40625 38.90625 
C 18 40.296875 15.703125 41 13.203125 43.6875 
C 10.40625 46.75 9.40625 49.9375 9.40625 53.109375 
C 9.40625 59.5625 14.59375 66.609375 23.09375 66.609375 
C 33.703125 66.609375 40.296875 59.15625 41.796875 46.765625 
C 42.09375 44.96875 42.203125 44.875 42.90625 44.875 
C 43.796875 44.875 43.796875 45.171875 43.796875 46.859375 
z
" id="CMR17-83"/>
     </defs>
     <g transform="translate(41.068841 92.168123)rotate(-359)scale(0.12 -0.12)">
      <use transform="scale(0.996264)" xlink:href="#CMR17-79"/>
      <use transform="translate(71.714788 0)scale(0.996264)" xlink:href="#CMR17-114"/>
      <use transform="translate(106.995556 0)scale(0.996264)" xlink:href="#CMR17-105"/>
      <use transform="translate(131.866615 0)scale(0.996264)" xlink:href="#CMR17-103"/>
      <use transform="translate(177.557092 0)scale(0.996264)" xlink:href="#CMR17-105"/>
      <use transform="translate(202.42815 0)scale(0.996264)" xlink:href="#CMR17-110"/>
      <use transform="translate(253.32352 0)scale(0.996264)" xlink:href="#CMR17-97"/>
      <use transform="translate(299.013997 0)scale(0.996264)" xlink:href="#CMR17-108"/>
      <use transform="translate(353.961022 0)scale(0.996264)" xlink:href="#CMR17-83"/>
      <use transform="translate(404.856392 0)scale(0.996264)" xlink:href="#CMR17-105"/>
      <use transform="translate(429.72745 0)scale(0.996264)" xlink:href="#CMR17-103"/>
      <use transform="translate(475.417927 0)scale(0.996264)" xlink:href="#CMR17-110"/>
      <use transform="translate(526.313297 0)scale(0.996264)" xlink:href="#CMR17-97"/>
      <use transform="translate(572.003774 0)scale(0.996264)" xlink:href="#CMR17-108"/>
     </g>
    </g>
   </g>
   <g id="line2d_3">
    <path clip-path="url(#pf23fedbc07)" d="M 144 94.993116 
L 147.310766 90.126606 
L 149.792503 86.063932 
L 153.215589 79.959905 
L 155.745463 75.648317 
L 157.259109 73.488412 
L 158.457189 72.144961 
L 159.468069 71.327921 
L 160.355931 70.883493 
L 161.163566 70.719811 
L 161.939109 70.78863 
L 162.714651 71.083509 
L 163.532983 71.639128 
L 164.431543 72.530003 
L 165.442423 73.860954 
L 166.624457 75.806238 
L 168.095314 78.685467 
L 170.550309 84.073109 
L 172.914377 89.059386 
L 174.358491 91.60329 
L 175.540526 93.258086 
L 176.567451 94.332108 
L 177.492754 94.991303 
L 178.348526 95.33748 
L 179.177554 95.437388 
L 180.022629 95.314378 
L 180.937234 94.949532 
L 181.980206 94.282881 
L 183.27456 93.17438 
L 185.462126 90.95135 
L 187.585509 88.913499 
L 188.917303 87.934771 
L 190.045851 87.371718 
L 191.072777 87.102666 
L 192.056914 87.072652 
L 193.051749 87.265957 
L 194.116114 87.705263 
L 195.314194 88.449963 
L 196.779703 89.638289 
L 199.095634 91.847969 
L 202.032 94.577868 
L 203.861211 95.967831 
L 205.631589 97.033312 
L 207.765669 98.042577 
L 211.61664 99.827227 
L 213.33888 100.916667 
L 215.06112 102.277138 
L 217.227291 104.297917 
L 220.34016 107.186971 
L 221.639863 108.078897 
L 222.677486 108.53318 
L 223.570697 108.689838 
L 224.389029 108.611352 
L 225.180617 108.311244 
L 225.988251 107.760865 
L 226.838674 106.902053 
L 227.758629 105.643576 
L 228.774857 103.859218 
L 229.9248 101.366737 
L 231.267291 97.894616 
L 232.962789 92.846285 
L 238.765989 75.00743 
L 240.060343 72.024535 
L 241.1568 70.025576 
L 242.108846 68.726742 
L 242.948571 67.93587 
L 243.708069 67.512076 
L 244.41408 67.365378 
L 245.109394 67.44889 
L 245.831451 67.766492 
L 246.617691 68.365639 
L 247.505554 69.335546 
L 248.537829 70.811609 
L 249.768 72.98202 
L 251.313737 76.191137 
L 253.533394 81.366673 
L 261.978789 101.482258 
L 268.734034 116.718649 
L 270.632777 120.445627 
L 272.028754 122.726986 
L 273.157303 124.170706 
L 274.104 125.041754 
L 274.922331 125.507968 
L 275.655086 125.677537 
L 276.339703 125.609838 
L 277.018971 125.316383 
L 277.73568 124.754338 
L 278.511223 123.848711 
L 279.366994 122.489807 
L 280.324389 120.531316 
L 281.410149 117.779248 
L 282.672411 113.942052 
L 284.2128 108.50333 
L 286.453851 99.675028 
L 289.919726 86.086919 
L 291.540343 80.658691 
L 292.866789 76.952927 
L 294.016731 74.366591 
L 295.03296 72.597695 
L 295.947566 71.426811 
L 296.781943 70.701139 
L 297.557486 70.308627 
L 298.306286 70.173288 
L 299.065783 70.263076 
L 299.878766 70.58944 
L 300.793371 71.207207 
L 301.863086 72.211905 
L 303.189531 73.782626 
L 305.008046 76.311846 
L 309.650606 83.316818 
L 315.501943 92.282381 
L 318.05856 96.707904 
L 324.899383 108.873447 
L 326.18304 110.51284 
L 327.252754 111.537952 
L 328.178057 112.132676 
L 329.012434 112.414104 
L 329.793326 112.446387 
L 330.56352 112.253492 
L 331.360457 111.818273 
L 332.221577 111.08449 
L 333.18432 109.957273 
L 334.291474 108.300351 
L 335.633966 105.865937 
L 337.522011 101.931177 
L 340.993234 94.662526 
L 342.415954 92.234673 
L 343.581943 90.660405 
L 344.598171 89.642652 
L 345.512777 89.027053 
L 346.368549 88.711879 
L 347.197577 88.641107 
L 348.048 88.794638 
L 348.967954 89.194173 
L 350.021623 89.905379 
L 351.337371 91.079573 
L 353.674697 93.53036 
L 355.680411 95.488488 
L 357.001509 96.478307 
L 358.124709 97.052149 
L 359.146286 97.330756 
L 360.130423 97.370346 
L 361.125257 97.18567 
L 362.184274 96.757667 
L 363.382354 96.023459 
L 364.847863 94.847863 
L 367.158446 92.663824 
L 370.105509 89.948664 
L 371.940069 88.56745 
L 373.726491 87.501023 
L 375.930103 86.462284 
L 379.502949 84.790466 
L 381.230537 83.700392 
L 382.931383 82.357094 
L 384.995931 80.421032 
L 388.52064 77.088279 
L 389.7936 76.216636 
L 390.815177 75.773034 
L 391.70304 75.621589 
L 392.521371 75.705597 
L 393.31296 76.012523 
L 394.120594 76.570712 
L 394.976366 77.444243 
L 395.901669 78.721156 
L 396.928594 80.537076 
L 398.089234 83.065522 
L 399.45312 86.601677 
L 401.202103 91.803461 
L 406.481143 107.933567 
L 407.823634 111.103711 
L 408.941486 113.206928 
L 409.909577 114.583112 
L 410.765349 115.43389 
L 411.530194 115.896584 
L 412.241554 116.07449 
L 412.93152 116.018405 
L 413.64288 115.732201 
L 414.413074 115.173338 
L 415.279543 114.256541 
L 416.279726 112.85672 
L 417.46176 110.79868 
L 418.927269 107.77096 
L 420.927634 103.081269 
L 434.75904 69.529695 
L 437.56704 63.26072 
L 439.262537 59.988254 
L 440.56224 57.932933 
L 441.631954 56.633182 
L 442.535863 55.864256 
L 443.322103 55.471548 
L 444.033463 55.356306 
L 444.712731 55.471546 
L 445.397349 55.819356 
L 446.124754 56.450304 
L 446.916343 57.44634 
L 447.798857 58.934324 
L 448.788343 61.060903 
L 449.92224 64.052455 
L 451.259383 68.243948 
L 452.95488 74.345472 
L 459.266194 97.82804 
L 460.614034 101.60322 
L 461.774674 104.227713 
L 462.796251 106.018775 
L 463.710857 107.199327 
L 464.545234 107.930496 
L 465.315429 108.321532 
L 466.053531 108.452809 
L 466.802331 108.358079 
L 467.599269 108.025956 
L 468.49248 107.401055 
L 469.530103 106.389185 
L 470.797714 104.822928 
L 472.477166 102.365042 
L 475.445623 97.550392 
L 484.447269 82.485595 
L 487.17504 77.225267 
L 492.106423 67.612346 
L 493.609371 65.238465 
L 494.8128 63.729314 
L 495.834377 62.785377 
L 496.732937 62.24407 
L 497.54592 62.004404 
L 498.316114 62.004765 
L 499.086309 62.228954 
L 499.893943 62.701601 
L 500.776457 63.485453 
L 501.77664 64.686144 
L 502.947977 66.458598 
L 504.43488 69.142132 
L 510.12576 79.859398 
L 511.302446 81.379105 
L 512.318674 82.345458 
L 513.227931 82.9157 
L 514.073006 83.189947 
L 514.891337 83.223483 
L 515.725714 83.032858 
L 516.629623 82.590279 
L 517.656549 81.827368 
L 518.394651 81.137501 
L 518.394651 81.137501 
" style="fill:none;stroke:#1f77b4;stroke-linecap:square;stroke-width:1.5;"/>
   </g>
   <g id="patch_3">
    <path d="M 144 129.19814 
L 144 51.84 
" style="fill:none;stroke:#000000;stroke-linecap:square;stroke-linejoin:miter;stroke-width:0.8;"/>
   </g>
   <g id="patch_4">
    <path d="M 518.4 129.19814 
L 518.4 51.84 
" style="fill:none;stroke:#000000;stroke-linecap:square;stroke-linejoin:miter;stroke-width:0.8;"/>
   </g>
   <g id="patch_5">
    <path d="M 144 129.19814 
L 518.4 129.19814 
" style="fill:none;stroke:#000000;stroke-linecap:square;stroke-linejoin:miter;stroke-width:0.8;"/>
   </g>
   <g id="patch_6">
    <path d="M 144 51.84 
L 518.4 51.84 
" style="fill:none;stroke:#000000;stroke-linecap:square;stroke-linejoin:miter;stroke-width:0.8;"/>
   </g>
  </g>
  <g id="axes_2">
   <g id="patch_7">
    <path d="M 144 214.292093 
L 518.4 214.292093 
L 518.4 136.933953 
L 144 136.933953 
z
" style="fill:#ffffff;"/>
   </g>
   <g id="matplotlib.axis_2">
    <g id="ytick_3">
     <g id="line2d_4">
      <g>
       <use style="stroke:#000000;stroke-width:0.8;" x="144" xlink:href="#m1a7cb715c5" y="210.775871"/>
      </g>
     </g>
     <g id="text_4">
      <!-- $-2$ -->
      <defs>
       <path d="M 41.703125 15.453125 
L 39.90625 15.453125 
C 38.90625 8.375 38.09375 7.171875 37.703125 6.5625 
C 37.203125 5.765625 30 5.765625 28.59375 5.765625 
L 9.40625 5.765625 
C 13 9.671875 20 16.75 28.5 24.953125 
C 34.59375 30.734375 41.703125 37.53125 41.703125 47.421875 
C 41.703125 59.21875 32.296875 66 21.796875 66 
C 10.796875 66 4.09375 56.3125 4.09375 47.34375 
C 4.09375 43.4375 7 42.9375 8.203125 42.9375 
C 9.203125 42.9375 12.203125 43.546875 12.203125 47.03125 
C 12.203125 50.109375 9.59375 51 8.203125 51 
C 7.59375 51 7 50.90625 6.59375 50.703125 
C 8.5 59.21875 14.296875 63.40625 20.40625 63.40625 
C 29.09375 63.40625 34.796875 56.515625 34.796875 47.421875 
C 34.796875 38.734375 29.703125 31.25 24 24.75 
L 4.09375 2.28125 
L 4.09375 0 
L 39.296875 0 
z
" id="CMR17-50"/>
      </defs>
      <g transform="translate(121.84852 214.926961)scale(0.12 -0.12)">
       <use transform="scale(0.996264)" xlink:href="#CMSY10-0"/>
       <use transform="translate(77.487468 0)scale(0.996264)" xlink:href="#CMR17-50"/>
      </g>
     </g>
    </g>
    <g id="ytick_4">
     <g id="line2d_5">
      <g>
       <use style="stroke:#000000;stroke-width:0.8;" x="144" xlink:href="#m1a7cb715c5" y="175.613022"/>
      </g>
     </g>
     <g id="text_5">
      <!-- $0$ -->
      <g transform="translate(131.14701 179.764112)scale(0.12 -0.12)">
       <use transform="scale(0.996264)" xlink:href="#CMR17-48"/>
      </g>
     </g>
    </g>
    <g id="ytick_5">
     <g id="line2d_6">
      <g>
       <use style="stroke:#000000;stroke-width:0.8;" x="144" xlink:href="#m1a7cb715c5" y="140.450172"/>
      </g>
     </g>
     <g id="text_6">
      <!-- $2$ -->
      <g transform="translate(131.14701 144.601262)scale(0.12 -0.12)">
       <use transform="scale(0.996264)" xlink:href="#CMR17-50"/>
      </g>
     </g>
    </g>
    <g id="text_7">
     <!-- Integrator outputs -->
     <defs>
      <path d="M 19.703125 61.015625 
C 19.703125 65.5 20.90625 65.5 28.09375 65.5 
L 28.09375 68 
C 24.90625 68 19.796875 68 16.40625 68 
C 13 68 7.90625 68 4.703125 68 
L 4.703125 65.5 
C 11.90625 65.5 13.09375 65.5 13.09375 61.015625 
L 13.09375 6.984375 
C 13.09375 2.5 11.90625 2.5 4.703125 2.5 
L 4.703125 0 
C 7.90625 0 13 0 16.40625 0 
C 19.796875 0 24.90625 0 28.09375 0 
L 28.09375 2.5 
C 20.90625 2.5 19.703125 2.5 19.703125 6.984375 
z
" id="CMR17-73"/>
      <path d="M 15.09375 40 
L 29.09375 40 
L 29.09375 42.578125 
L 15.09375 42.578125 
L 15.09375 61 
L 13.296875 61 
C 13.09375 50.703125 9.59375 41.6875 1.09375 41.6875 
L 1.09375 40 
L 9.796875 40 
L 9.796875 12.046875 
C 9.796875 10.15625 9.796875 -1 21.40625 -1 
C 27.296875 -1 30.703125 4.78125 30.703125 12.140625 
L 30.703125 17.8125 
L 28.90625 17.8125 
L 28.90625 12.234375 
C 28.90625 5.375 26.203125 0.796875 22 0.796875 
C 19.09375 0.796875 15.09375 2.78125 15.09375 11.84375 
z
" id="CMR17-116"/>
      <path d="M 38.09375 23 
C 38.5 23.40625 38.5 23.609375 38.5 24.625 
C 38.5 34.96875 33.09375 44 21.703125 44 
C 11.09375 44 2.703125 33.890625 2.703125 21.609375 
C 2.703125 8.609375 12.203125 -1 22.796875 -1 
C 34 -1 38.40625 9.484375 38.40625 11.5625 
C 38.40625 12.25 37.796875 12.25 37.59375 12.25 
C 36.90625 12.25 36.796875 12.046875 36.40625 10.875 
C 34.203125 4.140625 28.703125 0.796875 23.5 0.796875 
C 19.203125 0.796875 14.90625 3.171875 12.203125 7.5 
C 9.09375 12.546875 9.09375 18.375 9.09375 23 
z
M 9.203125 24.5 
C 9.90625 39.140625 17.59375 42.40625 21.59375 42.40625 
C 28.40625 42.40625 33 35.890625 33.09375 24.5 
z
" id="CMR17-101"/>
      <path d="M 43.09375 21.1875 
C 43.09375 34 33.796875 44 22.90625 44 
C 12 44 2.703125 34 2.703125 21.1875 
C 2.703125 8.609375 12 -1 22.90625 -1 
C 33.796875 -1 43.09375 8.609375 43.09375 21.1875 
z
M 22.90625 0.796875 
C 18.203125 0.796875 14.203125 3.59375 11.90625 7.5 
C 9.40625 11.984375 9.09375 17.59375 9.09375 22 
C 9.09375 26.203125 9.296875 31.40625 11.90625 35.90625 
C 13.90625 39.203125 17.796875 42.40625 22.90625 42.40625 
C 27.40625 42.40625 31.203125 39.90625 33.59375 36.40625 
C 36.703125 31.703125 36.703125 25.109375 36.703125 22 
C 36.703125 18.09375 36.5 12.109375 33.796875 7.296875 
C 31 2.703125 26.703125 0.796875 22.90625 0.796875 
z
" id="CMR17-111"/>
      <path d="M 29.40625 42.078125 
L 29.40625 39.5 
C 35.296875 39.5 36.203125 38.890625 36.203125 34.15625 
L 36.203125 16.125 
C 36.203125 7.8125 31.703125 0.59375 24.296875 0.59375 
C 16.09375 0.59375 15.40625 5.4375 15.40625 10.59375 
L 15.40625 43.171875 
L 3.296875 42.078125 
L 3.296875 39.5 
C 7.296875 39.5 10 39.5 10.09375 35.53125 
L 10.09375 16.53125 
C 10.09375 9.890625 10.09375 5.640625 12.703125 2.859375 
C 14 1.578125 16.5 -1 23.703125 -1 
C 32.203125 -1 35.5 5.890625 36.296875 7.90625 
L 36.40625 7.90625 
L 36.40625 -0.984375 
L 48.296875 -0.984375 
L 48.296875 2 
C 42.40625 2 41.5 2.59375 41.5 7.390625 
L 41.5 43.171875 
z
" id="CMR17-117"/>
      <path d="M 22 -16.609375 
C 15.59375 -16.609375 15.203125 -16.203125 15.203125 -12.328125 
L 15.203125 6.28125 
C 18.09375 2.09375 22.296875 -0.59375 27.59375 -0.59375 
C 37.59375 -0.59375 47.703125 8.171875 47.703125 21.6875 
C 47.703125 34.234375 39 43.78125 28.703125 43.78125 
C 22.703125 43.78125 17.796875 40.5 15 36.53125 
L 15 43.78125 
L 3.09375 42.6875 
L 3.09375 40.109375 
C 9 40.109375 9.90625 39.5 9.90625 34.734375 
L 9.90625 -12.328125 
C 9.90625 -16.109375 9.5 -16.609375 3.09375 -16.609375 
L 3.09375 -19.1875 
C 5.5 -19 9.90625 -19 12.5 -19 
C 15.09375 -19 19.59375 -19 22 -19.1875 
z
M 15.203125 31.4375 
C 15.203125 32.84375 15.203125 34.921875 19.09375 38.609375 
C 19.59375 39.015625 23 42 28 42 
C 35.296875 42 41.296875 32.9375 41.296875 21.59375 
C 41.296875 10.25 34.90625 1 27 1 
C 23.40625 1 19.5 2.6875 16.5 7.375 
C 15.203125 9.5625 15.203125 10.15625 15.203125 11.75 
z
" id="CMR17-112"/>
      <path d="M 30.90625 42.140625 
C 30.90625 43.953125 30.796875 44.046875 30.203125 44.046875 
C 29.796875 44.046875 29.703125 43.953125 28.5 42.453125 
C 28.203125 42.046875 27.296875 41.03125 27 40.640625 
C 23.796875 44.046875 19.296875 44.046875 17.59375 44.046875 
C 6.5 44.046875 2.5 38.234375 2.5 32.4375 
C 2.5 23.40625 12.703125 21.328125 15.59375 20.703125 
C 21.90625 19.421875 24.09375 19.015625 26.203125 17.203125 
C 27.5 16.015625 29.703125 13.8125 29.703125 10.21875 
C 29.703125 6 27.296875 0.59375 18.09375 0.59375 
C 9.40625 0.59375 6.296875 7.1875 4.5 15.953125 
C 4.203125 17.34375 4.203125 17.453125 3.40625 17.453125 
C 2.59375 17.453125 2.5 17.34375 2.5 15.359375 
L 2.5 0.984375 
C 2.5 -0.796875 2.59375 -0.90625 3.203125 -0.90625 
C 3.703125 -0.90625 3.796875 -0.796875 4.296875 0 
C 4.90625 0.890625 6.40625 3.296875 7 4.3125 
C 9 1.609375 12.5 -1 18.09375 -1 
C 28 -1 33.296875 4.421875 33.296875 12.25 
C 33.296875 17.375 30.59375 20.078125 29.296875 21.28125 
C 26.296875 24.390625 22.796875 25.09375 18.59375 25.890625 
C 13.09375 27.109375 6.09375 28.515625 6.09375 34.640625 
C 6.09375 37.234375 7.5 42.765625 17.59375 42.765625 
C 28.296875 42.765625 28.90625 32.71875 29.09375 29.5 
C 29.203125 29 29.703125 28.890625 30 28.890625 
C 30.90625 28.890625 30.90625 29.203125 30.90625 30.90625 
z
" id="CMR17-115"/>
     </defs>
     <g transform="translate(23.451671 176.954567)rotate(-359)scale(0.12 -0.12)">
      <use transform="scale(0.996264)" xlink:href="#CMR17-73"/>
      <use transform="translate(32.638409 0)scale(0.996264)" xlink:href="#CMR17-110"/>
      <use transform="translate(80.931325 0)scale(0.996264)" xlink:href="#CMR17-116"/>
      <use transform="translate(116.212093 0)scale(0.996264)" xlink:href="#CMR17-101"/>
      <use transform="translate(156.697753 0)scale(0.996264)" xlink:href="#CMR17-103"/>
      <use transform="translate(202.38823 0)scale(0.996264)" xlink:href="#CMR17-114"/>
      <use transform="translate(237.668998 0)scale(0.996264)" xlink:href="#CMR17-97"/>
      <use transform="translate(283.359475 0)scale(0.996264)" xlink:href="#CMR17-116"/>
      <use transform="translate(318.640243 0)scale(0.996264)" xlink:href="#CMR17-111"/>
      <use transform="translate(364.33072 0)scale(0.996264)" xlink:href="#CMR17-114"/>
      <use transform="translate(429.687454 0)scale(0.996264)" xlink:href="#CMR17-111"/>
      <use transform="translate(475.377932 0)scale(0.996264)" xlink:href="#CMR17-117"/>
      <use transform="translate(526.273301 0)scale(0.996264)" xlink:href="#CMR17-116"/>
      <use transform="translate(561.554069 0)scale(0.996264)" xlink:href="#CMR17-112"/>
      <use transform="translate(612.449439 0)scale(0.996264)" xlink:href="#CMR17-117"/>
      <use transform="translate(663.344809 0)scale(0.996264)" xlink:href="#CMR17-116"/>
      <use transform="translate(698.625576 0)scale(0.996264)" xlink:href="#CMR17-115"/>
     </g>
    </g>
   </g>
   <g id="line2d_7">
    <path clip-path="url(#pc71683fccf)" d="M 144 210.768978 
L 146.369417 207.533386 
L 148.738834 203.917325 
L 151.086857 199.922584 
L 153.461623 195.434492 
L 155.986149 190.172728 
L 158.981349 183.384352 
L 167.378606 164.022752 
L 169.715931 159.397151 
L 171.887451 155.583978 
L 174.080366 152.180909 
L 176.5728 148.734767 
L 182.969691 140.45554 
L 182.97504 210.773974 
L 183.082011 210.628428 
L 185.97024 206.504772 
L 189.099154 201.628811 
L 198.715886 186.337983 
L 201.716434 182.191003 
L 204.968366 178.083643 
L 208.910263 173.475024 
L 212.846811 169.196449 
L 215.906194 166.183345 
L 218.553737 163.882004 
L 221.228023 161.855723 
L 228.95136 156.233878 
L 230.678949 154.519559 
L 232.299566 152.594463 
L 233.909486 150.329756 
L 235.572891 147.59515 
L 237.353966 144.225306 
L 239.129691 140.450233 
L 239.13504 210.764002 
L 239.242011 210.524758 
L 241.675611 204.794549 
L 246.28608 193.212931 
L 249.607543 185.203792 
L 252.062537 179.850307 
L 254.244754 175.609942 
L 256.293257 172.103264 
L 258.256183 169.173856 
L 260.149577 166.738888 
L 261.968091 164.753645 
L 263.711726 163.171757 
L 265.38048 161.951844 
L 266.985051 161.048655 
L 268.56288 160.412797 
L 270.151406 160.011429 
L 271.830857 159.818686 
L 273.772389 159.828334 
L 280.324389 160.065965 
L 281.736411 159.757902 
L 283.025417 159.249635 
L 284.271634 158.516813 
L 285.517851 157.521576 
L 286.806857 156.199758 
L 288.170743 154.471437 
L 289.646949 152.227967 
L 291.28896 149.31169 
L 293.1984 145.445419 
L 295.428754 140.45045 
L 295.434103 210.763723 
L 295.541074 210.514857 
L 300.408274 198.894131 
L 303.997166 190.662146 
L 306.858651 184.648088 
L 309.554331 179.491374 
L 312.175131 174.949299 
L 314.667566 171.063017 
L 316.978149 167.860102 
L 319.101531 165.285572 
L 321.0912 163.214358 
L 323.016686 161.526114 
L 324.974263 160.104316 
L 327.161829 158.796585 
L 330.991406 156.829832 
L 333.526629 155.384859 
L 335.43072 154.041658 
L 337.195749 152.520906 
L 338.960777 150.700888 
L 340.843474 148.429996 
L 342.998949 145.464786 
L 345.892526 141.069882 
L 346.282971 140.457507 
L 346.28832 210.774804 
L 346.395291 210.606685 
L 351.792 202.328731 
L 354.658834 198.38278 
L 357.755657 194.511418 
L 365.837349 184.614295 
L 368.757669 180.526161 
L 371.966811 175.634915 
L 376.004983 169.049922 
L 380.561966 161.201722 
L 384.198994 154.511132 
L 387.488366 147.986925 
L 391.045166 140.461655 
L 391.050514 210.775814 
L 391.157486 210.544946 
L 396.473966 199.331906 
L 398.768503 195.038724 
L 400.661897 191.949238 
L 402.352046 189.602434 
L 403.929874 187.782372 
L 405.454217 186.357468 
L 406.983909 185.228651 
L 408.609874 184.306241 
L 410.524663 183.484776 
L 417.146194 180.870626 
L 418.841691 179.810305 
L 420.467657 178.528384 
L 422.10432 176.94938 
L 423.794469 175.002401 
L 425.570194 172.609025 
L 427.452891 169.688422 
L 429.447909 166.172543 
L 431.544549 162.017242 
L 433.742811 157.155756 
L 436.053394 151.493619 
L 438.561874 144.739225 
L 440.054126 140.458335 
L 440.059474 210.768388 
L 440.166446 210.455052 
L 443.926491 199.082816 
L 448.590446 185.101235 
L 450.959863 178.710812 
L 452.928137 174.017193 
L 454.693166 170.36432 
L 456.340526 167.452292 
L 457.923703 165.094119 
L 459.501531 163.135617 
L 461.143543 161.449548 
L 462.978103 159.88881 
L 465.443794 158.106945 
L 469.931246 154.891436 
L 472.113463 153.011711 
L 474.18336 150.931286 
L 476.285349 148.496808 
L 478.472914 145.616189 
L 480.756754 142.234746 
L 481.863909 140.456712 
L 481.869257 210.773597 
L 481.976229 210.596864 
L 484.318903 206.502213 
L 486.661577 201.95389 
L 489.025646 196.870334 
L 491.512731 190.980072 
L 494.336777 183.692973 
L 498.63168 171.896053 
L 502.942629 160.272646 
L 505.675749 153.54292 
L 508.173531 147.975159 
L 510.778286 142.717175 
L 511.971017 140.451746 
L 511.976366 210.767434 
L 512.083337 210.56746 
L 518.394651 198.924395 
L 518.394651 198.924395 
" style="fill:none;stroke:#1f77b4;stroke-linecap:square;stroke-width:1.5;"/>
   </g>
   <g id="line2d_8">
    <path clip-path="url(#pc71683fccf)" d="M 144 184.396841 
L 146.369417 181.161249 
L 148.738834 177.545188 
L 151.086857 173.550447 
L 153.461623 169.062355 
L 155.986149 163.800591 
L 158.981349 157.012215 
L 166.068206 140.460441 
L 166.073554 210.774393 
L 166.180526 210.539903 
L 168.689006 205.31798 
L 170.908663 201.198381 
L 173.069486 197.652001 
L 175.37472 194.300311 
L 178.36992 190.367289 
L 183.734537 183.357915 
L 186.60672 179.172279 
L 189.93888 173.894896 
L 197.656869 161.523176 
L 200.678811 157.209671 
L 203.79168 153.158619 
L 207.466149 148.753957 
L 211.600594 144.13883 
L 214.922057 140.742695 
L 215.221577 140.455102 
L 215.226926 210.775697 
L 215.333897 210.673863 
L 218.029577 208.266769 
L 220.655726 206.2209 
L 224.148343 203.814481 
L 227.41632 201.480567 
L 229.352503 199.816696 
L 231.042651 198.069918 
L 232.65792 196.075553 
L 234.273189 193.720046 
L 235.957989 190.858045 
L 237.781851 187.304849 
L 239.862446 182.741555 
L 242.520686 176.334043 
L 250.233326 157.413097 
L 252.602743 152.380912 
L 254.74752 148.334343 
L 256.774629 144.974025 
L 258.721509 142.168113 
L 260.074697 140.455878 
L 260.080046 210.775192 
L 260.187017 210.648107 
L 262.005531 208.669938 
L 263.743817 207.099148 
L 265.407223 205.888193 
L 267.011794 204.989381 
L 268.589623 204.357673 
L 270.178149 203.960155 
L 271.862949 203.770602 
L 273.809829 203.783908 
L 280.276251 204.026079 
L 281.693623 203.724374 
L 282.987977 203.22139 
L 284.234194 202.496113 
L 285.480411 201.509033 
L 286.764069 200.202058 
L 288.122606 198.491726 
L 289.593463 196.269319 
L 291.230126 193.376781 
L 293.128869 189.547405 
L 295.525029 184.180091 
L 300.306651 172.763356 
L 303.932983 164.431052 
L 306.799817 158.394041 
L 309.500846 153.216745 
L 312.121646 148.665237 
L 314.619429 144.76181 
L 316.93536 141.543577 
L 317.79648 140.452346 
L 317.801829 210.771453 
L 317.9088 210.640098 
L 319.968 208.295932 
L 321.920229 206.403638 
L 323.845714 204.843769 
L 325.867474 203.49377 
L 328.31712 202.139524 
L 333.52128 199.341823 
L 335.425371 197.999398 
L 337.1904 196.47952 
L 338.955429 194.660425 
L 340.838126 192.390464 
L 342.988251 189.433867 
L 345.87648 185.04856 
L 352.096869 175.518366 
L 354.953006 171.627433 
L 358.140754 167.677403 
L 365.388069 158.838322 
L 368.308389 154.806987 
L 371.442651 150.086331 
L 375.320366 143.819729 
L 377.320731 140.457404 
L 377.32608 210.774008 
L 377.433051 210.591985 
L 381.749349 203.023205 
L 385.199177 196.531918 
L 388.531337 189.774989 
L 394.093851 177.857283 
L 397.137189 171.666217 
L 399.292663 167.765842 
L 401.121874 164.898391 
L 402.774583 162.707632 
L 404.331017 161.004285 
L 405.850011 159.665927 
L 407.395749 158.598421 
L 409.069851 157.715209 
L 411.145097 156.885687 
L 416.322514 154.925299 
L 418.092891 153.938902 
L 419.740251 152.763896 
L 421.366217 151.326236 
L 423.024274 149.55766 
L 424.757211 147.376632 
L 426.591771 144.700501 
L 428.533303 141.465517 
L 429.094903 140.453729 
L 429.100251 210.769629 
L 429.207223 210.573003 
L 431.293166 206.493824 
L 433.475383 201.728308 
L 435.76992 196.171725 
L 438.246309 189.574682 
L 441.129189 181.229826 
L 450.548023 153.396415 
L 452.575131 148.440434 
L 454.366903 144.626028 
L 456.030309 141.592007 
L 456.73632 140.451235 
L 456.741669 210.768618 
L 456.84864 210.60333 
L 458.426469 208.383585 
L 460.014994 206.526883 
L 461.699794 204.899215 
L 463.652023 203.330182 
L 466.818377 201.120432 
L 469.909851 198.862023 
L 472.097417 196.980215 
L 474.167314 194.902171 
L 476.269303 192.470196 
L 478.456869 189.592158 
L 480.740709 186.213403 
L 483.078034 182.35306 
L 485.420709 178.049731 
L 487.768731 173.264122 
L 490.175589 167.842262 
L 492.774994 161.420621 
L 495.962743 152.911762 
L 500.471589 140.461098 
L 500.476937 210.77224 
L 500.583909 210.481347 
L 503.883977 201.837005 
L 506.49408 195.610275 
L 508.986514 190.233499 
L 511.719634 184.877156 
L 516.784731 175.579912 
L 518.394651 172.552258 
L 518.394651 172.552258 
" style="fill:none;stroke:#ff7f0e;stroke-linecap:square;stroke-width:1.5;"/>
   </g>
   <g id="patch_8">
    <path d="M 144 214.292093 
L 144 136.933953 
" style="fill:none;stroke:#000000;stroke-linecap:square;stroke-linejoin:miter;stroke-width:0.8;"/>
   </g>
   <g id="patch_9">
    <path d="M 518.4 214.292093 
L 518.4 136.933953 
" style="fill:none;stroke:#000000;stroke-linecap:square;stroke-linejoin:miter;stroke-width:0.8;"/>
   </g>
   <g id="patch_10">
    <path d="M 144 214.292093 
L 518.4 214.292093 
" style="fill:none;stroke:#000000;stroke-linecap:square;stroke-linejoin:miter;stroke-width:0.8;"/>
   </g>
   <g id="patch_11">
    <path d="M 144 136.933953 
L 518.4 136.933953 
" style="fill:none;stroke:#000000;stroke-linecap:square;stroke-linejoin:miter;stroke-width:0.8;"/>
   </g>
   <g id="legend_1">
    <g id="patch_12">
     <path d="M 447.828182 208.292093 
L 510 208.292093 
Q 512.4 208.292093 512.4 205.892093 
L 512.4 171.181757 
Q 512.4 168.781757 510 168.781757 
L 447.828182 168.781757 
Q 445.428182 168.781757 445.428182 171.181757 
L 445.428182 205.892093 
Q 445.428182 208.292093 447.828182 208.292093 
z
" style="fill:#ffffff;opacity:0.8;stroke:#cccccc;stroke-linejoin:miter;"/>
    </g>
    <g id="line2d_9">
     <path d="M 450.228182 179.012329 
L 474.228182 179.012329 
" style="fill:none;stroke:#1f77b4;stroke-linecap:square;stroke-width:1.5;"/>
    </g>
    <g id="line2d_10"/>
    <g id="text_8">
     <!-- $y_1(t)$ -->
     <defs>
      <path d="M 26.296875 -10.9375 
C 23.59375 -14.671875 19.703125 -18 14.796875 -18 
C 13.59375 -18 8.796875 -18 7.296875 -13.890625 
C 7.59375 -13.984375 8.09375 -13.984375 8.296875 -13.984375 
C 11.296875 -13.984375 13.296875 -11.390625 13.296875 -9.09375 
C 13.296875 -6.796875 11.40625 -6 9.90625 -6 
C 8.296875 -6 4.796875 -7.15625 4.796875 -11.859375 
C 4.796875 -16.734375 9.09375 -20.09375 14.796875 -20.09375 
C 24.796875 -20.09375 34.90625 -10.9375 37.703125 0.09375 
L 47.5 38.828125 
C 47.59375 39.328125 47.796875 39.9375 47.796875 40.53125 
C 47.796875 42.015625 46.59375 43.015625 45.09375 43.015625 
C 44.203125 43.015625 42.09375 42.609375 41.296875 39.609375 
L 33.90625 10.28125 
C 33.40625 8.484375 33.40625 8.28125 32.59375 7.1875 
C 30.59375 4.390625 27.296875 1 22.5 1 
C 16.90625 1 16.40625 6.484375 16.40625 9.1875 
C 16.40625 14.875 19.09375 22.546875 21.796875 29.734375 
C 22.90625 32.625 23.5 34.03125 23.5 36.015625 
C 23.5 40.21875 20.5 44 15.59375 44 
C 6.40625 44 2.703125 29.53125 2.703125 28.734375 
C 2.703125 28.34375 3.09375 27.84375 3.796875 27.84375 
C 4.703125 27.84375 4.796875 28.234375 5.203125 29.640625 
C 7.59375 38.015625 11.40625 42.015625 15.296875 42.015625 
C 16.203125 42.015625 17.90625 42.015625 17.90625 38.71875 
C 17.90625 36.125 16.796875 33.234375 15.296875 29.4375 
C 10.40625 16.359375 10.40625 13.078125 10.40625 10.671875 
C 10.40625 1.203125 17.203125 -1 22.203125 -1 
C 25.09375 -1 28.703125 -0.09375 32.203125 3.59375 
L 32.296875 3.5 
C 30.796875 -2.296875 29.796875 -6.125 26.296875 -10.9375 
z
" id="CMMI12-121"/>
      <path d="M 26.59375 63.40625 
C 26.59375 65.5 26.5 65.5 25.09375 65.5 
C 21.203125 61.1875 15.296875 59.796875 9.703125 59.796875 
C 9.40625 59.796875 8.90625 59.796875 8.796875 59.5 
C 8.703125 59.296875 8.703125 59.09375 8.703125 57 
C 11.796875 57 17 57.59375 21 59.984375 
L 21 7.203125 
C 21 3.6875 20.796875 2.5 12.203125 2.5 
L 9.203125 2.5 
L 9.203125 0 
C 14 0 19 0 23.796875 0 
C 28.59375 0 33.59375 0 38.40625 0 
L 38.40625 2.5 
L 35.40625 2.5 
C 26.796875 2.5 26.59375 3.59375 26.59375 7.15625 
z
" id="CMR17-49"/>
      <path d="M 30.59375 -24.390625 
C 30.59375 -24.296875 30.59375 -24.09375 30.296875 -23.796875 
C 25.703125 -19.125 13.40625 -6.359375 13.40625 24.703125 
C 13.40625 55.765625 25.5 68.421875 30.40625 73.390625 
C 30.40625 73.5 30.59375 73.703125 30.59375 74 
C 30.59375 74.296875 30.296875 74.5 29.90625 74.5 
C 28.796875 74.5 20.296875 67.125 15.40625 56.15625 
C 10.40625 45.109375 9 34.359375 9 24.8125 
C 9 17.625 9.703125 5.484375 15.703125 -7.359375 
C 20.5 -17.734375 28.703125 -25 29.90625 -25 
C 30.40625 -25 30.59375 -24.796875 30.59375 -24.390625 
z
" id="CMR17-40"/>
      <path d="M 20.09375 40.09375 
L 29.296875 40.09375 
C 31.203125 40.09375 32.203125 40.09375 32.203125 41.890625 
C 32.203125 43 31.59375 43 29.59375 43 
L 20.796875 43 
L 24.5 57.6875 
C 24.90625 59.078125 24.90625 59.28125 24.90625 60 
C 24.90625 61.609375 23.59375 62.5 22.296875 62.5 
C 21.5 62.5 19.203125 62.203125 18.40625 58.984375 
L 14.5 43 
L 5.09375 43 
C 3.09375 43 2.203125 43 2.203125 41.09375 
C 2.203125 40.09375 2.90625 40.09375 4.796875 40.09375 
L 13.703125 40.09375 
L 7.09375 13.765625 
C 6.296875 10.28125 6 9.28125 6 7.984375 
C 6 3.296875 9.296875 -1 14.90625 -1 
C 25 -1 30.40625 13.5625 30.40625 14.25 
C 30.40625 14.859375 30 15.15625 29.40625 15.15625 
C 29.203125 15.15625 28.796875 15.15625 28.59375 14.75 
C 28.5 14.65625 28.40625 14.546875 27.703125 12.953125 
C 25.59375 7.984375 21 1 15.203125 1 
C 12.203125 1 12 3.5 12 5.6875 
C 12 5.78125 12 7.6875 12.296875 8.875 
z
" id="CMMI12-116"/>
      <path d="M 26.296875 24.703125 
C 26.296875 31.875 25.59375 44.015625 19.59375 56.859375 
C 14.796875 67.234375 6.59375 74.5 5.40625 74.5 
C 5.09375 74.5 4.703125 74.390625 4.703125 73.890625 
C 4.703125 73.703125 4.796875 73.59375 4.90625 73.390625 
C 9.703125 68.40625 21.90625 55.75 21.90625 24.75 
C 21.90625 -6.359375 9.796875 -19.015625 4.90625 -24.015625 
C 4.796875 -24.203125 4.703125 -24.3125 4.703125 -24.5 
C 4.703125 -25 5.09375 -25 5.40625 -25 
C 6.5 -25 15 -17.625 19.90625 -6.65625 
C 24.90625 4.390625 26.296875 15.140625 26.296875 24.703125 
z
" id="CMR17-41"/>
     </defs>
     <g transform="translate(483.828182 183.212329)scale(0.12 -0.12)">
      <use transform="translate(0 14.943915)scale(0.996264)" xlink:href="#CMMI12-121"/>
      <use transform="translate(47.564188 0)scale(0.697382)" xlink:href="#CMR17-49"/>
      <use transform="translate(80.045502 14.943915)scale(0.996264)" xlink:href="#CMR17-40"/>
      <use transform="translate(115.32627 14.943915)scale(0.996264)" xlink:href="#CMMI12-116"/>
      <use transform="translate(150.5526 14.943915)scale(0.996264)" xlink:href="#CMR17-41"/>
     </g>
    </g>
    <g id="line2d_11">
     <path d="M 450.228182 196.967497 
L 474.228182 196.967497 
" style="fill:none;stroke:#ff7f0e;stroke-linecap:square;stroke-width:1.5;"/>
    </g>
    <g id="line2d_12"/>
    <g id="text_9">
     <!-- $y_2(t)$ -->
     <g transform="translate(483.828182 201.167497)scale(0.12 -0.12)">
      <use transform="translate(0 14.943915)scale(0.996264)" xlink:href="#CMMI12-121"/>
      <use transform="translate(47.564188 0)scale(0.697382)" xlink:href="#CMR17-50"/>
      <use transform="translate(80.045502 14.943915)scale(0.996264)" xlink:href="#CMR17-40"/>
      <use transform="translate(115.32627 14.943915)scale(0.996264)" xlink:href="#CMMI12-116"/>
      <use transform="translate(150.5526 14.943915)scale(0.996264)" xlink:href="#CMR17-41"/>
     </g>
    </g>
   </g>
  </g>
  <g id="axes_3">
   <g id="patch_13">
    <path d="M 144 299.386047 
L 518.4 299.386047 
L 518.4 222.027907 
L 144 222.027907 
z
" style="fill:#ffffff;"/>
   </g>
   <g id="matplotlib.axis_3">
    <g id="ytick_6">
     <g id="line2d_13">
      <g>
       <use style="stroke:#000000;stroke-width:0.8;" x="144" xlink:href="#m1a7cb715c5" y="269.497674"/>
      </g>
     </g>
     <g id="text_10">
      <!-- $0$ -->
      <g transform="translate(131.14701 273.648764)scale(0.12 -0.12)">
       <use transform="scale(0.996264)" xlink:href="#CMR17-48"/>
      </g>
     </g>
    </g>
    <g id="ytick_7">
     <g id="line2d_14">
      <g>
       <use style="stroke:#000000;stroke-width:0.8;" x="144" xlink:href="#m1a7cb715c5" y="234.334884"/>
      </g>
     </g>
     <g id="text_11">
      <!-- $2$ -->
      <g transform="translate(131.14701 238.485974)scale(0.12 -0.12)">
       <use transform="scale(0.996264)" xlink:href="#CMR17-50"/>
      </g>
     </g>
    </g>
    <g id="text_12">
     <!-- Integrator output -->
     <g transform="translate(37.474037 255.986435)rotate(-359)scale(0.12 -0.12)">
      <use transform="scale(0.996264)" xlink:href="#CMR17-73"/>
      <use transform="translate(32.638409 0)scale(0.996264)" xlink:href="#CMR17-110"/>
      <use transform="translate(80.931325 0)scale(0.996264)" xlink:href="#CMR17-116"/>
      <use transform="translate(116.212093 0)scale(0.996264)" xlink:href="#CMR17-101"/>
      <use transform="translate(156.697753 0)scale(0.996264)" xlink:href="#CMR17-103"/>
      <use transform="translate(202.38823 0)scale(0.996264)" xlink:href="#CMR17-114"/>
      <use transform="translate(237.668998 0)scale(0.996264)" xlink:href="#CMR17-97"/>
      <use transform="translate(283.359475 0)scale(0.996264)" xlink:href="#CMR17-116"/>
      <use transform="translate(318.640243 0)scale(0.996264)" xlink:href="#CMR17-111"/>
      <use transform="translate(364.33072 0)scale(0.996264)" xlink:href="#CMR17-114"/>
      <use transform="translate(429.687454 0)scale(0.996264)" xlink:href="#CMR17-111"/>
      <use transform="translate(475.377932 0)scale(0.996264)" xlink:href="#CMR17-117"/>
      <use transform="translate(526.273301 0)scale(0.996264)" xlink:href="#CMR17-116"/>
      <use transform="translate(561.554069 0)scale(0.996264)" xlink:href="#CMR17-112"/>
      <use transform="translate(612.449439 0)scale(0.996264)" xlink:href="#CMR17-117"/>
      <use transform="translate(663.344809 0)scale(0.996264)" xlink:href="#CMR17-116"/>
     </g>
     <!--  differences -->
     <defs>
      <path d="M 29.203125 67.59375 
L 29.203125 65 
C 35.09375 65 36 64.40625 36 59.6875 
L 36 36.640625 
C 35.59375 37.140625 31.5 43.59375 23.40625 43.59375 
C 13.203125 43.59375 3.296875 34.5 3.296875 21.3125 
C 3.296875 8.203125 12.59375 -1 22.40625 -1 
C 30.90625 -1 35.296875 5.265625 35.796875 5.9375 
L 35.796875 -0.984375 
L 47.90625 -0.984375 
L 47.90625 2 
C 42 2 41.09375 2.59375 41.09375 7.390625 
L 41.09375 68.6875 
z
M 35.796875 11.796875 
C 35.796875 8.796875 34 6.09375 31.703125 4.09375 
C 28.296875 1.09375 24.90625 0.59375 23 0.59375 
C 20.09375 0.59375 9.703125 2.09375 9.703125 21.1875 
C 9.703125 40.8125 21.296875 42 23.90625 42 
C 28.5 42 32.203125 39.40625 34.5 35.796875 
C 35.796875 33.703125 35.796875 33.40625 35.796875 31.609375 
z
" id="CMR17-100"/>
      <path d="M 39.90625 40 
L 51.296875 40 
L 51.296875 42.578125 
L 39.703125 42.578125 
L 39.703125 54.59375 
C 39.703125 62.84375 43.90625 68 48.203125 68 
C 49.5 68 51 67.609375 52 66.90625 
C 51.203125 66.703125 49.09375 66.015625 49.09375 63.546875 
C 49.09375 60.953125 51.09375 60.15625 52.5 60.15625 
C 53.90625 60.15625 55.90625 60.953125 55.90625 63.546875 
C 55.90625 67.3125 52.296875 69.59375 48.296875 69.59375 
C 44.40625 69.59375 41.203125 67.703125 38.703125 65.328125 
C 36.40625 68.59375 32.59375 69.59375 28.703125 69.59375 
C 20.90625 69.59375 9.90625 65.125 9.90625 54.203125 
L 9.90625 42.578125 
L 1.90625 42.578125 
L 1.90625 40 
L 9.90625 40 
L 9.90625 6.671875 
C 9.90625 2.875 9.5 2.390625 3.09375 2.390625 
L 3.09375 -0.203125 
C 5.5 0 9.90625 0 12.40625 0 
C 15 0 19.40625 0 21.796875 -0.203125 
L 21.796875 2.390625 
C 15.40625 2.390625 15 2.78125 15 6.671875 
L 15 40 
L 34.796875 40 
L 34.796875 6.671875 
C 34.796875 2.875 34.40625 2.390625 28 2.390625 
L 28 -0.203125 
C 30.40625 0 35 0 37.59375 0 
C 40.5 0 45.59375 0 48.296875 -0.203125 
L 48.296875 2.390625 
C 41.09375 2.390625 39.90625 2.390625 39.90625 6.859375 
z
M 14.796875 42.578125 
L 14.796875 54.203125 
C 14.796875 63.234375 21.796875 68 28.5 68 
C 30 68 33.90625 67.6875 36.296875 65.421875 
C 34.5 65.421875 32.796875 64.625 32.796875 62.140625 
C 32.796875 59.5625 35.09375 58.859375 35.296875 58.859375 
C 34.796875 57.0625 34.796875 55.09375 34.796875 54.390625 
L 34.796875 42.578125 
z
" id="CMR17-11"/>
      <path d="M 34.90625 35 
C 33 35 30.203125 35 30.203125 31.515625 
C 30.203125 28.71875 32.5 27.921875 33.796875 27.921875 
C 34.5 27.921875 37.40625 28.234375 37.40625 31.625 
C 37.40625 38.546875 30.59375 43.796875 22.90625 43.796875 
C 12.296875 43.796875 3.296875 34.03125 3.296875 21.296875 
C 3.296875 8.0625 12.703125 -1 22.90625 -1 
C 35.296875 -1 38.40625 10.578125 38.40625 11.6875 
C 38.40625 12.09375 38.296875 12.390625 37.59375 12.390625 
C 36.90625 12.390625 36.796875 12.296875 36.40625 10.984375 
C 33.796875 2.8125 28.09375 0.796875 23.796875 0.796875 
C 17.40625 0.796875 9.703125 6.671875 9.703125 21.390625 
C 9.703125 36.53125 17.09375 42 23 42 
C 26.90625 42 32.703125 40.203125 34.90625 35 
z
" id="CMR17-99"/>
     </defs>
     <g transform="translate(73.928598 268.911835)rotate(-359)scale(0.12 -0.12)">
      <use transform="scale(0.996264)" xlink:href="#CMR17-100"/>
      <use transform="translate(50.89537 0)scale(0.996264)" xlink:href="#CMR17-105"/>
      <use transform="translate(75.766428 0)scale(0.996264)" xlink:href="#CMR17-11"/>
      <use transform="translate(128.111106 0)scale(0.996264)" xlink:href="#CMR17-101"/>
      <use transform="translate(168.596766 0)scale(0.996264)" xlink:href="#CMR17-114"/>
      <use transform="translate(203.877534 0)scale(0.996264)" xlink:href="#CMR17-101"/>
      <use transform="translate(244.363194 0)scale(0.996264)" xlink:href="#CMR17-110"/>
      <use transform="translate(295.258564 0)scale(0.996264)" xlink:href="#CMR17-99"/>
      <use transform="translate(335.744225 0)scale(0.996264)" xlink:href="#CMR17-101"/>
      <use transform="translate(376.229885 0)scale(0.996264)" xlink:href="#CMR17-115"/>
     </g>
    </g>
   </g>
   <g id="line2d_15">
    <path clip-path="url(#p9fbe0edc96)" d="M 144 295.869767 
L 166.068206 295.869767 
L 166.180526 225.544186 
L 182.969691 225.544186 
L 183.082011 295.869767 
L 215.221577 295.869767 
L 215.333897 225.544186 
L 239.129691 225.544186 
L 239.242011 295.869767 
L 260.074697 295.869767 
L 260.187017 225.544186 
L 295.428754 225.544186 
L 295.541074 295.869767 
L 317.79648 295.869767 
L 317.9088 225.544186 
L 346.282971 225.544186 
L 346.395291 295.869767 
L 377.320731 295.869767 
L 377.433051 225.544186 
L 391.045166 225.544186 
L 391.157486 295.869767 
L 429.094903 295.869767 
L 429.207223 225.544186 
L 440.054126 225.544186 
L 440.166446 295.869767 
L 456.73632 295.869767 
L 456.84864 225.544186 
L 481.863909 225.544186 
L 481.976229 295.869767 
L 500.471589 295.869767 
L 500.583909 225.544186 
L 511.971017 225.544186 
L 512.083337 295.869767 
L 518.394651 295.869767 
L 518.394651 295.869767 
" style="fill:none;stroke:#2ca02c;stroke-linecap:square;stroke-width:1.5;"/>
   </g>
   <g id="patch_14">
    <path d="M 144 299.386047 
L 144 222.027907 
" style="fill:none;stroke:#000000;stroke-linecap:square;stroke-linejoin:miter;stroke-width:0.8;"/>
   </g>
   <g id="patch_15">
    <path d="M 518.4 299.386047 
L 518.4 222.027907 
" style="fill:none;stroke:#000000;stroke-linecap:square;stroke-linejoin:miter;stroke-width:0.8;"/>
   </g>
   <g id="patch_16">
    <path d="M 144 299.386047 
L 518.4 299.386047 
" style="fill:none;stroke:#000000;stroke-linecap:square;stroke-linejoin:miter;stroke-width:0.8;"/>
   </g>
   <g id="patch_17">
    <path d="M 144 222.027907 
L 518.4 222.027907 
" style="fill:none;stroke:#000000;stroke-linecap:square;stroke-linejoin:miter;stroke-width:0.8;"/>
   </g>
  </g>
  <g id="axes_4">
   <g id="patch_18">
    <path d="M 144 384.48 
L 518.4 384.48 
L 518.4 307.12186 
L 144 307.12186 
z
" style="fill:#ffffff;"/>
   </g>
   <g id="matplotlib.axis_4">
    <g id="xtick_1">
     <g id="line2d_16">
      <defs>
       <path d="M 0 0 
L 0 3.5 
" id="ma3843d7896" style="stroke:#000000;stroke-width:0.8;"/>
      </defs>
      <g>
       <use style="stroke:#000000;stroke-width:0.8;" x="144" xlink:href="#ma3843d7896" y="384.48"/>
      </g>
     </g>
     <g id="text_13">
      <!-- $0$ -->
      <g transform="translate(141.073505 399.78218)scale(0.12 -0.12)">
       <use transform="scale(0.996264)" xlink:href="#CMR17-48"/>
      </g>
     </g>
    </g>
    <g id="xtick_2">
     <g id="line2d_17">
      <g>
       <use style="stroke:#000000;stroke-width:0.8;" x="197.485714" xlink:href="#ma3843d7896" y="384.48"/>
      </g>
     </g>
     <g id="text_14">
      <!-- $1$ -->
      <g transform="translate(194.559219 399.78218)scale(0.12 -0.12)">
       <use transform="scale(0.996264)" xlink:href="#CMR17-49"/>
      </g>
     </g>
    </g>
    <g id="xtick_3">
     <g id="line2d_18">
      <g>
       <use style="stroke:#000000;stroke-width:0.8;" x="250.971429" xlink:href="#ma3843d7896" y="384.48"/>
      </g>
     </g>
     <g id="text_15">
      <!-- $2$ -->
      <g transform="translate(248.044933 399.78218)scale(0.12 -0.12)">
       <use transform="scale(0.996264)" xlink:href="#CMR17-50"/>
      </g>
     </g>
    </g>
    <g id="xtick_4">
     <g id="line2d_19">
      <g>
       <use style="stroke:#000000;stroke-width:0.8;" x="304.457143" xlink:href="#ma3843d7896" y="384.48"/>
      </g>
     </g>
     <g id="text_16">
      <!-- $3$ -->
      <defs>
       <path d="M 22.09375 33.703125 
C 31 33.703125 34.90625 25.96875 34.90625 17.03125 
C 34.90625 5 28.5 0.390625 22.703125 0.390625 
C 17.40625 0.390625 8.796875 3.03125 6.09375 10.828125 
C 6.59375 10.625 7.09375 10.625 7.59375 10.625 
C 10 10.625 11.796875 12.21875 11.796875 14.8125 
C 11.796875 17.703125 9.59375 19 7.59375 19 
C 5.90625 19 3.296875 18.203125 3.296875 14.46875 
C 3.296875 5.234375 12.296875 -2 22.90625 -2 
C 34 -2 42.5 6.71875 42.5 16.953125 
C 42.5 26.671875 34.5 33.703125 25 34.796875 
C 32.59375 36.375 39.90625 43.0625 39.90625 52.015625 
C 39.90625 59.6875 32 65.296875 23 65.296875 
C 13.90625 65.296875 5.90625 59.828125 5.90625 52.015625 
C 5.90625 48.59375 8.5 48 9.796875 48 
C 11.90625 48 13.703125 49.296875 13.703125 51.890625 
C 13.703125 54.46875 11.90625 55.765625 9.796875 55.765625 
C 9.40625 55.765625 8.90625 55.765625 8.5 55.578125 
C 11.40625 61.859375 19.296875 63 22.796875 63 
C 26.296875 63 32.90625 61.328125 32.90625 51.875 
C 32.90625 49.109375 32.5 44.1875 29.09375 39.84375 
C 26.09375 36 22.703125 36 19.40625 35.6875 
C 18.90625 35.6875 16.59375 35.453125 16.203125 35.453125 
C 15.5 35.359375 15.09375 35.265625 15.09375 34.5 
C 15.09375 33.796875 15.203125 33.703125 17.203125 33.703125 
z
" id="CMR17-51"/>
      </defs>
      <g transform="translate(301.530648 399.78218)scale(0.12 -0.12)">
       <use transform="scale(0.996264)" xlink:href="#CMR17-51"/>
      </g>
     </g>
    </g>
    <g id="xtick_5">
     <g id="line2d_20">
      <g>
       <use style="stroke:#000000;stroke-width:0.8;" x="357.942857" xlink:href="#ma3843d7896" y="384.48"/>
      </g>
     </g>
     <g id="text_17">
      <!-- $4$ -->
      <defs>
       <path d="M 33.59375 64.40625 
C 33.59375 66.5 33.5 66.5 31.703125 66.5 
L 2 19.59375 
L 2 17 
L 27.796875 17 
L 27.796875 7.140625 
C 27.796875 3.5 27.59375 2.5 20.59375 2.5 
L 18.703125 2.5 
L 18.703125 0 
C 21.90625 0 27.296875 0 30.703125 0 
C 34.09375 0 39.5 0 42.703125 0 
L 42.703125 2.5 
L 40.796875 2.5 
C 33.796875 2.5 33.59375 3.5 33.59375 7.140625 
L 33.59375 17 
L 43.796875 17 
L 43.796875 19.59375 
L 33.59375 19.59375 
z
M 28.09375 57.859375 
L 28.09375 19.59375 
L 4 19.59375 
z
" id="CMR17-52"/>
      </defs>
      <g transform="translate(355.016362 399.78218)scale(0.12 -0.12)">
       <use transform="scale(0.996264)" xlink:href="#CMR17-52"/>
      </g>
     </g>
    </g>
    <g id="xtick_6">
     <g id="line2d_21">
      <g>
       <use style="stroke:#000000;stroke-width:0.8;" x="411.428571" xlink:href="#ma3843d7896" y="384.48"/>
      </g>
     </g>
     <g id="text_18">
      <!-- $5$ -->
      <g transform="translate(408.502076 399.78218)scale(0.12 -0.12)">
       <use transform="scale(0.996264)" xlink:href="#CMR17-53"/>
      </g>
     </g>
    </g>
    <g id="xtick_7">
     <g id="line2d_22">
      <g>
       <use style="stroke:#000000;stroke-width:0.8;" x="464.914286" xlink:href="#ma3843d7896" y="384.48"/>
      </g>
     </g>
     <g id="text_19">
      <!-- $6$ -->
      <defs>
       <path d="M 10.59375 34 
C 10.59375 57.65625 21.796875 63 28.296875 63 
C 30.40625 63 35.5 62.640625 37.5 59 
C 35.90625 59 32.90625 59 32.90625 55.515625 
C 32.90625 52.828125 35.09375 51.921875 36.5 51.921875 
C 37.40625 51.921875 40.09375 52.3125 40.09375 55.625 
C 40.09375 61.78125 35.09375 65.296875 28.203125 65.296875 
C 16.296875 65.296875 3.796875 52.96875 3.796875 31 
C 3.796875 3.953125 15.09375 -2 23.09375 -2 
C 32.796875 -2 42 6.671875 42 20.046875 
C 42 32.515625 33.90625 41.59375 23.703125 41.59375 
C 17.59375 41.59375 13.09375 37.609375 10.59375 30.625 
z
M 23.09375 0.390625 
C 10.796875 0.390625 10.796875 18.75 10.796875 22.4375 
C 10.796875 29.625 14.203125 40 23.5 40 
C 25.203125 40 30.09375 40 33.40625 33.125 
C 35.203125 29.21875 35.203125 25.140625 35.203125 20.140625 
C 35.203125 14.75 35.203125 10.78125 33.09375 6.78125 
C 30.90625 2.671875 27.703125 0.390625 23.09375 0.390625 
z
" id="CMR17-54"/>
      </defs>
      <g transform="translate(461.987791 399.78218)scale(0.12 -0.12)">
       <use transform="scale(0.996264)" xlink:href="#CMR17-54"/>
      </g>
     </g>
    </g>
    <g id="xtick_8">
     <g id="line2d_23">
      <g>
       <use style="stroke:#000000;stroke-width:0.8;" x="518.4" xlink:href="#ma3843d7896" y="384.48"/>
      </g>
     </g>
     <g id="text_20">
      <!-- $7$ -->
      <defs>
       <path d="M 45.09375 61.578125 
L 45.09375 63.765625 
L 21.59375 63.765625 
C 9.90625 63.765625 9.703125 65.078125 9.296875 67 
L 7.5 67 
L 4.59375 48.34375 
L 6.40625 48.34375 
C 6.703125 50.234375 7.40625 55.3125 8.59375 57.203125 
C 9.203125 58 16.59375 58 18.296875 58 
L 40.296875 58 
L 29.203125 41.578125 
C 21.796875 30.53125 16.703125 15.609375 16.703125 2.578125 
C 16.703125 1.390625 16.703125 -2 20.296875 -2 
C 23.90625 -2 23.90625 1.390625 23.90625 2.671875 
L 23.90625 7.265625 
C 23.90625 23.5625 26.703125 34.3125 31.296875 41.1875 
z
" id="CMR17-55"/>
      </defs>
      <g transform="translate(515.473505 399.78218)scale(0.12 -0.12)">
       <use transform="scale(0.996264)" xlink:href="#CMR17-55"/>
      </g>
     </g>
    </g>
    <g id="text_21">
     <!-- Time (s) -->
     <defs>
      <path d="M 62.203125 67.59375 
L 4.5 67.59375 
L 2.796875 45.59375 
L 4.59375 45.59375 
C 5.90625 62.125 7.296875 65 22.703125 65 
C 24.5 65 27.40625 65 28.203125 64.90625 
C 30.09375 64.609375 30.09375 63.40625 30.09375 61.125 
L 30.09375 7.171875 
C 30.09375 3.59375 29.796875 2.5 21.5 2.5 
L 18.703125 2.5 
L 18.703125 0 
C 23.5 0 28.5 0 33.40625 0 
C 38.296875 0 43.296875 0 48.09375 0 
L 48.09375 2.5 
L 45.296875 2.5 
C 37 2.5 36.703125 3.59375 36.703125 7.171875 
L 36.703125 61.125 
C 36.703125 63.3125 36.703125 64.515625 38.5 64.90625 
C 39.296875 65 42.203125 65 44 65 
C 59.296875 65 60.796875 62.125 62.09375 45.59375 
L 63.90625 45.59375 
z
" id="CMR17-84"/>
      <path d="M 67.59375 30.203125 
C 67.59375 35.1875 66.703125 43.59375 54.796875 43.59375 
C 48 43.59375 43.296875 39 41.5 33.609375 
L 41.40625 33.609375 
C 40.203125 41.8125 34.296875 43.59375 28.703125 43.59375 
C 20.796875 43.59375 16.703125 37.5 15.203125 33.5 
L 15.09375 33.5 
L 15.09375 43.59375 
L 3.296875 42.5 
L 3.296875 39.90625 
C 9.203125 39.90625 10.09375 39.296875 10.09375 34.5 
L 10.09375 6.6875 
C 10.09375 2.875 9.703125 2.390625 3.296875 2.390625 
L 3.296875 -0.203125 
C 5.703125 0 10.09375 0 12.703125 0 
C 15.296875 0 19.796875 0 22.203125 -0.203125 
L 22.203125 2.390625 
C 15.796875 2.390625 15.40625 2.78125 15.40625 6.6875 
L 15.40625 25.90625 
C 15.40625 35.109375 21 42 28 42 
C 35.40625 42 36.203125 35.40625 36.203125 30.59375 
L 36.203125 6.6875 
C 36.203125 2.875 35.796875 2.390625 29.40625 2.390625 
L 29.40625 -0.203125 
C 31.796875 0 36.203125 0 38.796875 0 
C 41.40625 0 45.90625 0 48.296875 -0.203125 
L 48.296875 2.390625 
C 41.90625 2.390625 41.5 2.78125 41.5 6.6875 
L 41.5 25.90625 
C 41.5 35.109375 47.09375 42 54.09375 42 
C 61.5 42 62.296875 35.40625 62.296875 30.59375 
L 62.296875 6.6875 
C 62.296875 2.875 61.90625 2.390625 55.5 2.390625 
L 55.5 -0.203125 
C 57.90625 0 62.296875 0 64.90625 0 
C 67.5 0 72 0 74.40625 -0.203125 
L 74.40625 2.390625 
C 68 2.390625 67.59375 2.78125 67.59375 6.6875 
z
" id="CMR17-109"/>
     </defs>
     <g transform="translate(309.056187 415.073152)scale(0.12 -0.12)">
      <use transform="scale(0.996264)" xlink:href="#CMR17-84"/>
      <use transform="translate(66.509881 0)scale(0.996264)" xlink:href="#CMR17-105"/>
      <use transform="translate(91.380939 0)scale(0.996264)" xlink:href="#CMR17-109"/>
      <use transform="translate(168.300529 0)scale(0.996264)" xlink:href="#CMR17-101"/>
      <use transform="translate(238.862156 0)scale(0.996264)" xlink:href="#CMR17-40"/>
      <use transform="translate(274.142924 0)scale(0.996264)" xlink:href="#CMR17-115"/>
      <use transform="translate(309.944261 0)scale(0.996264)" xlink:href="#CMR17-41"/>
     </g>
    </g>
   </g>
   <g id="matplotlib.axis_5">
    <g id="ytick_8">
     <g id="line2d_24">
      <g>
       <use style="stroke:#000000;stroke-width:0.8;" x="144" xlink:href="#m1a7cb715c5" y="384.48"/>
      </g>
     </g>
     <g id="text_22">
      <!-- $0.0$ -->
      <defs>
       <path d="M 18.40625 4.796875 
C 18.40625 7.6875 16 9.671875 13.59375 9.671875 
C 10.703125 9.671875 8.703125 7.28125 8.703125 4.890625 
C 8.703125 2 11.09375 0 13.5 0 
C 16.40625 0 18.40625 2.390625 18.40625 4.796875 
z
" id="CMMI12-58"/>
      </defs>
      <g transform="translate(122.042358 388.63109)scale(0.12 -0.12)">
       <use transform="scale(0.996264)" xlink:href="#CMR17-48"/>
       <use transform="translate(45.690477 0)scale(0.996264)" xlink:href="#CMMI12-58"/>
       <use transform="translate(72.787654 0)scale(0.996264)" xlink:href="#CMR17-48"/>
      </g>
     </g>
    </g>
    <g id="ytick_9">
     <g id="line2d_25">
      <g>
       <use style="stroke:#000000;stroke-width:0.8;" x="144" xlink:href="#m1a7cb715c5" y="345.80093"/>
      </g>
     </g>
     <g id="text_23">
      <!-- $0.5$ -->
      <g transform="translate(122.042358 349.95202)scale(0.12 -0.12)">
       <use transform="scale(0.996264)" xlink:href="#CMR17-48"/>
       <use transform="translate(45.690477 0)scale(0.996264)" xlink:href="#CMMI12-58"/>
       <use transform="translate(72.787654 0)scale(0.996264)" xlink:href="#CMR17-53"/>
      </g>
     </g>
    </g>
    <g id="ytick_10">
     <g id="line2d_26">
      <g>
       <use style="stroke:#000000;stroke-width:0.8;" x="144" xlink:href="#m1a7cb715c5" y="307.12186"/>
      </g>
     </g>
     <g id="text_24">
      <!-- $1.0$ -->
      <g transform="translate(122.042358 311.27295)scale(0.12 -0.12)">
       <use transform="scale(0.996264)" xlink:href="#CMR17-49"/>
       <use transform="translate(45.690477 0)scale(0.996264)" xlink:href="#CMMI12-58"/>
       <use transform="translate(72.787654 0)scale(0.996264)" xlink:href="#CMR17-48"/>
      </g>
     </g>
    </g>
    <g id="text_25">
     <!-- Spike Times -->
     <defs>
      <path d="M 26.09375 26.140625 
C 26 26.34375 25.5 26.9375 25.5 27.234375 
C 25.5 27.4375 32.59375 33.921875 33.5 34.71875 
C 39.203125 39.5 42.796875 40 45.40625 40 
L 45.40625 42.703125 
C 44.796875 42.703125 44.59375 42.703125 44.5 42.5 
L 39.59375 42.5 
C 36.796875 42.5 32.5 42.5 29.796875 42.703125 
L 29.796875 40.09375 
C 31.203125 39.984375 32.203125 39.1875 32.203125 37.796875 
C 32.203125 35.796875 30.203125 33.90625 30.09375 33.90625 
L 15 20.140625 
L 15 68.6875 
L 3.09375 67.59375 
L 3.09375 65 
C 9 65 9.90625 64.40625 9.90625 59.640625 
L 9.90625 6.65625 
C 9.90625 2.875 9.5 2.390625 3.09375 2.390625 
L 3.09375 -0.203125 
C 5.5 0 9.90625 0 12.40625 0 
C 14.90625 0 19.296875 0 21.703125 -0.203125 
L 21.703125 2.390625 
C 15.296875 2.390625 14.90625 2.78125 14.90625 6.6875 
L 14.90625 17.65625 
L 21.796875 23.9375 
L 31.90625 8.96875 
C 33.09375 7.171875 34.09375 5.765625 34.09375 4.46875 
C 34.09375 2.6875 32.296875 2.390625 31.09375 2.390625 
L 31.09375 -0.203125 
C 33.5 0 37.796875 0 40.296875 0 
C 42.09375 0 45.796875 0 47.5 0 
L 47.5 2.390625 
C 42.796875 2.390625 41.703125 3.28125 38.703125 7.671875 
z
" id="CMR17-107"/>
     </defs>
     <g transform="translate(55.502786 347.698545)rotate(-359)scale(0.12 -0.12)">
      <use transform="scale(0.996264)" xlink:href="#CMR17-83"/>
      <use transform="translate(50.89537 0)scale(0.996264)" xlink:href="#CMR17-112"/>
      <use transform="translate(101.79074 0)scale(0.996264)" xlink:href="#CMR17-105"/>
      <use transform="translate(126.661798 0)scale(0.996264)" xlink:href="#CMR17-107"/>
      <use transform="translate(172.35226 0)scale(0.996264)" xlink:href="#CMR17-101"/>
      <use transform="translate(242.913887 0)scale(0.996264)" xlink:href="#CMR17-84"/>
      <use transform="translate(309.423767 0)scale(0.996264)" xlink:href="#CMR17-105"/>
      <use transform="translate(334.294826 0)scale(0.996264)" xlink:href="#CMR17-109"/>
      <use transform="translate(411.214416 0)scale(0.996264)" xlink:href="#CMR17-101"/>
      <use transform="translate(451.700076 0)scale(0.996264)" xlink:href="#CMR17-115"/>
     </g>
    </g>
   </g>
   <g id="line2d_27">
    <path clip-path="url(#pa5c9335a58)" d="M 182.97504 384.48 
L 182.97504 307.12186 
" style="fill:none;stroke:#1f77b4;stroke-dasharray:5.55,2.4;stroke-dashoffset:0;stroke-width:1.5;"/>
   </g>
   <g id="line2d_28">
    <path clip-path="url(#pa5c9335a58)" d="M 239.13504 384.48 
L 239.13504 307.12186 
" style="fill:none;stroke:#1f77b4;stroke-dasharray:5.55,2.4;stroke-dashoffset:0;stroke-width:1.5;"/>
   </g>
   <g id="line2d_29">
    <path clip-path="url(#pa5c9335a58)" d="M 295.434103 384.48 
L 295.434103 307.12186 
" style="fill:none;stroke:#1f77b4;stroke-dasharray:5.55,2.4;stroke-dashoffset:0;stroke-width:1.5;"/>
   </g>
   <g id="line2d_30">
    <path clip-path="url(#pa5c9335a58)" d="M 346.28832 384.48 
L 346.28832 307.12186 
" style="fill:none;stroke:#1f77b4;stroke-dasharray:5.55,2.4;stroke-dashoffset:0;stroke-width:1.5;"/>
   </g>
   <g id="line2d_31">
    <path clip-path="url(#pa5c9335a58)" d="M 391.050514 384.48 
L 391.050514 307.12186 
" style="fill:none;stroke:#1f77b4;stroke-dasharray:5.55,2.4;stroke-dashoffset:0;stroke-width:1.5;"/>
   </g>
   <g id="line2d_32">
    <path clip-path="url(#pa5c9335a58)" d="M 440.059474 384.48 
L 440.059474 307.12186 
" style="fill:none;stroke:#1f77b4;stroke-dasharray:5.55,2.4;stroke-dashoffset:0;stroke-width:1.5;"/>
   </g>
   <g id="line2d_33">
    <path clip-path="url(#pa5c9335a58)" d="M 481.869257 384.48 
L 481.869257 307.12186 
" style="fill:none;stroke:#1f77b4;stroke-dasharray:5.55,2.4;stroke-dashoffset:0;stroke-width:1.5;"/>
   </g>
   <g id="line2d_34">
    <path clip-path="url(#pa5c9335a58)" d="M 511.976366 384.48 
L 511.976366 307.12186 
" style="fill:none;stroke:#1f77b4;stroke-dasharray:5.55,2.4;stroke-dashoffset:0;stroke-width:1.5;"/>
   </g>
   <g id="line2d_35">
    <path clip-path="url(#pa5c9335a58)" d="M 166.073554 384.48 
L 166.073554 307.12186 
" style="fill:none;stroke:#ff7f0e;stroke-dasharray:5.55,2.4;stroke-dashoffset:0;stroke-width:1.5;"/>
   </g>
   <g id="line2d_36">
    <path clip-path="url(#pa5c9335a58)" d="M 215.226926 384.48 
L 215.226926 307.12186 
" style="fill:none;stroke:#ff7f0e;stroke-dasharray:5.55,2.4;stroke-dashoffset:0;stroke-width:1.5;"/>
   </g>
   <g id="line2d_37">
    <path clip-path="url(#pa5c9335a58)" d="M 260.080046 384.48 
L 260.080046 307.12186 
" style="fill:none;stroke:#ff7f0e;stroke-dasharray:5.55,2.4;stroke-dashoffset:0;stroke-width:1.5;"/>
   </g>
   <g id="line2d_38">
    <path clip-path="url(#pa5c9335a58)" d="M 317.801829 384.48 
L 317.801829 307.12186 
" style="fill:none;stroke:#ff7f0e;stroke-dasharray:5.55,2.4;stroke-dashoffset:0;stroke-width:1.5;"/>
   </g>
   <g id="line2d_39">
    <path clip-path="url(#pa5c9335a58)" d="M 377.32608 384.48 
L 377.32608 307.12186 
" style="fill:none;stroke:#ff7f0e;stroke-dasharray:5.55,2.4;stroke-dashoffset:0;stroke-width:1.5;"/>
   </g>
   <g id="line2d_40">
    <path clip-path="url(#pa5c9335a58)" d="M 429.100251 384.48 
L 429.100251 307.12186 
" style="fill:none;stroke:#ff7f0e;stroke-dasharray:5.55,2.4;stroke-dashoffset:0;stroke-width:1.5;"/>
   </g>
   <g id="line2d_41">
    <path clip-path="url(#pa5c9335a58)" d="M 456.741669 384.48 
L 456.741669 307.12186 
" style="fill:none;stroke:#ff7f0e;stroke-dasharray:5.55,2.4;stroke-dashoffset:0;stroke-width:1.5;"/>
   </g>
   <g id="line2d_42">
    <path clip-path="url(#pa5c9335a58)" d="M 500.476937 384.48 
L 500.476937 307.12186 
" style="fill:none;stroke:#ff7f0e;stroke-dasharray:5.55,2.4;stroke-dashoffset:0;stroke-width:1.5;"/>
   </g>
   <g id="patch_19">
    <path d="M 144 384.48 
L 144 307.12186 
" style="fill:none;stroke:#000000;stroke-linecap:square;stroke-linejoin:miter;stroke-width:0.8;"/>
   </g>
   <g id="patch_20">
    <path d="M 518.4 384.48 
L 518.4 307.12186 
" style="fill:none;stroke:#000000;stroke-linecap:square;stroke-linejoin:miter;stroke-width:0.8;"/>
   </g>
   <g id="patch_21">
    <path d="M 144 384.48 
L 518.4 384.48 
" style="fill:none;stroke:#000000;stroke-linecap:square;stroke-linejoin:miter;stroke-width:0.8;"/>
   </g>
   <g id="patch_22">
    <path d="M 144 307.12186 
L 518.4 307.12186 
" style="fill:none;stroke:#000000;stroke-linecap:square;stroke-linejoin:miter;stroke-width:0.8;"/>
   </g>
  </g>
 </g>
 <defs>
  <clipPath id="pf23fedbc07">
   <rect height="77.35814" width="374.4" x="144" y="51.84"/>
  </clipPath>
  <clipPath id="pc71683fccf">
   <rect height="77.35814" width="374.4" x="144" y="136.933953"/>
  </clipPath>
  <clipPath id="p9fbe0edc96">
   <rect height="77.35814" width="374.4" x="144" y="222.027907"/>
  </clipPath>
  <clipPath id="pa5c9335a58">
   <rect height="77.35814" width="374.4" x="144" y="307.12186"/>
  </clipPath>
 </defs>
</svg>
