<?xml version="1.0" encoding="utf-8" standalone="no"?>
<!DOCTYPE svg PUBLIC "-//W3C//DTD SVG 1.1//EN"
  "http://www.w3.org/Graphics/SVG/1.1/DTD/svg11.dtd">
<!-- Created with matplotlib (http://matplotlib.org/) -->
<svg height="432pt" version="1.1" viewBox="0 0 576 432" width="576pt" xmlns="http://www.w3.org/2000/svg" xmlns:xlink="http://www.w3.org/1999/xlink">
 <defs>
  <style type="text/css">
*{stroke-linecap:butt;stroke-linejoin:round;}
  </style>
 </defs>
 <g id="figure_1">
  <g id="patch_1">
   <path d="M 0 432 
L 576 432 
L 576 0 
L 0 0 
z
" style="fill:#ffffff;"/>
  </g>
  <g id="axes_1">
   <g id="patch_2">
    <path d="M 144 127.691163 
L 518.4 127.691163 
L 518.4 51.84 
L 144 51.84 
z
" style="fill:#ffffff;"/>
   </g>
   <g id="matplotlib.axis_1">
    <g id="ytick_1">
     <g id="line2d_1">
      <defs>
       <path d="M 0 0 
L -3.5 0 
" id="mfa479cc693" style="stroke:#000000;stroke-width:0.8;"/>
      </defs>
      <g>
       <use style="stroke:#000000;stroke-width:0.8;" x="144" xlink:href="#mfa479cc693" y="115.049198"/>
      </g>
     </g>
     <g id="text_1">
      <!-- $-5$ -->
      <defs>
       <path d="M 65.90625 23 
C 67.59375 23 69.40625 23 69.40625 25 
C 69.40625 27 67.59375 27 65.90625 27 
L 11.796875 27 
C 10.09375 27 8.296875 27 8.296875 25 
C 8.296875 23 10.09375 23 11.796875 23 
z
" id="CMSY10-0"/>
       <path d="M 11.40625 58.59375 
C 12.40625 58.1875 16.5 56.890625 20.703125 56.890625 
C 30 56.890625 35.09375 61.890625 38 64.6875 
C 38 65.484375 38 66 37.40625 66 
C 37.296875 66 37.09375 66 36.296875 65.59375 
C 32.796875 64.09375 28.703125 63 23.703125 63 
C 20.703125 63 16.203125 63.359375 11.296875 65.484375 
C 10.203125 66 10 66 9.90625 66 
C 9.40625 66 9.296875 65.890625 9.296875 63.90625 
L 9.296875 34.859375 
C 9.296875 33.015625 9.296875 32.5 10.296875 32.5 
C 10.796875 32.5 11 32.703125 11.5 33.421875 
C 14.703125 38.046875 19.09375 40 24.09375 40 
C 27.59375 40 35.09375 37.734375 35.09375 20.203125 
C 35.09375 16.984375 35.09375 11.1875 32.09375 6.59375 
C 29.59375 2.484375 25.703125 0.390625 21.40625 0.390625 
C 14.796875 0.390625 8.09375 4.984375 6.296875 12.6875 
C 6.703125 12.59375 7.5 12.390625 7.90625 12.390625 
C 9.203125 12.390625 11.703125 13.09375 11.703125 16.1875 
C 11.703125 18.890625 9.796875 20 7.90625 20 
C 5.59375 20 4.09375 18.59375 4.09375 15.796875 
C 4.09375 7.09375 11 -2 21.59375 -2 
C 31.90625 -2 41.703125 6.890625 41.703125 19.796875 
C 41.703125 32.09375 33.90625 41.59375 24.203125 41.59375 
C 19.09375 41.59375 14.796875 39.6875 11.40625 36 
z
" id="CMR17-53"/>
      </defs>
      <g transform="translate(121.84852 119.200288)scale(0.12 -0.12)">
       <use transform="scale(0.996264)" xlink:href="#CMSY10-0"/>
       <use transform="translate(77.487468 0)scale(0.996264)" xlink:href="#CMR17-53"/>
      </g>
     </g>
    </g>
    <g id="ytick_2">
     <g id="line2d_2">
      <g>
       <use style="stroke:#000000;stroke-width:0.8;" x="144" xlink:href="#mfa479cc693" y="79.279484"/>
      </g>
     </g>
     <g id="text_2">
      <!-- $0$ -->
      <defs>
       <path d="M 42 31.84375 
C 42 37.96875 41.90625 48.421875 37.703125 56.453125 
C 34 63.484375 28.09375 66 22.90625 66 
C 18.09375 66 12 63.78125 8.203125 56.5625 
C 4.203125 49.015625 3.796875 39.671875 3.796875 31.84375 
C 3.796875 26.109375 3.90625 17.375 7 9.734375 
C 11.296875 -0.609375 19 -2 22.90625 -2 
C 27.5 -2 34.5 -0.109375 38.59375 9.4375 
C 41.59375 16.375 42 24.5 42 31.84375 
z
M 22.90625 -0.40625 
C 16.5 -0.40625 12.703125 5.125 11.296875 12.75 
C 10.203125 18.6875 10.203125 27.328125 10.203125 32.953125 
C 10.203125 40.6875 10.203125 47.109375 11.5 53.234375 
C 13.40625 61.78125 19 64.390625 22.90625 64.390625 
C 27 64.390625 32.296875 61.671875 34.203125 53.4375 
C 35.5 47.71875 35.59375 40.984375 35.59375 32.953125 
C 35.59375 26.421875 35.59375 18.375 34.40625 12.453125 
C 32.296875 1.5 26.40625 -0.40625 22.90625 -0.40625 
z
" id="CMR17-48"/>
      </defs>
      <g transform="translate(131.14701 83.430574)scale(0.12 -0.12)">
       <use transform="scale(0.996264)" xlink:href="#CMR17-48"/>
      </g>
     </g>
    </g>
    <g id="text_3">
     <!-- Original Signal -->
     <defs>
      <path d="M 67.296875 33.84375 
C 67.296875 54.5 52.59375 70 36 70 
C 19 70 4.59375 54.296875 4.59375 33.84375 
C 4.59375 13.390625 19.203125 -2 35.90625 -2 
C 53 -2 67.296875 13.6875 67.296875 33.84375 
z
M 36 -0.203125 
C 24.59375 -0.203125 12.203125 11.28125 12.203125 35.15625 
C 12.203125 58.921875 25.796875 68.1875 35.90625 68.1875 
C 46.5 68.1875 59.703125 58.625 59.703125 35.15625 
C 59.703125 10.875 47 -0.203125 36 -0.203125 
z
" id="CMR17-79"/>
      <path d="M 15 23.703125 
C 15 33.34375 19.09375 42.390625 26.59375 42.390625 
C 27.296875 42.390625 28 42.296875 28.703125 41.984375 
C 28.703125 41.984375 26.5 41.28125 26.5 38.671875 
C 26.5 36.265625 28.40625 35.265625 29.90625 35.265625 
C 31.09375 35.265625 33.296875 35.96875 33.296875 38.78125 
C 33.296875 41.984375 30.09375 44 26.703125 44 
C 19.09375 44 15.796875 36.5625 14.796875 33.046875 
L 14.703125 33.046875 
L 14.703125 44 
L 3.09375 42.890625 
L 3.09375 40.28125 
C 9 40.28125 9.90625 39.6875 9.90625 34.859375 
L 9.90625 6.921875 
C 9.90625 3.09375 9.5 2.59375 3.09375 2.59375 
L 3.09375 0 
C 5.5 0.1875 10.09375 0.1875 12.703125 0.1875 
C 15.59375 0.1875 20.703125 0.1875 23.40625 0 
L 23.40625 2.59375 
C 16.203125 2.59375 15 2.59375 15 7.109375 
z
" id="CMR17-114"/>
      <path d="M 15.5 61.890625 
C 15.5 64.09375 13.703125 66 11.40625 66 
C 9.203125 66 7.296875 64.1875 7.296875 61.890625 
C 7.296875 59.6875 9.09375 57.796875 11.40625 57.796875 
C 13.59375 57.796875 15.5 59.59375 15.5 61.890625 
z
M 3.796875 42.890625 
L 3.796875 40.296875 
C 9.40625 40.296875 10.203125 39.6875 10.203125 34.859375 
L 10.203125 6.921875 
C 10.203125 3.09375 9.796875 2.59375 3.40625 2.59375 
L 3.40625 0 
C 5.796875 0.1875 10.09375 0.1875 12.59375 0.1875 
C 15 0.1875 19.09375 0.1875 21.40625 0 
L 21.40625 2.59375 
C 15.5 2.59375 15.296875 3.203125 15.296875 6.8125 
L 15.296875 44 
z
" id="CMR17-105"/>
      <path d="M 11.09375 18.203125 
C 13 16.6875 16.296875 15 20.296875 15 
C 28.203125 15 35 21.234375 35 29.609375 
C 35 32.234375 34.203125 36.265625 31.203125 39.390625 
C 34 42.390625 38.09375 43.390625 40.40625 43.390625 
C 40.796875 43.390625 41.40625 43.390625 41.90625 43.09375 
C 41.5 42.984375 40.59375 42.59375 40.59375 40.984375 
C 40.59375 39.6875 41.5 38.796875 42.796875 38.796875 
C 44.296875 38.796875 45.09375 39.796875 45.09375 41.09375 
C 45.09375 42.984375 43.59375 45 40.40625 45 
C 36.40625 45 32.90625 43.09375 30.09375 40.484375 
C 27.09375 43.1875 23.5 44.1875 20.296875 44.1875 
C 12.40625 44.1875 5.59375 37.984375 5.59375 29.609375 
C 5.59375 23.859375 8.90625 20.21875 9.90625 19.21875 
C 6.90625 15.6875 6.90625 11.59375 6.90625 11.09375 
C 6.90625 8.5 7.90625 4.6875 11.296875 2.59375 
C 6.09375 1.28125 2 -2.875 2 -8.078125 
C 2 -15.5625 11.5 -21 22.90625 -21 
C 33.90625 -21 43.796875 -15.765625 43.796875 -7.96875 
C 43.796875 6 29 6 21.296875 6 
C 19 6 14.90625 6 14.40625 6.09375 
C 11.296875 6.59375 9.203125 9.390625 9.203125 12.890625 
C 9.203125 13.796875 9.203125 16 11.09375 18.203125 
z
M 20.296875 16.6875 
C 11.5 16.6875 11.5 27.59375 11.5 29.609375 
C 11.5 31.625 11.5 42.484375 20.296875 42.484375 
C 29.09375 42.484375 29.09375 31.625 29.09375 29.609375 
C 29.09375 27.59375 29.09375 16.6875 20.296875 16.6875 
z
M 22.90625 -19.3125 
C 12.90625 -19.3125 6 -13.796875 6 -8.078125 
C 6 -4.859375 7.703125 -1.84375 9.90625 -0.171875 
C 12.40625 1.59375 13.40625 1.59375 20.203125 1.59375 
C 28.40625 1.59375 39.796875 1.59375 39.796875 -8.078125 
C 39.796875 -13.796875 32.90625 -19.3125 22.90625 -19.3125 
z
" id="CMR17-103"/>
      <path d="M 41.5 30.53125 
C 41.5 35.65625 40.5 44 28.703125 44 
C 20.796875 44 16.703125 37.875 15.203125 33.84375 
L 15.09375 33.84375 
L 15.09375 44 
L 3.296875 42.890625 
L 3.296875 40.28125 
C 9.203125 40.28125 10.09375 39.6875 10.09375 34.859375 
L 10.09375 6.921875 
C 10.09375 3.09375 9.703125 2.59375 3.296875 2.59375 
L 3.296875 0 
C 5.703125 0.1875 10.09375 0.1875 12.703125 0.1875 
C 15.296875 0.1875 19.796875 0.1875 22.203125 0 
L 22.203125 2.59375 
C 15.796875 2.59375 15.40625 3 15.40625 6.921875 
L 15.40625 26.21875 
C 15.40625 35.453125 21 42.390625 28 42.390625 
C 35.40625 42.390625 36.203125 35.765625 36.203125 30.9375 
L 36.203125 6.921875 
C 36.203125 3.09375 35.796875 2.59375 29.40625 2.59375 
L 29.40625 0 
C 31.796875 0.1875 36.203125 0.1875 38.796875 0.1875 
C 41.40625 0.1875 45.90625 0.1875 48.296875 0 
L 48.296875 2.59375 
C 41.90625 2.59375 41.5 3 41.5 6.921875 
z
" id="CMR17-110"/>
      <path d="M 36 25.875 
C 36 32 36 35.546875 31.796875 39.59375 
C 28.09375 42.984375 23.796875 44 20.40625 44 
C 12.5 44 6.796875 37.625 6.796875 30.890625 
C 6.796875 27.1875 9.796875 27 10.40625 27 
C 11.703125 27 14 27.796875 14 30.59375 
C 14 33.09375 12.09375 34.1875 10.40625 34.1875 
C 10 34.1875 9.5 34.09375 9.203125 34 
C 11.296875 40.53125 16.703125 42.390625 20.203125 42.390625 
C 25.203125 42.390625 30.703125 37.828125 30.703125 29.296875 
L 30.703125 25.5 
C 24.796875 25.296875 17.703125 24.5 12.09375 21.453125 
C 5.796875 17.921875 4 12.84375 4 9 
C 4 1.203125 13 -1 18.296875 -1 
C 23.796875 -1 28.90625 2.109375 31.09375 7.890625 
C 31.296875 3.421875 34.09375 -0.609375 38.5 -0.609375 
C 40.59375 -0.609375 45.90625 0.796875 45.90625 8.796875 
L 45.90625 14.46875 
L 44.09375 14.46875 
L 44.09375 8.703125 
C 44.09375 2.515625 41.40625 1.703125 40.09375 1.703125 
C 36 1.703125 36 6.96875 36 11.4375 
z
M 30.703125 13.859375 
C 30.703125 5.046875 24.5 0.59375 19 0.59375 
C 14 0.59375 10.09375 4.34375 10.09375 9 
C 10.09375 12.046875 11.40625 17.40625 17.203125 20.65625 
C 22 23.390625 27.5 23.796875 30.703125 24 
z
" id="CMR17-97"/>
      <path d="M 15.296875 69 
L 3.40625 67.890625 
L 3.40625 65.296875 
C 9.296875 65.296875 10.203125 64.703125 10.203125 59.921875 
L 10.203125 6.859375 
C 10.203125 3.09375 9.796875 2.59375 3.40625 2.59375 
L 3.40625 0 
C 5.796875 0.1875 10.203125 0.1875 12.703125 0.1875 
C 15.296875 0.1875 19.703125 0.1875 22.09375 0 
L 22.09375 2.59375 
C 15.703125 2.59375 15.296875 2.984375 15.296875 6.859375 
z
" id="CMR17-108"/>
      <path d="M 43.796875 67.984375 
C 43.796875 69.796875 43.703125 69.890625 43.09375 69.890625 
C 42.5 69.890625 42.296875 69.484375 41.90625 68.59375 
L 38.90625 61.953125 
C 35.09375 67.5 29.296875 70 23 70 
C 12.796875 70 4.59375 61.84375 4.59375 51.578125 
C 4.59375 48.453125 5.296875 44.015625 8.703125 39.78125 
C 12.40625 35.15625 15.90625 34.34375 23.90625 32.234375 
C 26.90625 31.421875 31.90625 30.109375 32.90625 29.703125 
C 38.59375 27.296875 41.59375 21.25 41.59375 15.609375 
C 41.59375 8.34375 36.5 0.59375 27.796875 0.59375 
C 17.09375 0.59375 7.09375 6.640625 6.40625 20.75 
C 6.296875 22.359375 6.203125 22.453125 5.5 22.453125 
C 4.703125 22.453125 4.59375 22.359375 4.59375 20.34375 
L 4.59375 0 
C 4.59375 -1.8125 4.703125 -1.90625 5.296875 -1.90625 
C 6 -1.90625 6.203125 -1.40625 7.59375 1.703125 
C 7.703125 2 7.703125 2.203125 9.59375 6.03125 
C 14.59375 -0.609375 23 -2 27.796875 -2 
C 38.703125 -2 46.40625 7.140625 46.40625 17.828125 
C 46.40625 23.0625 44.5 27.09375 43.40625 28.90625 
C 39.203125 35.359375 34.703125 36.5625 29.90625 37.765625 
C 29.203125 38.078125 29 38.078125 23.40625 39.484375 
C 18 40.890625 15.703125 41.59375 13.203125 44.3125 
C 10.40625 47.4375 9.40625 50.671875 9.40625 53.890625 
C 9.40625 60.4375 14.59375 67.59375 23.09375 67.59375 
C 33.703125 67.59375 40.296875 60.03125 41.796875 47.4375 
C 42.09375 45.625 42.203125 45.53125 42.90625 45.53125 
C 43.796875 45.53125 43.796875 45.828125 43.796875 47.546875 
z
" id="CMR17-83"/>
     </defs>
     <g transform="translate(41.068841 91.414634)rotate(-359)scale(0.12 -0.12)">
      <use transform="scale(0.996264)" xlink:href="#CMR17-79"/>
      <use transform="translate(71.714788 0)scale(0.996264)" xlink:href="#CMR17-114"/>
      <use transform="translate(106.995556 0)scale(0.996264)" xlink:href="#CMR17-105"/>
      <use transform="translate(131.866615 0)scale(0.996264)" xlink:href="#CMR17-103"/>
      <use transform="translate(177.557092 0)scale(0.996264)" xlink:href="#CMR17-105"/>
      <use transform="translate(202.42815 0)scale(0.996264)" xlink:href="#CMR17-110"/>
      <use transform="translate(253.32352 0)scale(0.996264)" xlink:href="#CMR17-97"/>
      <use transform="translate(299.013997 0)scale(0.996264)" xlink:href="#CMR17-108"/>
      <use transform="translate(353.961022 0)scale(0.996264)" xlink:href="#CMR17-83"/>
      <use transform="translate(404.856392 0)scale(0.996264)" xlink:href="#CMR17-105"/>
      <use transform="translate(429.72745 0)scale(0.996264)" xlink:href="#CMR17-103"/>
      <use transform="translate(475.417927 0)scale(0.996264)" xlink:href="#CMR17-110"/>
      <use transform="translate(526.313297 0)scale(0.996264)" xlink:href="#CMR17-97"/>
      <use transform="translate(572.003774 0)scale(0.996264)" xlink:href="#CMR17-108"/>
     </g>
    </g>
   </g>
   <g id="line2d_3">
    <path clip-path="url(#pdb13453e59)" d="M 144 94.152471 
L 147.321463 89.364458 
L 149.808549 85.370187 
L 153.274423 79.308664 
L 155.772206 75.143585 
L 157.280503 73.040073 
L 158.478583 71.729331 
L 159.494811 70.931367 
L 160.388023 70.501757 
L 161.201006 70.350236 
L 161.981897 70.429658 
L 162.768137 70.736763 
L 163.597166 71.306415 
L 164.506423 72.212275 
L 165.533349 73.564918 
L 166.736777 75.539288 
L 168.250423 78.481976 
L 171.122606 84.684441 
L 173.155063 88.783663 
L 174.55104 91.120966 
L 175.706331 92.644564 
L 176.717211 93.628647 
L 177.631817 94.222678 
L 178.487589 94.522148 
L 179.327314 94.582452 
L 180.188434 94.419317 
L 181.129783 94.007268 
L 182.220891 93.273926 
L 183.61152 92.050759 
L 188.521509 87.484939 
L 189.703543 86.819044 
L 190.76256 86.470519 
L 191.762743 86.372138 
L 192.762926 86.498729 
L 193.811246 86.860588 
L 194.971886 87.504533 
L 196.357166 88.541535 
L 198.298697 90.302251 
L 202.229897 93.906595 
L 204.048411 95.23105 
L 205.845531 96.262943 
L 208.118674 97.291127 
L 211.482926 98.819813 
L 213.231909 99.886597 
L 214.959497 101.208813 
L 217.08288 103.137743 
L 220.393646 106.150291 
L 221.688 107.009559 
L 222.725623 107.442844 
L 223.624183 107.58399 
L 224.447863 107.491212 
L 225.250149 107.174407 
L 226.06848 106.604201 
L 226.9296 105.722442 
L 227.8656 104.430201 
L 228.897874 102.607284 
L 230.063863 100.075214 
L 231.433097 96.541339 
L 233.198126 91.320001 
L 238.466469 75.315899 
L 239.819657 72.127844 
L 240.948206 70.004653 
L 241.926994 68.609059 
L 242.793463 67.740619 
L 243.569006 67.262545 
L 244.285714 67.07189 
L 244.986377 67.114489 
L 245.708434 67.387348 
L 246.489326 67.930839 
L 247.366491 68.826816 
L 248.377371 70.195039 
L 249.575451 72.211873 
L 251.067703 75.188052 
L 253.142949 79.870268 
L 263.717074 104.424829 
L 268.8624 115.717969 
L 270.723703 119.26854 
L 272.103634 121.451952 
L 273.221486 122.829787 
L 274.162834 123.657675 
L 274.981166 124.094954 
L 275.71392 124.242022 
L 276.403886 124.155164 
L 277.093851 123.839445 
L 277.815909 123.256181 
L 278.602149 122.32189 
L 279.473966 120.921194 
L 280.447406 118.9145 
L 281.55456 116.096626 
L 282.848914 112.158579 
L 284.442789 106.548504 
L 286.913829 96.912917 
L 289.887634 85.53339 
L 291.5136 80.17776 
L 292.845394 76.516483 
L 294.000686 73.959006 
L 295.022263 72.209064 
L 295.942217 71.050834 
L 296.781943 70.333714 
L 297.562834 69.947086 
L 298.316983 69.815873 
L 299.087177 69.909722 
L 299.910857 70.241251 
L 300.83616 70.863987 
L 301.92192 71.876643 
L 303.26976 73.45717 
L 305.14176 76.027858 
L 311.597486 85.552601 
L 315.314743 91.19327 
L 317.876709 95.511752 
L 321.722331 102.529408 
L 323.995474 106.418101 
L 325.477029 108.534475 
L 326.664411 109.863421 
L 327.669943 110.672656 
L 328.557806 111.114092 
L 329.370789 111.276299 
L 330.146331 111.206376 
L 330.932571 110.90804 
L 331.7616 110.347465 
L 332.670857 109.452632 
L 333.697783 108.115499 
L 334.90656 106.15638 
L 336.4416 103.213465 
L 342.09504 91.940924 
L 343.314514 90.221991 
L 344.368183 89.102344 
L 345.309531 88.412298 
L 346.181349 88.040259 
L 347.021074 87.920552 
L 347.871497 88.02594 
L 348.780754 88.368993 
L 349.813029 89.007362 
L 351.075291 90.066728 
L 353.011474 92.024828 
L 355.530651 94.510331 
L 356.889189 95.53836 
L 358.033783 96.13579 
L 359.071406 96.432572 
L 360.06624 96.487564 
L 361.066423 96.318972 
L 362.130789 95.909049 
L 363.328869 95.19972 
L 364.789029 94.060717 
L 367.046126 91.97582 
L 370.110857 89.201928 
L 371.956114 87.841422 
L 373.758583 86.789735 
L 376.004983 85.755989 
L 379.486903 84.157333 
L 381.230537 83.079735 
L 382.947429 81.748962 
L 385.033371 79.827908 
L 388.509943 76.604785 
L 389.7936 75.741767 
L 390.825874 75.303664 
L 391.719086 75.157821 
L 392.542766 75.245873 
L 393.345051 75.558659 
L 394.158034 76.120402 
L 395.019154 76.995879 
L 395.955154 78.280191 
L 396.987429 80.092143 
L 398.158766 82.620387 
L 399.538697 86.159208 
L 401.32512 91.402678 
L 406.336731 106.470618 
L 407.705966 109.702811 
L 408.845211 111.854511 
L 409.829349 113.265162 
L 410.695817 114.140094 
L 411.47136 114.623649 
L 412.188069 114.81828 
L 412.883383 114.779051 
L 413.600091 114.510678 
L 414.375634 113.971844 
L 415.242103 113.085303 
L 416.242286 111.725383 
L 417.42432 109.7198 
L 418.879131 106.785494 
L 420.858103 102.249703 
L 435.342034 67.859307 
L 437.850514 62.465794 
L 439.471131 59.476136 
L 440.733394 57.584932 
L 441.776366 56.398352 
L 442.664229 55.705122 
L 443.44512 55.364844 
L 444.15648 55.291973 
L 444.841097 55.44716 
L 445.536411 55.83955 
L 446.279863 56.526927 
L 447.092846 57.597926 
L 447.996754 59.175877 
L 449.018331 61.43104 
L 450.189669 64.584105 
L 451.585646 69.018019 
L 453.414857 75.632495 
L 458.651109 95.016999 
L 460.10592 99.323584 
L 461.336091 102.30541 
L 462.411154 104.358508 
L 463.368549 105.733568 
L 464.235017 106.608543 
L 465.031954 107.110454 
L 465.786103 107.329434 
L 466.534903 107.315005 
L 467.315794 107.072604 
L 468.176914 106.562908 
L 469.1664 105.705106 
L 470.348434 104.369652 
L 471.86208 102.300552 
L 474.156617 98.740839 
L 483.778697 83.081935 
L 486.415543 78.208066 
L 492.705463 66.322671 
L 494.080046 64.352731 
L 495.213943 63.095449 
L 496.187383 62.330688 
L 497.053851 61.92016 
L 497.856137 61.780189 
L 498.63168 61.870306 
L 499.423269 62.191296 
L 500.268343 62.783541 
L 501.204343 63.724382 
L 502.274057 65.130722 
L 503.563063 67.214533 
L 505.33344 70.54252 
L 509.098834 77.716002 
L 510.46272 79.780347 
L 511.591269 81.106523 
L 512.575406 81.937224 
L 513.468617 82.411543 
L 514.308343 82.611318 
L 515.137371 82.579514 
L 515.998491 82.318473 
L 516.93984 81.791789 
L 518.030949 80.912847 
L 518.394651 80.56677 
L 518.394651 80.56677 
" style="fill:none;stroke:#1f77b4;stroke-linecap:square;stroke-width:1.5;"/>
   </g>
   <g id="patch_3">
    <path d="M 144 127.691163 
L 144 51.84 
" style="fill:none;stroke:#000000;stroke-linecap:square;stroke-linejoin:miter;stroke-width:0.8;"/>
   </g>
   <g id="patch_4">
    <path d="M 518.4 127.691163 
L 518.4 51.84 
" style="fill:none;stroke:#000000;stroke-linecap:square;stroke-linejoin:miter;stroke-width:0.8;"/>
   </g>
   <g id="patch_5">
    <path d="M 144 127.691163 
L 518.4 127.691163 
" style="fill:none;stroke:#000000;stroke-linecap:square;stroke-linejoin:miter;stroke-width:0.8;"/>
   </g>
   <g id="patch_6">
    <path d="M 144 51.84 
L 518.4 51.84 
" style="fill:none;stroke:#000000;stroke-linecap:square;stroke-linejoin:miter;stroke-width:0.8;"/>
   </g>
  </g>
  <g id="axes_2">
   <g id="patch_7">
    <path d="M 144 211.127442 
L 518.4 211.127442 
L 518.4 135.276279 
L 144 135.276279 
z
" style="fill:#ffffff;"/>
   </g>
   <g id="matplotlib.axis_2">
    <g id="ytick_3">
     <g id="line2d_4">
      <g>
       <use style="stroke:#000000;stroke-width:0.8;" x="144" xlink:href="#mfa479cc693" y="207.679718"/>
      </g>
     </g>
     <g id="text_4">
      <!-- $-2$ -->
      <defs>
       <path d="M 41.703125 15.46875 
L 39.90625 15.46875 
C 38.90625 8.390625 38.09375 7.1875 37.703125 6.59375 
C 37.203125 5.796875 30 5.796875 28.59375 5.796875 
L 9.40625 5.796875 
C 13 9.6875 20 16.765625 28.5 24.9375 
C 34.59375 30.71875 41.703125 37.5 41.703125 47.390625 
C 41.703125 59.1875 32.296875 66 21.796875 66 
C 10.796875 66 4.09375 56.296875 4.09375 47.296875 
C 4.09375 43.390625 7 42.890625 8.203125 42.890625 
C 9.203125 42.890625 12.203125 43.484375 12.203125 46.984375 
C 12.203125 50.09375 9.59375 51 8.203125 51 
C 7.59375 51 7 50.890625 6.59375 50.6875 
C 8.5 59.1875 14.296875 63.390625 20.40625 63.390625 
C 29.09375 63.390625 34.796875 56.5 34.796875 47.390625 
C 34.796875 38.703125 29.703125 31.21875 24 24.734375 
L 4.09375 2.296875 
L 4.09375 0 
L 39.296875 0 
z
" id="CMR17-50"/>
      </defs>
      <g transform="translate(121.84852 211.830808)scale(0.12 -0.12)">
       <use transform="scale(0.996264)" xlink:href="#CMSY10-0"/>
       <use transform="translate(77.487468 0)scale(0.996264)" xlink:href="#CMR17-50"/>
      </g>
     </g>
    </g>
    <g id="ytick_4">
     <g id="line2d_5">
      <g>
       <use style="stroke:#000000;stroke-width:0.8;" x="144" xlink:href="#mfa479cc693" y="173.201859"/>
      </g>
     </g>
     <g id="text_5">
      <!-- $0$ -->
      <g transform="translate(131.14701 177.352949)scale(0.12 -0.12)">
       <use transform="scale(0.996264)" xlink:href="#CMR17-48"/>
      </g>
     </g>
    </g>
    <g id="ytick_5">
     <g id="line2d_6">
      <g>
       <use style="stroke:#000000;stroke-width:0.8;" x="144" xlink:href="#mfa479cc693" y="138.724"/>
      </g>
     </g>
     <g id="text_6">
      <!-- $2$ -->
      <g transform="translate(131.14701 142.87509)scale(0.12 -0.12)">
       <use transform="scale(0.996264)" xlink:href="#CMR17-50"/>
      </g>
     </g>
    </g>
    <g id="text_7">
     <!-- Integrator outputs -->
     <defs>
      <path d="M 19.703125 60.90625 
C 19.703125 65.390625 20.90625 65.390625 28.09375 65.390625 
L 28.09375 68 
C 24.90625 67.796875 19.796875 67.796875 16.40625 67.796875 
C 13 67.796875 7.90625 67.796875 4.703125 68 
L 4.703125 65.390625 
C 11.90625 65.390625 13.09375 65.390625 13.09375 60.90625 
L 13.09375 7.078125 
C 13.09375 2.59375 11.90625 2.59375 4.703125 2.59375 
L 4.703125 0 
C 7.90625 0.1875 13 0.1875 16.40625 0.1875 
C 19.796875 0.1875 24.90625 0.1875 28.09375 0 
L 28.09375 2.59375 
C 20.90625 2.59375 19.703125 2.59375 19.703125 7.078125 
z
" id="CMR17-73"/>
      <path d="M 15.09375 40.390625 
L 29.09375 40.390625 
L 29.09375 43 
L 15.09375 43 
L 15.09375 62 
L 13.296875 62 
C 13.09375 51.4375 9.59375 42.1875 1.09375 41.984375 
L 1.09375 40.390625 
L 9.796875 40.390625 
L 9.796875 12.15625 
C 9.796875 10.234375 9.796875 -1 21.40625 -1 
C 27.296875 -1 30.703125 4.8125 30.703125 12.25 
L 30.703125 17.984375 
L 28.90625 17.984375 
L 28.90625 12.34375 
C 28.90625 5.421875 26.203125 0.796875 22 0.796875 
C 19.09375 0.796875 15.09375 2.796875 15.09375 11.953125 
z
" id="CMR17-116"/>
      <path d="M 38.09375 23.484375 
C 38.5 23.890625 38.5 24.09375 38.5 25.09375 
C 38.5 35.171875 33.09375 44 21.703125 44 
C 11.09375 44 2.703125 33.984375 2.703125 21.78125 
C 2.703125 8.65625 12.203125 -1 22.796875 -1 
C 34 -1 38.40625 9.671875 38.40625 11.796875 
C 38.40625 12.5 37.796875 12.5 37.59375 12.5 
C 36.90625 12.5 36.796875 12.296875 36.40625 11.078125 
C 34.203125 4.21875 28.703125 0.796875 23.5 0.796875 
C 19.203125 0.796875 14.90625 3.21875 12.203125 7.65625 
C 9.09375 12.796875 9.09375 18.75 9.09375 23.484375 
z
M 9.203125 25 
C 9.90625 39.234375 17.59375 42.390625 21.59375 42.390625 
C 28.40625 42.390625 33 36.0625 33.09375 25 
z
" id="CMR17-101"/>
      <path d="M 43.09375 21.1875 
C 43.09375 34 33.796875 44 22.90625 44 
C 12 44 2.703125 34 2.703125 21.1875 
C 2.703125 8.59375 12 -1 22.90625 -1 
C 33.796875 -1 43.09375 8.59375 43.09375 21.1875 
z
M 22.90625 0.796875 
C 18.203125 0.796875 14.203125 3.59375 11.90625 7.5 
C 9.40625 12 9.09375 17.59375 9.09375 22 
C 9.09375 26.1875 9.296875 31.390625 11.90625 35.890625 
C 13.90625 39.1875 17.796875 42.390625 22.90625 42.390625 
C 27.40625 42.390625 31.203125 39.890625 33.59375 36.390625 
C 36.703125 31.6875 36.703125 25.09375 36.703125 22 
C 36.703125 18.09375 36.5 12.09375 33.796875 7.296875 
C 31 2.6875 26.703125 0.796875 22.90625 0.796875 
z
" id="CMR17-111"/>
      <path d="M 29.40625 42.890625 
L 29.40625 40.296875 
C 35.296875 40.296875 36.203125 39.6875 36.203125 34.828125 
L 36.203125 16.453125 
C 36.203125 7.96875 31.703125 0.59375 24.296875 0.59375 
C 16.09375 0.59375 15.40625 5.546875 15.40625 10.796875 
L 15.40625 44 
L 3.296875 42.890625 
L 3.296875 40.296875 
C 7.296875 40.296875 10 40.296875 10.09375 36.25 
L 10.09375 16.859375 
C 10.09375 10.09375 10.09375 5.75 12.703125 2.921875 
C 14 1.609375 16.5 -1 23.703125 -1 
C 32.203125 -1 35.5 6.25 36.296875 8.375 
L 36.40625 8.375 
L 36.40625 -1 
L 48.296875 -0.203125 
L 48.296875 2.40625 
C 42.40625 2.40625 41.5 3.015625 41.5 7.859375 
L 41.5 44 
z
" id="CMR17-117"/>
      <path d="M 22 -17.40625 
C 15.59375 -17.40625 15.203125 -17 15.203125 -13.03125 
L 15.203125 5.9375 
C 18.09375 1.703125 22.296875 -1 27.59375 -1 
C 37.59375 -1 47.703125 7.859375 47.703125 21.59375 
C 47.703125 34.3125 39 44 28.703125 44 
C 22.703125 44 17.796875 40.671875 15 36.640625 
L 15 44 
L 3.09375 42.890625 
L 3.09375 40.265625 
C 9 40.265625 9.90625 39.671875 9.90625 34.8125 
L 9.90625 -13.03125 
C 9.90625 -16.890625 9.5 -17.40625 3.09375 -17.40625 
L 3.09375 -20 
C 5.5 -19.8125 9.90625 -19.8125 12.5 -19.8125 
C 15.09375 -19.8125 19.59375 -19.8125 22 -20 
z
M 15.203125 31.484375 
C 15.203125 32.90625 15.203125 35.015625 19.09375 38.765625 
C 19.59375 39.15625 23 42.1875 28 42.1875 
C 35.296875 42.1875 41.296875 33 41.296875 21.5 
C 41.296875 9.984375 34.90625 0.59375 27 0.59375 
C 23.40625 0.59375 19.5 2.3125 16.5 7.046875 
C 15.203125 9.28125 15.203125 9.875 15.203125 11.5 
z
" id="CMR17-112"/>
      <path d="M 30.90625 42 
C 30.90625 43.796875 30.796875 43.890625 30.203125 43.890625 
C 29.796875 43.890625 29.703125 43.796875 28.5 42.296875 
C 28.203125 41.890625 27.296875 40.890625 27 40.5 
C 23.796875 43.890625 19.296875 44 17.59375 44 
C 6.5 44 2.5 38.1875 2.5 32.390625 
C 2.5 23.390625 12.703125 21.296875 15.59375 20.6875 
C 21.90625 19.390625 24.09375 19 26.203125 17.1875 
C 27.5 16 29.703125 13.796875 29.703125 10.1875 
C 29.703125 6 27.296875 0.59375 18.09375 0.59375 
C 9.40625 0.59375 6.296875 7.1875 4.5 16 
C 4.203125 17.390625 4.203125 17.5 3.40625 17.5 
C 2.59375 17.5 2.5 17.390625 2.5 15.390625 
L 2.5 1 
C 2.5 -0.8125 2.59375 -0.90625 3.203125 -0.90625 
C 3.703125 -0.90625 3.796875 -0.8125 4.296875 0 
C 4.90625 0.890625 6.40625 3.296875 7 4.296875 
C 9 1.59375 12.5 -1 18.09375 -1 
C 28 -1 33.296875 4.390625 33.296875 12.1875 
C 33.296875 17.296875 30.59375 20 29.296875 21.1875 
C 26.296875 24.296875 22.796875 25 18.59375 25.796875 
C 13.09375 27 6.09375 28.390625 6.09375 34.5 
C 6.09375 37.09375 7.5 42.59375 17.59375 42.59375 
C 28.296875 42.59375 28.90625 32.59375 29.09375 29.390625 
C 29.203125 28.890625 29.703125 28.796875 30 28.796875 
C 30.90625 28.796875 30.90625 29.09375 30.90625 30.796875 
z
" id="CMR17-115"/>
     </defs>
     <g transform="translate(23.451671 174.543405)rotate(-359)scale(0.12 -0.12)">
      <use transform="scale(0.996264)" xlink:href="#CMR17-73"/>
      <use transform="translate(32.638409 0)scale(0.996264)" xlink:href="#CMR17-110"/>
      <use transform="translate(80.931325 0)scale(0.996264)" xlink:href="#CMR17-116"/>
      <use transform="translate(116.212093 0)scale(0.996264)" xlink:href="#CMR17-101"/>
      <use transform="translate(156.697753 0)scale(0.996264)" xlink:href="#CMR17-103"/>
      <use transform="translate(202.38823 0)scale(0.996264)" xlink:href="#CMR17-114"/>
      <use transform="translate(237.668998 0)scale(0.996264)" xlink:href="#CMR17-97"/>
      <use transform="translate(283.359475 0)scale(0.996264)" xlink:href="#CMR17-116"/>
      <use transform="translate(318.640243 0)scale(0.996264)" xlink:href="#CMR17-111"/>
      <use transform="translate(364.33072 0)scale(0.996264)" xlink:href="#CMR17-114"/>
      <use transform="translate(429.687454 0)scale(0.996264)" xlink:href="#CMR17-111"/>
      <use transform="translate(475.377932 0)scale(0.996264)" xlink:href="#CMR17-117"/>
      <use transform="translate(526.273301 0)scale(0.996264)" xlink:href="#CMR17-116"/>
      <use transform="translate(561.554069 0)scale(0.996264)" xlink:href="#CMR17-112"/>
      <use transform="translate(612.449439 0)scale(0.996264)" xlink:href="#CMR17-117"/>
      <use transform="translate(663.344809 0)scale(0.996264)" xlink:href="#CMR17-116"/>
      <use transform="translate(698.625576 0)scale(0.996264)" xlink:href="#CMR17-115"/>
     </g>
    </g>
   </g>
   <g id="line2d_7">
    <path clip-path="url(#pc397405f1d)" d="M 144 207.672959 
L 146.380114 204.485253 
L 148.75488 200.929419 
L 151.108251 197.000214 
L 153.488366 192.585086 
L 156.01824 187.409387 
L 159.029486 180.711349 
L 167.32512 161.94705 
L 169.673143 157.380196 
L 171.850011 153.623613 
L 174.048274 150.272246 
L 176.540709 146.888711 
L 182.969691 138.729263 
L 182.97504 207.677858 
L 183.082011 207.535147 
L 185.980937 203.476144 
L 189.125897 198.668573 
L 198.683794 183.763455 
L 201.69504 179.679389 
L 204.957669 175.637081 
L 208.910263 171.105511 
L 212.862857 166.89397 
L 215.932937 163.931598 
L 218.591177 161.669617 
L 221.286857 159.671623 
L 228.897874 154.247591 
L 230.63616 152.564801 
L 232.267474 150.672358 
L 233.882743 148.450987 
L 235.546149 145.776037 
L 237.332571 142.467824 
L 239.129691 138.724059 
L 239.13504 207.66808 
L 239.242011 207.433497 
L 241.675611 201.814915 
L 246.302126 190.419565 
L 249.623589 182.569714 
L 252.078583 177.324211 
L 254.266149 173.160587 
L 256.32 169.718579 
L 258.288274 166.844558 
L 260.187017 164.457118 
L 262.01088 162.512277 
L 263.759863 160.964505 
L 265.433966 159.773126 
L 267.049234 158.891126 
L 268.63776 158.274063 
L 270.242331 157.888316 
L 271.948526 157.709617 
L 273.943543 157.734107 
L 280.115794 157.983849 
L 281.565257 157.704839 
L 282.875657 157.227335 
L 284.132571 156.531258 
L 285.389486 155.575768 
L 286.678491 154.309158 
L 288.037029 152.652861 
L 289.502537 150.5037 
L 291.128503 147.709988 
L 293.0112 144.012588 
L 295.36992 138.858185 
L 295.428754 138.724273 
L 295.434103 207.667807 
L 295.541074 207.423788 
L 300.42432 195.992102 
L 304.007863 187.934794 
L 306.869349 182.039889 
L 309.570377 176.976014 
L 312.196526 172.516576 
L 314.694309 168.701923 
L 317.01024 165.559166 
L 319.138971 163.03435 
L 321.133989 161.004665 
L 323.070171 159.347587 
L 325.043794 157.950522 
L 327.263451 156.658725 
L 334.778194 152.533144 
L 336.580663 151.111551 
L 338.345691 149.430931 
L 340.1856 147.362748 
L 342.228754 144.718088 
L 344.774674 141.033323 
L 346.282971 138.731192 
L 346.28832 207.678671 
L 346.395291 207.513827 
L 351.802697 199.381984 
L 354.680229 195.500597 
L 357.798446 191.681643 
L 365.79456 182.083815 
L 368.725577 178.065295 
L 371.940069 173.264727 
L 375.983589 166.801739 
L 380.556617 159.080619 
L 384.204343 152.501025 
L 387.499063 146.09237 
L 391.045166 138.735259 
L 391.050514 207.679662 
L 391.157486 207.453292 
L 396.479314 196.448312 
L 398.773851 192.239964 
L 400.672594 189.204035 
L 402.368091 186.898825 
L 403.951269 185.112354 
L 405.48096 183.715217 
L 407.021349 182.606431 
L 408.66336 181.699951 
L 410.61024 180.888775 
L 417.028526 178.420008 
L 418.745417 177.383477 
L 420.387429 176.128875 
L 422.02944 174.589426 
L 423.724937 172.687933 
L 425.506011 170.34724 
L 427.388709 167.496573 
L 429.383726 164.062732 
L 431.485714 159.99155 
L 433.683977 155.238316 
L 435.99456 149.700423 
L 438.497691 143.106063 
L 440.054126 138.732003 
L 440.059474 207.67238 
L 440.166446 207.365148 
L 443.93184 196.198326 
L 448.595794 182.490354 
L 450.965211 176.225992 
L 452.938834 171.613808 
L 454.703863 168.035342 
L 456.351223 165.18309 
L 457.939749 162.866493 
L 459.522926 160.943872 
L 461.175634 159.284977 
L 463.02624 157.747221 
L 465.540069 155.972052 
L 469.899154 152.908972 
L 472.097417 151.055485 
L 474.178011 149.0066 
L 476.285349 146.613883 
L 478.483611 143.774723 
L 480.778149 140.440972 
L 481.863909 138.730412 
L 481.869257 207.677488 
L 481.976229 207.504198 
L 484.324251 203.479652 
L 486.672274 199.008153 
L 489.041691 194.009534 
L 491.534126 188.217608 
L 494.368869 181.040277 
L 498.722606 169.310199 
L 502.969371 158.092836 
L 505.702491 151.500305 
L 508.205623 146.035772 
L 510.815726 140.876016 
L 511.971017 138.725543 
L 511.976366 207.671445 
L 512.083337 207.475366 
L 518.394651 196.059114 
L 518.394651 196.059114 
" style="fill:none;stroke:#1f77b4;stroke-linecap:square;stroke-width:1.5;"/>
   </g>
   <g id="line2d_8">
    <path clip-path="url(#pc397405f1d)" d="M 144 181.814564 
L 146.380114 178.626859 
L 148.75488 175.071024 
L 151.108251 171.14182 
L 153.488366 166.726692 
L 156.01824 161.550992 
L 159.029486 154.852955 
L 166.068206 138.734069 
L 166.073554 207.678269 
L 166.180526 207.448346 
L 168.694354 202.317838 
L 170.91936 198.270507 
L 173.085531 194.787248 
L 175.401463 191.489044 
L 178.428754 187.595282 
L 183.713143 180.825049 
L 186.596023 176.707751 
L 189.933531 171.525753 
L 197.667566 159.370827 
L 200.694857 155.135596 
L 203.823771 151.145656 
L 207.524983 146.799293 
L 211.675474 142.262204 
L 214.996937 138.940006 
L 215.221577 138.728834 
L 215.226926 207.679547 
L 215.333897 207.579697 
L 218.040274 205.210748 
L 220.682469 203.194391 
L 224.23392 200.79742 
L 227.448411 198.540716 
L 229.389943 196.899333 
L 231.08544 195.173737 
L 232.706057 193.202213 
L 234.326674 190.873327 
L 236.016823 188.044595 
L 237.851383 184.524475 
L 239.948023 179.997746 
L 242.649051 173.594872 
L 250.078217 155.698066 
L 252.469029 150.685825 
L 254.624503 146.668814 
L 256.662309 143.330721 
L 258.619886 140.542222 
L 260.074697 138.729595 
L 260.080046 207.679051 
L 260.187017 207.554442 
L 262.01088 205.609601 
L 263.759863 204.061828 
L 265.433966 202.870449 
L 267.049234 201.98845 
L 268.63776 201.371387 
L 270.242331 200.985639 
L 271.948526 200.806941 
L 273.943543 200.831431 
L 280.115794 201.081173 
L 281.565257 200.802163 
L 282.875657 200.324659 
L 284.132571 199.628582 
L 285.389486 198.673091 
L 286.678491 197.406482 
L 288.037029 195.750184 
L 289.502537 193.601024 
L 291.128503 190.807312 
L 293.0112 187.109911 
L 295.36992 181.955508 
L 299.63808 171.971641 
L 303.579977 163.002798 
L 306.484251 156.943333 
L 309.201326 151.780787 
L 311.838171 147.239898 
L 314.357349 143.333156 
L 316.700023 140.098526 
L 317.79648 138.726132 
L 317.801829 207.675386 
L 317.9088 207.54659 
L 319.978697 205.23706 
L 321.941623 203.374063 
L 323.877806 201.840054 
L 325.915611 200.510935 
L 328.402697 199.168572 
L 333.467794 196.501667 
L 335.39328 195.176671 
L 337.169006 193.681653 
L 338.944731 191.88992 
L 340.832777 189.659236 
L 342.9936 186.74586 
L 345.892526 182.428961 
L 352.096869 173.109047 
L 354.958354 169.287114 
L 358.162149 165.39575 
L 365.377371 156.767755 
L 368.308389 152.801137 
L 371.453349 148.156047 
L 375.347109 141.984349 
L 377.320731 138.731091 
L 377.32608 207.677891 
L 377.433051 207.499414 
L 381.760046 200.059039 
L 385.215223 193.682487 
L 388.55808 187.032969 
L 398.458286 166.928417 
L 400.399817 163.753386 
L 402.116709 161.356778 
L 403.710583 159.502778 
L 405.245623 158.051625 
L 406.780663 156.903292 
L 408.40128 155.970055 
L 410.278629 155.154091 
L 413.589394 154.01469 
L 416.049737 153.044925 
L 417.868251 152.087183 
L 419.537006 150.954503 
L 421.173669 149.569948 
L 422.837074 147.86512 
L 424.570011 145.762568 
L 426.399223 143.184113 
L 428.335406 140.061221 
L 429.094903 138.727487 
L 429.100251 207.673597 
L 429.207223 207.480801 
L 431.298514 203.470244 
L 433.48608 198.784272 
L 435.785966 193.32007 
L 438.267703 186.833184 
L 441.16128 178.615072 
L 450.510583 151.513506 
L 452.54304 146.630526 
L 454.345509 142.85991 
L 456.014263 139.869998 
L 456.73632 138.725042 
L 456.741669 207.672606 
L 456.84864 207.510538 
L 458.431817 205.327312 
L 460.03104 203.496806 
L 461.726537 201.894515 
L 463.70016 200.344123 
L 466.99488 198.093273 
L 469.995429 195.931038 
L 472.182994 194.074471 
L 474.263589 192.01305 
L 476.376274 189.600694 
L 478.579886 186.739762 
L 480.874423 183.390114 
L 483.217097 179.572356 
L 485.56512 175.316244 
L 487.918491 170.582982 
L 490.336046 165.209907 
L 492.962194 158.812449 
L 496.230171 150.222148 
L 500.471589 138.734713 
L 500.476937 207.676157 
L 500.583909 207.390931 
L 503.883977 198.914985 
L 506.499429 192.797665 
L 508.997211 187.515997 
L 511.741029 182.246045 
L 517.009371 172.76067 
L 518.394651 170.20072 
L 518.394651 170.20072 
" style="fill:none;stroke:#ff7f0e;stroke-linecap:square;stroke-width:1.5;"/>
   </g>
   <g id="patch_8">
    <path d="M 144 211.127442 
L 144 135.276279 
" style="fill:none;stroke:#000000;stroke-linecap:square;stroke-linejoin:miter;stroke-width:0.8;"/>
   </g>
   <g id="patch_9">
    <path d="M 518.4 211.127442 
L 518.4 135.276279 
" style="fill:none;stroke:#000000;stroke-linecap:square;stroke-linejoin:miter;stroke-width:0.8;"/>
   </g>
   <g id="patch_10">
    <path d="M 144 211.127442 
L 518.4 211.127442 
" style="fill:none;stroke:#000000;stroke-linecap:square;stroke-linejoin:miter;stroke-width:0.8;"/>
   </g>
   <g id="patch_11">
    <path d="M 144 135.276279 
L 518.4 135.276279 
" style="fill:none;stroke:#000000;stroke-linecap:square;stroke-linejoin:miter;stroke-width:0.8;"/>
   </g>
   <g id="legend_1">
    <g id="patch_12">
     <path d="M 447.828182 205.127442 
L 510 205.127442 
Q 512.4 205.127442 512.4 202.727442 
L 512.4 168.017106 
Q 512.4 165.617106 510 165.617106 
L 447.828182 165.617106 
Q 445.428182 165.617106 445.428182 168.017106 
L 445.428182 202.727442 
Q 445.428182 205.127442 447.828182 205.127442 
z
" style="fill:#ffffff;opacity:0.8;stroke:#cccccc;stroke-linejoin:miter;"/>
    </g>
    <g id="line2d_9">
     <path d="M 450.228182 175.847678 
L 474.228182 175.847678 
" style="fill:none;stroke:#1f77b4;stroke-linecap:square;stroke-width:1.5;"/>
    </g>
    <g id="line2d_10"/>
    <g id="text_8">
     <!-- $y_1(t)$ -->
     <defs>
      <path d="M 26.296875 -10.515625 
C 23.59375 -14.390625 19.703125 -18 14.796875 -18 
C 13.59375 -18 8.796875 -17.796875 7.296875 -12.90625 
C 7.59375 -13.015625 8.09375 -13.015625 8.296875 -13.015625 
C 11.296875 -13.015625 13.296875 -10.40625 13.296875 -8.109375 
C 13.296875 -5.8125 11.40625 -5 9.90625 -5 
C 8.296875 -5 4.796875 -6.203125 4.796875 -11.109375 
C 4.796875 -16.40625 9.09375 -20 14.796875 -20 
C 24.796875 -20 34.90625 -10.515625 37.703125 -0.109375 
L 47.5 38.796875 
C 47.59375 39.296875 47.796875 39.890625 47.796875 40.484375 
C 47.796875 41.984375 46.59375 43 45.09375 43 
C 44.203125 43 42.09375 42.59375 41.296875 39.59375 
L 33.90625 10.265625 
C 33.40625 8.46875 33.40625 8.28125 32.59375 7.171875 
C 30.59375 4.390625 27.296875 1 22.5 1 
C 16.90625 1 16.40625 6.484375 16.40625 9.171875 
C 16.40625 14.859375 19.09375 22.546875 21.796875 29.71875 
C 22.90625 32.609375 23.5 34.015625 23.5 36.015625 
C 23.5 40.203125 20.5 44 15.59375 44 
C 6.40625 44 2.703125 29.53125 2.703125 28.71875 
C 2.703125 28.328125 3.09375 27.828125 3.796875 27.828125 
C 4.703125 27.828125 4.796875 28.234375 5.203125 29.625 
C 7.59375 38 11.40625 41.984375 15.296875 41.984375 
C 16.203125 41.984375 17.90625 41.984375 17.90625 38.703125 
C 17.90625 36.109375 16.796875 33.21875 15.296875 29.421875 
C 10.40625 16.359375 10.40625 13.0625 10.40625 10.671875 
C 10.40625 1.1875 17.203125 -1 22.203125 -1 
C 25.09375 -1 28.703125 -0.109375 32.203125 3.59375 
L 32.296875 3.484375 
C 30.796875 -2.203125 29.796875 -5.609375 26.296875 -10.515625 
z
" id="CMMI12-121"/>
      <path d="M 26.59375 63.796875 
C 26.59375 65.890625 26.5 66 25.09375 66 
C 21.203125 61.359375 15.296875 59.890625 9.703125 59.6875 
C 9.40625 59.6875 8.90625 59.6875 8.796875 59.5 
C 8.703125 59.296875 8.703125 59.09375 8.703125 57 
C 11.796875 57 17 57.59375 21 59.984375 
L 21 7.296875 
C 21 3.796875 20.796875 2.59375 12.203125 2.59375 
L 9.203125 2.59375 
L 9.203125 0 
C 14 0.09375 19 0.1875 23.796875 0.1875 
C 28.59375 0.1875 33.59375 0.09375 38.40625 0 
L 38.40625 2.59375 
L 35.40625 2.59375 
C 26.796875 2.59375 26.59375 3.6875 26.59375 7.296875 
z
" id="CMR17-49"/>
      <path d="M 30.59375 -24.40625 
C 30.59375 -24.3125 30.59375 -24.109375 30.296875 -23.8125 
C 25.703125 -19.109375 13.40625 -6.296875 13.40625 24.9375 
C 13.40625 56.171875 25.5 68.875 30.40625 73.890625 
C 30.40625 73.984375 30.59375 74.1875 30.59375 74.484375 
C 30.59375 74.796875 30.296875 75 29.90625 75 
C 28.796875 75 20.296875 67.578125 15.40625 56.5625 
C 10.40625 45.453125 9 34.65625 9 25.046875 
C 9 17.828125 9.703125 5.625 15.703125 -7.296875 
C 20.5 -17.703125 28.703125 -25 29.90625 -25 
C 30.40625 -25 30.59375 -24.8125 30.59375 -24.40625 
z
" id="CMR17-40"/>
      <path d="M 20.09375 40.09375 
L 29.296875 40.09375 
C 31.203125 40.09375 32.203125 40.09375 32.203125 41.890625 
C 32.203125 43 31.59375 43 29.59375 43 
L 20.796875 43 
L 24.5 57.25 
C 24.90625 58.625 24.90625 58.8125 24.90625 59.5 
C 24.90625 61.09375 23.59375 62 22.296875 62 
C 21.5 62 19.203125 61.6875 18.40625 58.53125 
L 14.5 43 
L 5.09375 43 
C 3.09375 43 2.203125 43 2.203125 41.09375 
C 2.203125 40.09375 2.90625 40.09375 4.796875 40.09375 
L 13.703125 40.09375 
L 7.09375 13.765625 
C 6.296875 10.265625 6 9.265625 6 7.96875 
C 6 3.28125 9.296875 -1 14.90625 -1 
C 25 -1 30.40625 13.5625 30.40625 14.265625 
C 30.40625 14.859375 30 15.15625 29.40625 15.15625 
C 29.203125 15.15625 28.796875 15.15625 28.59375 14.75 
C 28.5 14.65625 28.40625 14.5625 27.703125 12.96875 
C 25.59375 7.96875 21 1 15.203125 1 
C 12.203125 1 12 3.484375 12 5.6875 
C 12 5.78125 12 7.671875 12.296875 8.875 
z
" id="CMMI12-116"/>
      <path d="M 26.296875 24.9375 
C 26.296875 32.140625 25.59375 44.359375 19.59375 57.265625 
C 14.796875 67.6875 6.59375 75 5.40625 75 
C 5.09375 75 4.703125 74.890625 4.703125 74.390625 
C 4.703125 74.1875 4.796875 74.09375 4.90625 73.890625 
C 9.703125 68.875 21.90625 56.171875 21.90625 25.046875 
C 21.90625 -6.1875 9.796875 -18.90625 4.90625 -23.90625 
C 4.796875 -24.109375 4.703125 -24.203125 4.703125 -24.40625 
C 4.703125 -24.90625 5.09375 -25 5.40625 -25 
C 6.5 -25 15 -17.609375 19.90625 -6.59375 
C 24.90625 4.515625 26.296875 15.328125 26.296875 24.9375 
z
" id="CMR17-41"/>
     </defs>
     <g transform="translate(483.828182 180.047678)scale(0.12 -0.12)">
      <use transform="translate(0 14.943915)scale(0.996264)" xlink:href="#CMMI12-121"/>
      <use transform="translate(47.564188 0)scale(0.697382)" xlink:href="#CMR17-49"/>
      <use transform="translate(80.045502 14.943915)scale(0.996264)" xlink:href="#CMR17-40"/>
      <use transform="translate(115.32627 14.943915)scale(0.996264)" xlink:href="#CMMI12-116"/>
      <use transform="translate(150.5526 14.943915)scale(0.996264)" xlink:href="#CMR17-41"/>
     </g>
    </g>
    <g id="line2d_11">
     <path d="M 450.228182 193.802846 
L 474.228182 193.802846 
" style="fill:none;stroke:#ff7f0e;stroke-linecap:square;stroke-width:1.5;"/>
    </g>
    <g id="line2d_12"/>
    <g id="text_9">
     <!-- $y_2(t)$ -->
     <g transform="translate(483.828182 198.002846)scale(0.12 -0.12)">
      <use transform="translate(0 14.943915)scale(0.996264)" xlink:href="#CMMI12-121"/>
      <use transform="translate(47.564188 0)scale(0.697382)" xlink:href="#CMR17-50"/>
      <use transform="translate(80.045502 14.943915)scale(0.996264)" xlink:href="#CMR17-40"/>
      <use transform="translate(115.32627 14.943915)scale(0.996264)" xlink:href="#CMMI12-116"/>
      <use transform="translate(150.5526 14.943915)scale(0.996264)" xlink:href="#CMR17-41"/>
     </g>
    </g>
   </g>
  </g>
  <g id="axes_3">
   <g id="patch_13">
    <path d="M 144 294.563721 
L 518.4 294.563721 
L 518.4 218.712558 
L 144 218.712558 
z
" style="fill:#ffffff;"/>
   </g>
   <g id="matplotlib.axis_3">
    <g id="ytick_6">
     <g id="line2d_13">
      <g>
       <use style="stroke:#000000;stroke-width:0.8;" x="144" xlink:href="#mfa479cc693" y="265.25759"/>
      </g>
     </g>
     <g id="text_10">
      <!-- $0$ -->
      <g transform="translate(131.14701 269.40868)scale(0.12 -0.12)">
       <use transform="scale(0.996264)" xlink:href="#CMR17-48"/>
      </g>
     </g>
    </g>
    <g id="ytick_7">
     <g id="line2d_14">
      <g>
       <use style="stroke:#000000;stroke-width:0.8;" x="144" xlink:href="#mfa479cc693" y="230.779789"/>
      </g>
     </g>
     <g id="text_11">
      <!-- $2$ -->
      <g transform="translate(131.14701 234.930878)scale(0.12 -0.12)">
       <use transform="scale(0.996264)" xlink:href="#CMR17-50"/>
      </g>
     </g>
    </g>
    <g id="text_12">
     <!-- Integrator output -->
     <g transform="translate(37.474037 251.917598)rotate(-359)scale(0.12 -0.12)">
      <use transform="scale(0.996264)" xlink:href="#CMR17-73"/>
      <use transform="translate(32.638409 0)scale(0.996264)" xlink:href="#CMR17-110"/>
      <use transform="translate(80.931325 0)scale(0.996264)" xlink:href="#CMR17-116"/>
      <use transform="translate(116.212093 0)scale(0.996264)" xlink:href="#CMR17-101"/>
      <use transform="translate(156.697753 0)scale(0.996264)" xlink:href="#CMR17-103"/>
      <use transform="translate(202.38823 0)scale(0.996264)" xlink:href="#CMR17-114"/>
      <use transform="translate(237.668998 0)scale(0.996264)" xlink:href="#CMR17-97"/>
      <use transform="translate(283.359475 0)scale(0.996264)" xlink:href="#CMR17-116"/>
      <use transform="translate(318.640243 0)scale(0.996264)" xlink:href="#CMR17-111"/>
      <use transform="translate(364.33072 0)scale(0.996264)" xlink:href="#CMR17-114"/>
      <use transform="translate(429.687454 0)scale(0.996264)" xlink:href="#CMR17-111"/>
      <use transform="translate(475.377932 0)scale(0.996264)" xlink:href="#CMR17-117"/>
      <use transform="translate(526.273301 0)scale(0.996264)" xlink:href="#CMR17-116"/>
      <use transform="translate(561.554069 0)scale(0.996264)" xlink:href="#CMR17-112"/>
      <use transform="translate(612.449439 0)scale(0.996264)" xlink:href="#CMR17-117"/>
      <use transform="translate(663.344809 0)scale(0.996264)" xlink:href="#CMR17-116"/>
     </g>
     <!--  differences -->
     <defs>
      <path d="M 29.203125 67.890625 
L 29.203125 65.296875 
C 35.09375 65.296875 36 64.703125 36 60.046875 
L 36 37.046875 
C 35.59375 37.546875 31.5 44 23.40625 44 
C 13.203125 44 3.296875 34.8125 3.296875 21.5 
C 3.296875 8.265625 12.59375 -1 22.40625 -1 
C 30.90625 -1 35.296875 5.640625 35.796875 6.34375 
L 35.796875 -1 
L 47.90625 -0.203125 
L 47.90625 2.40625 
C 42 2.40625 41.09375 3.015625 41.09375 7.859375 
L 41.09375 69 
z
M 35.796875 11.90625 
C 35.796875 8.875 34 6.140625 31.703125 4.125 
C 28.296875 1.09375 24.90625 0.59375 23 0.59375 
C 20.09375 0.59375 9.703125 2.109375 9.703125 21.390625 
C 9.703125 41.1875 21.296875 42.390625 23.90625 42.390625 
C 28.5 42.390625 32.203125 39.765625 34.5 36.140625 
C 35.796875 34.015625 35.796875 33.703125 35.796875 31.890625 
z
" id="CMR17-100"/>
      <path d="M 39.90625 40.390625 
L 51.296875 40.390625 
L 51.296875 43 
L 39.703125 43 
L 39.703125 55 
C 39.703125 63.234375 43.90625 68.390625 48.203125 68.390625 
C 49.5 68.390625 51 68 52 67.296875 
C 51.203125 67.09375 49.09375 66.40625 49.09375 63.921875 
C 49.09375 61.34375 51.09375 60.546875 52.5 60.546875 
C 53.90625 60.546875 55.90625 61.34375 55.90625 63.921875 
C 55.90625 67.703125 52.296875 70 48.296875 70 
C 44.40625 70 41.203125 68.09375 38.703125 65.71875 
C 36.40625 68.984375 32.59375 70 28.703125 70 
C 20.90625 70 9.90625 65.515625 9.90625 54.59375 
L 9.90625 43 
L 1.90625 43 
L 1.90625 40.390625 
L 9.90625 40.390625 
L 9.90625 6.890625 
C 9.90625 3.09375 9.5 2.59375 3.09375 2.59375 
L 3.09375 0 
C 5.5 0.1875 9.90625 0.1875 12.40625 0.1875 
C 15 0.1875 19.40625 0.1875 21.796875 0 
L 21.796875 2.59375 
C 15.40625 2.59375 15 3 15 6.890625 
L 15 40.390625 
L 34.796875 40.390625 
L 34.796875 6.890625 
C 34.796875 3.09375 34.40625 2.59375 28 2.59375 
L 28 0 
C 30.40625 0.1875 35 0.1875 37.59375 0.1875 
C 40.5 0.1875 45.59375 0.1875 48.296875 0 
L 48.296875 2.59375 
C 41.09375 2.59375 39.90625 2.59375 39.90625 7.09375 
z
M 14.796875 43 
L 14.796875 54.59375 
C 14.796875 63.625 21.796875 68.390625 28.5 68.390625 
C 30 68.390625 33.90625 68.09375 36.296875 65.90625 
C 34.5 65.8125 32.796875 65.015625 32.796875 62.53125 
C 32.796875 59.953125 35.09375 59.265625 35.296875 59.265625 
C 34.796875 57.484375 34.796875 55.5 34.796875 54.796875 
L 34.796875 43 
z
" id="CMR17-11"/>
      <path d="M 34.90625 35 
C 33 35 30.203125 35 30.203125 31.484375 
C 30.203125 28.6875 32.5 27.890625 33.796875 27.890625 
C 34.5 27.890625 37.40625 28.1875 37.40625 31.6875 
C 37.40625 38.6875 30.59375 44 22.90625 44 
C 12.296875 44 3.296875 34.390625 3.296875 21.546875 
C 3.296875 8.140625 12.703125 -1 22.90625 -1 
C 35.296875 -1 38.40625 10.5625 38.40625 11.671875 
C 38.40625 12.078125 38.296875 12.375 37.59375 12.375 
C 36.90625 12.375 36.796875 12.28125 36.40625 10.96875 
C 33.796875 2.8125 28.09375 0.796875 23.796875 0.796875 
C 17.40625 0.796875 9.703125 6.734375 9.703125 21.640625 
C 9.703125 36.84375 17.09375 42.1875 23 42.1875 
C 26.90625 42.1875 32.703125 40.34375 34.90625 35 
z
" id="CMR17-99"/>
     </defs>
     <g transform="translate(73.928598 264.842998)rotate(-359)scale(0.12 -0.12)">
      <use transform="scale(0.996264)" xlink:href="#CMR17-100"/>
      <use transform="translate(50.89537 0)scale(0.996264)" xlink:href="#CMR17-105"/>
      <use transform="translate(75.766428 0)scale(0.996264)" xlink:href="#CMR17-11"/>
      <use transform="translate(128.111106 0)scale(0.996264)" xlink:href="#CMR17-101"/>
      <use transform="translate(168.596766 0)scale(0.996264)" xlink:href="#CMR17-114"/>
      <use transform="translate(203.877534 0)scale(0.996264)" xlink:href="#CMR17-101"/>
      <use transform="translate(244.363194 0)scale(0.996264)" xlink:href="#CMR17-110"/>
      <use transform="translate(295.258564 0)scale(0.996264)" xlink:href="#CMR17-99"/>
      <use transform="translate(335.744225 0)scale(0.996264)" xlink:href="#CMR17-101"/>
      <use transform="translate(376.229885 0)scale(0.996264)" xlink:href="#CMR17-115"/>
     </g>
    </g>
   </g>
   <g id="line2d_15">
    <path clip-path="url(#p340b4e59e0)" d="M 144 291.115941 
L 166.068206 291.115941 
L 166.180526 222.160338 
L 182.969691 222.160338 
L 183.082011 291.115941 
L 215.221577 291.115941 
L 215.333897 222.160338 
L 239.129691 222.160338 
L 239.242011 291.115941 
L 260.074697 291.115941 
L 260.187017 222.160338 
L 295.428754 222.160338 
L 295.541074 291.115941 
L 317.79648 291.115941 
L 317.9088 222.160338 
L 346.282971 222.160338 
L 346.395291 291.115941 
L 377.320731 291.115941 
L 377.433051 222.160338 
L 391.045166 222.160338 
L 391.157486 291.115941 
L 429.094903 291.115941 
L 429.207223 222.160338 
L 440.054126 222.160338 
L 440.166446 291.115941 
L 456.73632 291.115941 
L 456.84864 222.160338 
L 481.863909 222.160338 
L 481.976229 291.115941 
L 500.471589 291.115941 
L 500.583909 222.160338 
L 511.971017 222.160338 
L 512.083337 291.115941 
L 518.394651 291.115941 
L 518.394651 291.115941 
" style="fill:none;stroke:#2ca02c;stroke-linecap:square;stroke-width:1.5;"/>
   </g>
   <g id="patch_14">
    <path d="M 144 294.563721 
L 144 218.712558 
" style="fill:none;stroke:#000000;stroke-linecap:square;stroke-linejoin:miter;stroke-width:0.8;"/>
   </g>
   <g id="patch_15">
    <path d="M 518.4 294.563721 
L 518.4 218.712558 
" style="fill:none;stroke:#000000;stroke-linecap:square;stroke-linejoin:miter;stroke-width:0.8;"/>
   </g>
   <g id="patch_16">
    <path d="M 144 294.563721 
L 518.4 294.563721 
" style="fill:none;stroke:#000000;stroke-linecap:square;stroke-linejoin:miter;stroke-width:0.8;"/>
   </g>
   <g id="patch_17">
    <path d="M 144 218.712558 
L 518.4 218.712558 
" style="fill:none;stroke:#000000;stroke-linecap:square;stroke-linejoin:miter;stroke-width:0.8;"/>
   </g>
  </g>
  <g id="axes_4">
   <g id="patch_18">
    <path d="M 144 378 
L 518.4 378 
L 518.4 302.148837 
L 144 302.148837 
z
" style="fill:#ffffff;"/>
   </g>
   <g id="matplotlib.axis_4">
    <g id="xtick_1">
     <g id="line2d_16">
      <defs>
       <path d="M 0 0 
L 0 3.5 
" id="m4a2c9bd7b0" style="stroke:#000000;stroke-width:0.8;"/>
      </defs>
      <g>
       <use style="stroke:#000000;stroke-width:0.8;" x="144" xlink:href="#m4a2c9bd7b0" y="378"/>
      </g>
     </g>
     <g id="text_13">
      <!-- $0$ -->
      <g transform="translate(141.073505 393.30218)scale(0.12 -0.12)">
       <use transform="scale(0.996264)" xlink:href="#CMR17-48"/>
      </g>
     </g>
    </g>
    <g id="xtick_2">
     <g id="line2d_17">
      <g>
       <use style="stroke:#000000;stroke-width:0.8;" x="197.485714" xlink:href="#m4a2c9bd7b0" y="378"/>
      </g>
     </g>
     <g id="text_14">
      <!-- $1$ -->
      <g transform="translate(194.559219 393.30218)scale(0.12 -0.12)">
       <use transform="scale(0.996264)" xlink:href="#CMR17-49"/>
      </g>
     </g>
    </g>
    <g id="xtick_3">
     <g id="line2d_18">
      <g>
       <use style="stroke:#000000;stroke-width:0.8;" x="250.971429" xlink:href="#m4a2c9bd7b0" y="378"/>
      </g>
     </g>
     <g id="text_15">
      <!-- $2$ -->
      <g transform="translate(248.044933 393.30218)scale(0.12 -0.12)">
       <use transform="scale(0.996264)" xlink:href="#CMR17-50"/>
      </g>
     </g>
    </g>
    <g id="xtick_4">
     <g id="line2d_19">
      <g>
       <use style="stroke:#000000;stroke-width:0.8;" x="304.457143" xlink:href="#m4a2c9bd7b0" y="378"/>
      </g>
     </g>
     <g id="text_16">
      <!-- $3$ -->
      <defs>
       <path d="M 22.09375 34 
C 31 34 34.90625 26.140625 34.90625 17.09375 
C 34.90625 5.03125 28.5 0.390625 22.703125 0.390625 
C 17.40625 0.390625 8.796875 3.015625 6.09375 10.796875 
C 6.59375 10.59375 7.09375 10.59375 7.59375 10.59375 
C 10 10.59375 11.796875 12.1875 11.796875 14.796875 
C 11.796875 17.6875 9.59375 19 7.59375 19 
C 5.90625 19 3.296875 18.1875 3.296875 14.484375 
C 3.296875 5.234375 12.296875 -2 22.90625 -2 
C 34 -2 42.5 6.75 42.5 16.984375 
C 42.5 26.84375 34.5 34 25 35.09375 
C 32.59375 36.671875 39.90625 43.375 39.90625 52.390625 
C 39.90625 60.25 32 66 23 66 
C 13.90625 66 5.90625 60.34375 5.90625 52.296875 
C 5.90625 48.796875 8.5 48.1875 9.796875 48.1875 
C 11.90625 48.1875 13.703125 49.484375 13.703125 52.09375 
C 13.703125 54.6875 11.90625 56 9.796875 56 
C 9.40625 56 8.90625 56 8.5 55.796875 
C 11.40625 62.484375 19.296875 63.6875 22.796875 63.6875 
C 26.296875 63.6875 32.90625 61.96875 32.90625 52.296875 
C 32.90625 49.484375 32.5 44.546875 29.09375 40.21875 
C 26.09375 36.390625 22.703125 36.1875 19.40625 35.890625 
C 18.90625 35.890625 16.59375 35.6875 16.203125 35.6875 
C 15.5 35.59375 15.09375 35.5 15.09375 34.796875 
C 15.09375 34.09375 15.203125 34 17.203125 34 
z
" id="CMR17-51"/>
      </defs>
      <g transform="translate(301.530648 393.30218)scale(0.12 -0.12)">
       <use transform="scale(0.996264)" xlink:href="#CMR17-51"/>
      </g>
     </g>
    </g>
    <g id="xtick_5">
     <g id="line2d_20">
      <g>
       <use style="stroke:#000000;stroke-width:0.8;" x="357.942857" xlink:href="#m4a2c9bd7b0" y="378"/>
      </g>
     </g>
     <g id="text_17">
      <!-- $4$ -->
      <defs>
       <path d="M 33.59375 64.796875 
C 33.59375 66.890625 33.5 67 31.703125 67 
L 2 19.59375 
L 2 17 
L 27.796875 17 
L 27.796875 7.1875 
C 27.796875 3.59375 27.59375 2.59375 20.59375 2.59375 
L 18.703125 2.59375 
L 18.703125 0 
C 21.90625 0.1875 27.296875 0.1875 30.703125 0.1875 
C 34.09375 0.1875 39.5 0.1875 42.703125 0 
L 42.703125 2.59375 
L 40.796875 2.59375 
C 33.796875 2.59375 33.59375 3.59375 33.59375 7.1875 
L 33.59375 17 
L 43.796875 17 
L 43.796875 19.59375 
L 33.59375 19.59375 
z
M 28.09375 58.171875 
L 28.09375 19.59375 
L 4 19.59375 
z
" id="CMR17-52"/>
      </defs>
      <g transform="translate(355.016362 393.30218)scale(0.12 -0.12)">
       <use transform="scale(0.996264)" xlink:href="#CMR17-52"/>
      </g>
     </g>
    </g>
    <g id="xtick_6">
     <g id="line2d_21">
      <g>
       <use style="stroke:#000000;stroke-width:0.8;" x="411.428571" xlink:href="#m4a2c9bd7b0" y="378"/>
      </g>
     </g>
     <g id="text_18">
      <!-- $5$ -->
      <g transform="translate(408.502076 393.30218)scale(0.12 -0.12)">
       <use transform="scale(0.996264)" xlink:href="#CMR17-53"/>
      </g>
     </g>
    </g>
    <g id="xtick_7">
     <g id="line2d_22">
      <g>
       <use style="stroke:#000000;stroke-width:0.8;" x="464.914286" xlink:href="#m4a2c9bd7b0" y="378"/>
      </g>
     </g>
     <g id="text_19">
      <!-- $6$ -->
      <defs>
       <path d="M 10.59375 34.34375 
C 10.59375 58 21.796875 63.6875 28.296875 63.6875 
C 30.40625 63.6875 35.5 63.265625 37.5 59.09375 
C 35.90625 59.09375 32.90625 59.09375 32.90625 55.59375 
C 32.90625 52.890625 35.09375 52 36.5 52 
C 37.40625 52 40.09375 52.390625 40.09375 55.796875 
C 40.09375 62.296875 35.09375 66 28.203125 66 
C 16.296875 66 3.796875 53.296875 3.796875 31.421875 
C 3.796875 4.015625 15.09375 -2 23.09375 -2 
C 32.796875 -2 42 6.734375 42 20.234375 
C 42 32.828125 33.90625 42 23.703125 42 
C 17.59375 42 13.09375 37.96875 10.59375 30.921875 
z
M 23.09375 0.390625 
C 10.796875 0.390625 10.796875 18.9375 10.796875 22.65625 
C 10.796875 29.90625 14.203125 40.390625 23.5 40.390625 
C 25.203125 40.390625 30.09375 40.390625 33.40625 33.4375 
C 35.203125 29.515625 35.203125 25.375 35.203125 20.34375 
C 35.203125 14.90625 35.203125 10.875 33.09375 6.84375 
C 30.90625 2.703125 27.703125 0.390625 23.09375 0.390625 
z
" id="CMR17-54"/>
      </defs>
      <g transform="translate(461.987791 393.30218)scale(0.12 -0.12)">
       <use transform="scale(0.996264)" xlink:href="#CMR17-54"/>
      </g>
     </g>
    </g>
    <g id="xtick_8">
     <g id="line2d_23">
      <g>
       <use style="stroke:#000000;stroke-width:0.8;" x="518.4" xlink:href="#m4a2c9bd7b0" y="378"/>
      </g>
     </g>
     <g id="text_20">
      <!-- $7$ -->
      <defs>
       <path d="M 45.09375 61.796875 
L 45.09375 64 
L 21.59375 64 
C 9.90625 64 9.703125 65.09375 9.296875 67 
L 7.5 67 
L 4.59375 48.5 
L 6.40625 48.5 
C 6.703125 50.40625 7.40625 55.5 8.59375 57.390625 
C 9.203125 58.1875 16.59375 58.1875 18.296875 58.1875 
L 40.296875 58.1875 
L 29.203125 41.71875 
C 21.796875 30.640625 16.703125 15.671875 16.703125 2.59375 
C 16.703125 1.390625 16.703125 -2 20.296875 -2 
C 23.90625 -2 23.90625 1.390625 23.90625 2.6875 
L 23.90625 7.28125 
C 23.90625 23.65625 26.703125 34.4375 31.296875 41.3125 
z
" id="CMR17-55"/>
      </defs>
      <g transform="translate(515.473505 393.30218)scale(0.12 -0.12)">
       <use transform="scale(0.996264)" xlink:href="#CMR17-55"/>
      </g>
     </g>
    </g>
    <g id="text_21">
     <!-- Time (s) -->
     <defs>
      <path d="M 62.203125 67.6875 
L 4.5 67.6875 
L 2.796875 45.6875 
L 4.59375 45.6875 
C 5.90625 62.203125 7.296875 65.09375 22.703125 65.09375 
C 24.5 65.09375 27.40625 65.09375 28.203125 64.984375 
C 30.09375 64.6875 30.09375 63.5 30.09375 61.203125 
L 30.09375 7.265625 
C 30.09375 3.6875 29.796875 2.59375 21.5 2.59375 
L 18.703125 2.59375 
L 18.703125 0 
C 23.5 0.09375 28.5 0.1875 33.40625 0.1875 
C 38.296875 0.1875 43.296875 0.09375 48.09375 0 
L 48.09375 2.59375 
L 45.296875 2.59375 
C 37 2.59375 36.703125 3.6875 36.703125 7.265625 
L 36.703125 61.203125 
C 36.703125 63.390625 36.703125 64.59375 38.5 64.984375 
C 39.296875 65.09375 42.203125 65.09375 44 65.09375 
C 59.296875 65.09375 60.796875 62.203125 62.09375 45.6875 
L 63.90625 45.6875 
z
" id="CMR17-84"/>
      <path d="M 67.59375 30.53125 
C 67.59375 35.5625 66.703125 44 54.796875 44 
C 48 44 43.296875 39.375 41.5 33.953125 
L 41.40625 33.953125 
C 40.203125 42.1875 34.296875 44 28.703125 44 
C 20.796875 44 16.703125 37.875 15.203125 33.84375 
L 15.09375 33.84375 
L 15.09375 44 
L 3.296875 42.890625 
L 3.296875 40.28125 
C 9.203125 40.28125 10.09375 39.6875 10.09375 34.859375 
L 10.09375 6.921875 
C 10.09375 3.09375 9.703125 2.59375 3.296875 2.59375 
L 3.296875 0 
C 5.703125 0.1875 10.09375 0.1875 12.703125 0.1875 
C 15.296875 0.1875 19.796875 0.1875 22.203125 0 
L 22.203125 2.59375 
C 15.796875 2.59375 15.40625 3 15.40625 6.921875 
L 15.40625 26.21875 
C 15.40625 35.453125 21 42.390625 28 42.390625 
C 35.40625 42.390625 36.203125 35.765625 36.203125 30.9375 
L 36.203125 6.921875 
C 36.203125 3.09375 35.796875 2.59375 29.40625 2.59375 
L 29.40625 0 
C 31.796875 0.1875 36.203125 0.1875 38.796875 0.1875 
C 41.40625 0.1875 45.90625 0.1875 48.296875 0 
L 48.296875 2.59375 
C 41.90625 2.59375 41.5 3 41.5 6.921875 
L 41.5 26.21875 
C 41.5 35.453125 47.09375 42.390625 54.09375 42.390625 
C 61.5 42.390625 62.296875 35.765625 62.296875 30.9375 
L 62.296875 6.921875 
C 62.296875 3.09375 61.90625 2.59375 55.5 2.59375 
L 55.5 0 
C 57.90625 0.1875 62.296875 0.1875 64.90625 0.1875 
C 67.5 0.1875 72 0.1875 74.40625 0 
L 74.40625 2.59375 
C 68 2.59375 67.59375 3 67.59375 6.921875 
z
" id="CMR17-109"/>
     </defs>
     <g transform="translate(309.056187 408.593152)scale(0.12 -0.12)">
      <use transform="scale(0.996264)" xlink:href="#CMR17-84"/>
      <use transform="translate(66.509881 0)scale(0.996264)" xlink:href="#CMR17-105"/>
      <use transform="translate(91.380939 0)scale(0.996264)" xlink:href="#CMR17-109"/>
      <use transform="translate(168.300529 0)scale(0.996264)" xlink:href="#CMR17-101"/>
      <use transform="translate(238.862156 0)scale(0.996264)" xlink:href="#CMR17-40"/>
      <use transform="translate(274.142924 0)scale(0.996264)" xlink:href="#CMR17-115"/>
      <use transform="translate(309.944261 0)scale(0.996264)" xlink:href="#CMR17-41"/>
     </g>
    </g>
   </g>
   <g id="matplotlib.axis_5">
    <g id="ytick_8">
     <g id="line2d_24">
      <g>
       <use style="stroke:#000000;stroke-width:0.8;" x="144" xlink:href="#mfa479cc693" y="378"/>
      </g>
     </g>
     <g id="text_22">
      <!-- $0.0$ -->
      <defs>
       <path d="M 18.40625 4.796875 
C 18.40625 7.6875 16 9.6875 13.59375 9.6875 
C 10.703125 9.6875 8.703125 7.296875 8.703125 4.890625 
C 8.703125 2 11.09375 0 13.5 0 
C 16.40625 0 18.40625 2.390625 18.40625 4.796875 
z
" id="CMMI12-58"/>
      </defs>
      <g transform="translate(122.042358 382.15109)scale(0.12 -0.12)">
       <use transform="scale(0.996264)" xlink:href="#CMR17-48"/>
       <use transform="translate(45.690477 0)scale(0.996264)" xlink:href="#CMMI12-58"/>
       <use transform="translate(72.787654 0)scale(0.996264)" xlink:href="#CMR17-48"/>
      </g>
     </g>
    </g>
    <g id="ytick_9">
     <g id="line2d_25">
      <g>
       <use style="stroke:#000000;stroke-width:0.8;" x="144" xlink:href="#mfa479cc693" y="340.074419"/>
      </g>
     </g>
     <g id="text_23">
      <!-- $0.5$ -->
      <g transform="translate(122.042358 344.225509)scale(0.12 -0.12)">
       <use transform="scale(0.996264)" xlink:href="#CMR17-48"/>
       <use transform="translate(45.690477 0)scale(0.996264)" xlink:href="#CMMI12-58"/>
       <use transform="translate(72.787654 0)scale(0.996264)" xlink:href="#CMR17-53"/>
      </g>
     </g>
    </g>
    <g id="ytick_10">
     <g id="line2d_26">
      <g>
       <use style="stroke:#000000;stroke-width:0.8;" x="144" xlink:href="#mfa479cc693" y="302.148837"/>
      </g>
     </g>
     <g id="text_24">
      <!-- $1.0$ -->
      <g transform="translate(122.042358 306.299927)scale(0.12 -0.12)">
       <use transform="scale(0.996264)" xlink:href="#CMR17-49"/>
       <use transform="translate(45.690477 0)scale(0.996264)" xlink:href="#CMMI12-58"/>
       <use transform="translate(72.787654 0)scale(0.996264)" xlink:href="#CMR17-48"/>
      </g>
     </g>
    </g>
    <g id="text_25">
     <!-- Spike Times -->
     <defs>
      <path d="M 26.09375 26.234375 
C 26 26.4375 25.5 27.03125 25.5 27.328125 
C 25.5 27.53125 32.59375 33.984375 33.5 34.78125 
C 39.203125 39.5625 42.796875 40.046875 45.40625 40.15625 
L 45.40625 42.734375 
C 44.796875 42.734375 44.59375 42.734375 44.5 42.640625 
L 39.59375 42.53125 
C 36.796875 42.53125 32.5 42.53125 29.796875 42.734375 
L 29.796875 40.15625 
C 31.203125 40.046875 32.203125 39.265625 32.203125 37.859375 
C 32.203125 35.875 30.203125 33.984375 30.09375 33.984375 
L 15 20.28125 
L 15 69 
L 3.09375 67.890625 
L 3.09375 65.296875 
C 9 65.296875 9.90625 64.703125 9.90625 59.921875 
L 9.90625 6.859375 
C 9.90625 3.09375 9.5 2.59375 3.09375 2.59375 
L 3.09375 0 
C 5.5 0.1875 9.90625 0.1875 12.40625 0.1875 
C 14.90625 0.1875 19.296875 0.1875 21.703125 0 
L 21.703125 2.59375 
C 15.296875 2.59375 14.90625 2.984375 14.90625 6.859375 
L 14.90625 17.796875 
L 21.796875 24.0625 
L 31.90625 9.15625 
C 33.09375 7.359375 34.09375 5.96875 34.09375 4.671875 
C 34.09375 2.890625 32.296875 2.59375 31.09375 2.59375 
L 31.09375 0 
C 33.5 0.1875 37.796875 0.1875 40.296875 0.1875 
C 42.09375 0.1875 45.796875 0.09375 47.5 0 
L 47.5 2.59375 
C 42.796875 2.59375 41.703125 3.484375 38.703125 7.859375 
z
" id="CMR17-107"/>
     </defs>
     <g transform="translate(55.502786 341.972034)rotate(-359)scale(0.12 -0.12)">
      <use transform="scale(0.996264)" xlink:href="#CMR17-83"/>
      <use transform="translate(50.89537 0)scale(0.996264)" xlink:href="#CMR17-112"/>
      <use transform="translate(101.79074 0)scale(0.996264)" xlink:href="#CMR17-105"/>
      <use transform="translate(126.661798 0)scale(0.996264)" xlink:href="#CMR17-107"/>
      <use transform="translate(172.35226 0)scale(0.996264)" xlink:href="#CMR17-101"/>
      <use transform="translate(242.913887 0)scale(0.996264)" xlink:href="#CMR17-84"/>
      <use transform="translate(309.423767 0)scale(0.996264)" xlink:href="#CMR17-105"/>
      <use transform="translate(334.294826 0)scale(0.996264)" xlink:href="#CMR17-109"/>
      <use transform="translate(411.214416 0)scale(0.996264)" xlink:href="#CMR17-101"/>
      <use transform="translate(451.700076 0)scale(0.996264)" xlink:href="#CMR17-115"/>
     </g>
    </g>
   </g>
   <g id="line2d_27">
    <path clip-path="url(#p9c9913cb3b)" d="M 182.97504 378 
L 182.97504 302.148837 
" style="fill:none;stroke:#1f77b4;stroke-dasharray:5.55,2.4;stroke-dashoffset:0;stroke-width:1.5;"/>
   </g>
   <g id="line2d_28">
    <path clip-path="url(#p9c9913cb3b)" d="M 239.13504 378 
L 239.13504 302.148837 
" style="fill:none;stroke:#1f77b4;stroke-dasharray:5.55,2.4;stroke-dashoffset:0;stroke-width:1.5;"/>
   </g>
   <g id="line2d_29">
    <path clip-path="url(#p9c9913cb3b)" d="M 295.434103 378 
L 295.434103 302.148837 
" style="fill:none;stroke:#1f77b4;stroke-dasharray:5.55,2.4;stroke-dashoffset:0;stroke-width:1.5;"/>
   </g>
   <g id="line2d_30">
    <path clip-path="url(#p9c9913cb3b)" d="M 346.28832 378 
L 346.28832 302.148837 
" style="fill:none;stroke:#1f77b4;stroke-dasharray:5.55,2.4;stroke-dashoffset:0;stroke-width:1.5;"/>
   </g>
   <g id="line2d_31">
    <path clip-path="url(#p9c9913cb3b)" d="M 391.050514 378 
L 391.050514 302.148837 
" style="fill:none;stroke:#1f77b4;stroke-dasharray:5.55,2.4;stroke-dashoffset:0;stroke-width:1.5;"/>
   </g>
   <g id="line2d_32">
    <path clip-path="url(#p9c9913cb3b)" d="M 440.059474 378 
L 440.059474 302.148837 
" style="fill:none;stroke:#1f77b4;stroke-dasharray:5.55,2.4;stroke-dashoffset:0;stroke-width:1.5;"/>
   </g>
   <g id="line2d_33">
    <path clip-path="url(#p9c9913cb3b)" d="M 481.869257 378 
L 481.869257 302.148837 
" style="fill:none;stroke:#1f77b4;stroke-dasharray:5.55,2.4;stroke-dashoffset:0;stroke-width:1.5;"/>
   </g>
   <g id="line2d_34">
    <path clip-path="url(#p9c9913cb3b)" d="M 511.976366 378 
L 511.976366 302.148837 
" style="fill:none;stroke:#1f77b4;stroke-dasharray:5.55,2.4;stroke-dashoffset:0;stroke-width:1.5;"/>
   </g>
   <g id="line2d_35">
    <path clip-path="url(#p9c9913cb3b)" d="M 166.073554 378 
L 166.073554 302.148837 
" style="fill:none;stroke:#ff7f0e;stroke-dasharray:5.55,2.4;stroke-dashoffset:0;stroke-width:1.5;"/>
   </g>
   <g id="line2d_36">
    <path clip-path="url(#p9c9913cb3b)" d="M 215.226926 378 
L 215.226926 302.148837 
" style="fill:none;stroke:#ff7f0e;stroke-dasharray:5.55,2.4;stroke-dashoffset:0;stroke-width:1.5;"/>
   </g>
   <g id="line2d_37">
    <path clip-path="url(#p9c9913cb3b)" d="M 260.080046 378 
L 260.080046 302.148837 
" style="fill:none;stroke:#ff7f0e;stroke-dasharray:5.55,2.4;stroke-dashoffset:0;stroke-width:1.5;"/>
   </g>
   <g id="line2d_38">
    <path clip-path="url(#p9c9913cb3b)" d="M 317.801829 378 
L 317.801829 302.148837 
" style="fill:none;stroke:#ff7f0e;stroke-dasharray:5.55,2.4;stroke-dashoffset:0;stroke-width:1.5;"/>
   </g>
   <g id="line2d_39">
    <path clip-path="url(#p9c9913cb3b)" d="M 377.32608 378 
L 377.32608 302.148837 
" style="fill:none;stroke:#ff7f0e;stroke-dasharray:5.55,2.4;stroke-dashoffset:0;stroke-width:1.5;"/>
   </g>
   <g id="line2d_40">
    <path clip-path="url(#p9c9913cb3b)" d="M 429.100251 378 
L 429.100251 302.148837 
" style="fill:none;stroke:#ff7f0e;stroke-dasharray:5.55,2.4;stroke-dashoffset:0;stroke-width:1.5;"/>
   </g>
   <g id="line2d_41">
    <path clip-path="url(#p9c9913cb3b)" d="M 456.741669 378 
L 456.741669 302.148837 
" style="fill:none;stroke:#ff7f0e;stroke-dasharray:5.55,2.4;stroke-dashoffset:0;stroke-width:1.5;"/>
   </g>
   <g id="line2d_42">
    <path clip-path="url(#p9c9913cb3b)" d="M 500.476937 378 
L 500.476937 302.148837 
" style="fill:none;stroke:#ff7f0e;stroke-dasharray:5.55,2.4;stroke-dashoffset:0;stroke-width:1.5;"/>
   </g>
   <g id="patch_19">
    <path d="M 144 378 
L 144 302.148837 
" style="fill:none;stroke:#000000;stroke-linecap:square;stroke-linejoin:miter;stroke-width:0.8;"/>
   </g>
   <g id="patch_20">
    <path d="M 518.4 378 
L 518.4 302.148837 
" style="fill:none;stroke:#000000;stroke-linecap:square;stroke-linejoin:miter;stroke-width:0.8;"/>
   </g>
   <g id="patch_21">
    <path d="M 144 378 
L 518.4 378 
" style="fill:none;stroke:#000000;stroke-linecap:square;stroke-linejoin:miter;stroke-width:0.8;"/>
   </g>
   <g id="patch_22">
    <path d="M 144 302.148837 
L 518.4 302.148837 
" style="fill:none;stroke:#000000;stroke-linecap:square;stroke-linejoin:miter;stroke-width:0.8;"/>
   </g>
  </g>
 </g>
 <defs>
  <clipPath id="pdb13453e59">
   <rect height="75.851163" width="374.4" x="144" y="51.84"/>
  </clipPath>
  <clipPath id="pc397405f1d">
   <rect height="75.851163" width="374.4" x="144" y="135.276279"/>
  </clipPath>
  <clipPath id="p340b4e59e0">
   <rect height="75.851163" width="374.4" x="144" y="218.712558"/>
  </clipPath>
  <clipPath id="p9c9913cb3b">
   <rect height="75.851163" width="374.4" x="144" y="302.148837"/>
  </clipPath>
 </defs>
</svg>
